%TF.GenerationSoftware,KiCad,Pcbnew,10.0.1*%
%TF.CreationDate,2026-05-18T15:35:15+09:00*%
%TF.ProjectId,ez_usb_cyclone10,657a5f75-7362-45f6-9379-636c6f6e6531,rev?*%
%TF.SameCoordinates,Original*%
%TF.FileFunction,Copper,L1,Top*%
%TF.FilePolarity,Positive*%
%FSLAX46Y46*%
G04 Gerber Fmt 4.6, Leading zero omitted, Abs format (unit mm)*
G04 Created by KiCad (PCBNEW 10.0.1) date 2026-05-18 15:35:15*
%MOMM*%
%LPD*%
G01*
G04 APERTURE LIST*
%TA.AperFunction,ComponentPad*%
%ADD10R,1.700000X1.700000*%
%TD*%
%TA.AperFunction,ComponentPad*%
%ADD11C,1.700000*%
%TD*%
%TA.AperFunction,ViaPad*%
%ADD12C,0.600000*%
%TD*%
%TA.AperFunction,Conductor*%
%ADD13C,0.200000*%
%TD*%
G04 APERTURE END LIST*
D10*
%TO.P,J4,1,Pin_1_1*%
%TO.N,unconnected-(J4-Pin_1-Pad1)*%
X115050000Y-61630020D03*
D11*
%TO.P,J4,2,Pin_2_2*%
%TO.N,unconnected-(J4-Pin_2-Pad2)*%
X117590000Y-61630020D03*
%TO.P,J4,3,Pin_3_3*%
%TO.N,/GND*%
X115050000Y-64170020D03*
%TO.P,J4,4,Pin_4_4*%
X117590000Y-64170020D03*
%TO.P,J4,5,Pin_5_5*%
%TO.N,unconnected-(J4-Pin_5-Pad5)*%
X115050000Y-66710020D03*
%TO.P,J4,6,Pin_6_6*%
%TO.N,unconnected-(J4-Pin_6-Pad6)*%
X117590000Y-66710020D03*
%TO.P,J4,7,Pin_7_7*%
%TO.N,unconnected-(J4-Pin_7-Pad7)*%
X115050000Y-69250020D03*
%TO.P,J4,8,Pin_8_8*%
%TO.N,unconnected-(J4-Pin_8-Pad8)*%
X117590000Y-69250020D03*
%TO.P,J4,9,Pin_9_9*%
%TO.N,unconnected-(J4-Pin_9-Pad9)*%
X115050000Y-71790020D03*
%TO.P,J4,10,Pin_10_10*%
%TO.N,unconnected-(J4-Pin_10-Pad10)*%
X117590000Y-71790020D03*
%TO.P,J4,11,Pin_11_11*%
%TO.N,/FX2_FD15*%
X115050000Y-74330020D03*
%TO.P,J4,12,Pin_12_12*%
%TO.N,/FX2_FD7*%
X117590000Y-74330020D03*
%TO.P,J4,13,Pin_13_13*%
%TO.N,/FX2_FD14*%
X115050000Y-76870020D03*
%TO.P,J4,14,Pin_14_14*%
%TO.N,/FX2_FD6*%
X117590000Y-76870020D03*
%TO.P,J4,15,Pin_15_15*%
%TO.N,/FX2_FD13*%
X115050000Y-79410020D03*
%TO.P,J4,16,Pin_16_16*%
%TO.N,/FX2_FD5*%
X117590000Y-79410020D03*
%TO.P,J4,17,Pin_17_17*%
%TO.N,/FX2_FD12*%
X115050000Y-81950020D03*
%TO.P,J4,18,Pin_18_18*%
%TO.N,/FX2_FD4*%
X117590000Y-81950020D03*
%TO.P,J4,19,Pin_19_19*%
%TO.N,/FX2_FD11*%
X115050000Y-84490020D03*
%TO.P,J4,20,Pin_20_20*%
%TO.N,/FX2_FD3*%
X117590000Y-84490020D03*
%TO.P,J4,21,Pin_21_21*%
%TO.N,/FX2_FD10*%
X115050000Y-87030020D03*
%TO.P,J4,22,Pin_22_22*%
%TO.N,/FX2_FD2*%
X117590000Y-87030020D03*
%TO.P,J4,23,Pin_23_23*%
%TO.N,/FX2_FD9*%
X115050000Y-89570020D03*
%TO.P,J4,24,Pin_24_24*%
%TO.N,/FX2_FD1*%
X117590000Y-89570020D03*
%TO.P,J4,25,Pin_25_25*%
%TO.N,/FX2_FD8*%
X115050000Y-92110020D03*
%TO.P,J4,26,Pin_26_26*%
%TO.N,/FX2_FD0*%
X117590000Y-92110020D03*
%TO.P,J4,27,Pin_27_27*%
%TO.N,/FX2_SLWR*%
X115050000Y-94650020D03*
%TO.P,J4,28,Pin_28_28*%
%TO.N,/FX2_SLRD*%
X117590000Y-94650020D03*
%TO.P,J4,29,Pin_29_29*%
%TO.N,/FX2_FLAGD*%
X115050000Y-97190020D03*
%TO.P,J4,30,Pin_30_30*%
%TO.N,/FX2_FLAGC*%
X117590000Y-97190020D03*
%TO.P,J4,31,Pin_31_31*%
%TO.N,/FX2_FLAGB*%
X115050000Y-99730020D03*
%TO.P,J4,32,Pin_32_32*%
%TO.N,/FX2_FLAGA*%
X117590000Y-99730020D03*
%TO.P,J4,33,Pin_33_33*%
%TO.N,/FX2_PKTEND*%
X115050000Y-102270020D03*
%TO.P,J4,34,Pin_34_34*%
%TO.N,/FX2_SLOE*%
X117590000Y-102270020D03*
%TO.P,J4,35,Pin_35_35*%
%TO.N,/GND*%
X115050000Y-104810020D03*
%TO.P,J4,36,Pin_36_36*%
%TO.N,/FX2_ADDR1*%
X117590000Y-104810020D03*
%TO.P,J4,37,Pin_37_37*%
%TO.N,unconnected-(J4-Pin_37-Pad37)*%
X115050000Y-107350020D03*
%TO.P,J4,38,Pin_38_38*%
%TO.N,/FX2_ADDR0*%
X117590000Y-107350020D03*
%TO.P,J4,39,Pin_39_39*%
%TO.N,unconnected-(J4-Pin_39-Pad39)*%
X115050000Y-109890020D03*
%TO.P,J4,40,Pin_40_40*%
%TO.N,unconnected-(J4-Pin_40-Pad40)*%
X117590000Y-109890020D03*
%TO.P,J4,41,Pin_41_41*%
%TO.N,unconnected-(J4-Pin_41-Pad41)*%
X115050000Y-112430020D03*
%TO.P,J4,42,Pin_42_42*%
%TO.N,unconnected-(J4-Pin_42-Pad42)*%
X117590000Y-112430020D03*
%TO.P,J4,43,Pin_43_43*%
%TO.N,unconnected-(J4-Pin_43-Pad43)*%
X115050000Y-114970020D03*
%TO.P,J4,44,Pin_44_44*%
%TO.N,/FX2_IFCLK*%
X117590000Y-114970020D03*
%TO.P,J4,45,Pin_45_45*%
%TO.N,unconnected-(J4-Pin_45-Pad45)*%
X115050000Y-117510020D03*
%TO.P,J4,46,Pin_46_46*%
%TO.N,unconnected-(J4-Pin_46-Pad46)*%
X117590000Y-117510020D03*
%TO.P,J4,47,Pin_47_47*%
%TO.N,/GND*%
X115050000Y-120050020D03*
%TO.P,J4,48,Pin_48_48*%
X117590000Y-120050020D03*
%TD*%
D10*
%TO.P,J1,1,Pin_1_1*%
%TO.N,/FX2_FD13*%
X138360000Y-96460000D03*
D11*
%TO.P,J1,2,Pin_2_2*%
%TO.N,/FX2_FD14*%
X140900000Y-96460000D03*
%TO.P,J1,3,Pin_3_3*%
%TO.N,/FX2_FD15*%
X138360000Y-99000000D03*
%TO.P,J1,4,Pin_4_4*%
%TO.N,/GND*%
X140900000Y-99000000D03*
%TO.P,J1,5,Pin_5_5*%
%TO.N,unconnected-(J1-Pin_5-Pad5)*%
X138360000Y-101540000D03*
%TO.P,J1,6,Pin_6_6*%
%TO.N,/GND*%
X140900000Y-101540000D03*
%TO.P,J1,7,Pin_7_7*%
%TO.N,/FX2_SLRD*%
X138360000Y-104080000D03*
%TO.P,J1,8,Pin_8_8*%
%TO.N,/FX2_SLWR*%
X140900000Y-104080000D03*
%TO.P,J1,9,Pin_9_9*%
%TO.N,/GND*%
X138360000Y-106620000D03*
%TO.P,J1,10,Pin_10_10*%
%TO.N,unconnected-(J1-Pin_10-Pad10)*%
X140900000Y-106620000D03*
%TO.P,J1,11,Pin_11_11*%
%TO.N,/GND*%
X138360000Y-109160000D03*
%TO.P,J1,12,Pin_12_12*%
%TO.N,/FX2_IFCLK*%
X140900000Y-109160000D03*
%TO.P,J1,13,Pin_13_13*%
%TO.N,unconnected-(J1-Pin_13-Pad13)*%
X138360000Y-111700000D03*
%TO.P,J1,14,Pin_14_14*%
%TO.N,unconnected-(J1-Pin_14-Pad14)*%
X140900000Y-111700000D03*
%TO.P,J1,15,Pin_15_15*%
%TO.N,/FX2_FD0*%
X138360000Y-114240000D03*
%TO.P,J1,16,Pin_16_16*%
%TO.N,/FX2_FD1*%
X140900000Y-114240000D03*
%TO.P,J1,17,Pin_17_17*%
%TO.N,/FX2_FD2*%
X138360000Y-116780000D03*
%TO.P,J1,18,Pin_18_18*%
%TO.N,/FX2_FD3*%
X140900000Y-116780000D03*
%TO.P,J1,19,Pin_19_19*%
%TO.N,/GND*%
X138360000Y-119320000D03*
%TO.P,J1,20,Pin_20_20*%
%TO.N,unconnected-(J1-Pin_20-Pad20)*%
X140900000Y-119320000D03*
%TD*%
D10*
%TO.P,J2,1,Pin_1_1*%
%TO.N,/FX2_FD12*%
X165560000Y-96460000D03*
D11*
%TO.P,J2,2,Pin_2_2*%
%TO.N,/FX2_FD11*%
X168100000Y-96460000D03*
%TO.P,J2,3,Pin_3_3*%
%TO.N,/FX2_FD10*%
X165560000Y-99000000D03*
%TO.P,J2,4,Pin_4_4*%
%TO.N,/FX2_FD9*%
X168100000Y-99000000D03*
%TO.P,J2,5,Pin_5_5*%
%TO.N,/FX2_FD8*%
X165560000Y-101540000D03*
%TO.P,J2,6,Pin_6_6*%
%TO.N,/FX2_FLAGD*%
X168100000Y-101540000D03*
%TO.P,J2,7,Pin_7_7*%
%TO.N,/FX2_PKTEND*%
X165560000Y-104080000D03*
%TO.P,J2,8,Pin_8_8*%
%TO.N,/FX2_ADDR1*%
X168100000Y-104080000D03*
%TO.P,J2,9,Pin_9_9*%
%TO.N,/FX2_ADDR0*%
X165560000Y-106620000D03*
%TO.P,J2,10,Pin_10_10*%
%TO.N,/PA3*%
X168100000Y-106620000D03*
%TO.P,J2,11,Pin_11_11*%
%TO.N,/FX2_SLOE*%
X165560000Y-109160000D03*
%TO.P,J2,12,Pin_12_12*%
%TO.N,/PA1*%
X168100000Y-109160000D03*
%TO.P,J2,13,Pin_13_13*%
%TO.N,/PA0*%
X165560000Y-111700000D03*
%TO.P,J2,14,Pin_14_14*%
%TO.N,/FX2_FLAGC*%
X168100000Y-111700000D03*
%TO.P,J2,15,Pin_15_15*%
%TO.N,/FX2_FLAGB*%
X165560000Y-114240000D03*
%TO.P,J2,16,Pin_16_16*%
%TO.N,/FX2_FLAGA*%
X168100000Y-114240000D03*
%TO.P,J2,17,Pin_17_17*%
%TO.N,/FX2_FD7*%
X165560000Y-116780000D03*
%TO.P,J2,18,Pin_18_18*%
%TO.N,/FX2_FD6*%
X168100000Y-116780000D03*
%TO.P,J2,19,Pin_19_19*%
%TO.N,/FX2_FD5*%
X165560000Y-119320000D03*
%TO.P,J2,20,Pin_20_20*%
%TO.N,/FX2_FD4*%
X168100000Y-119320000D03*
%TD*%
D12*
%TO.N,/FX2_FD15*%
X127329662Y-90638164D03*
%TO.N,/FX2_FD14*%
X126529740Y-90649494D03*
%TO.N,/FX2_FD13*%
X125730000Y-90670000D03*
%TO.N,/FX2_SLWR*%
X124260000Y-95800000D03*
%TO.N,/FX2_FLAGC*%
X150375827Y-113936555D03*
X112580000Y-99040000D03*
%TO.N,/FX2_FLAGB*%
X151990000Y-113960000D03*
X110928106Y-101619093D03*
%TO.N,/FX2_FLAGA*%
X111420000Y-102250000D03*
X151175631Y-113918762D03*
%TO.N,/FX2_PKTEND*%
X150410000Y-103970000D03*
%TO.N,/FX2_SLOE*%
X149576248Y-113962587D03*
X129130000Y-108660000D03*
%TO.N,/FX2_ADDR1*%
X150910000Y-105270000D03*
%TO.N,/FX2_ADDR0*%
X148780000Y-114040000D03*
%TD*%
%TO.N,/FX2_FD15*%
D13*
X129121372Y-95660000D02*
X127329662Y-93868290D01*
X142350000Y-97850000D02*
X142380000Y-97880000D01*
X142380000Y-97880000D02*
X142940000Y-97320000D01*
X127329662Y-93868290D02*
X127329662Y-90638164D01*
X142940000Y-95490000D02*
X142040000Y-94590000D01*
X142040000Y-94590000D02*
X136140000Y-94590000D01*
X136140000Y-94590000D02*
X135070000Y-95660000D01*
X142940000Y-97320000D02*
X142940000Y-95490000D01*
X135070000Y-95660000D02*
X129121372Y-95660000D01*
X138360000Y-99000000D02*
X139510000Y-97850000D01*
X139510000Y-97850000D02*
X142350000Y-97850000D01*
%TO.N,/FX2_FD7*%
X132099802Y-90290000D02*
X128759802Y-86950000D01*
X161810000Y-118520000D02*
X148347058Y-118520000D01*
X120070000Y-84707276D02*
X122312724Y-86950000D01*
X144109799Y-90290000D02*
X132099802Y-90290000D01*
X122312724Y-86950000D02*
X128759802Y-86950000D01*
X165560000Y-116780000D02*
X163550000Y-116780000D01*
X146890000Y-117062942D02*
X146890000Y-93070202D01*
X117590000Y-74330020D02*
X120070000Y-76810020D01*
X120070000Y-76810020D02*
X120070000Y-84707276D01*
X163550000Y-116780000D02*
X161810000Y-118520000D01*
X146890000Y-93070202D02*
X144109799Y-90290000D01*
X148347058Y-118520000D02*
X146890000Y-117062942D01*
%TO.N,/FX2_FD14*%
X136460000Y-96060000D02*
X128955686Y-96060000D01*
X126529740Y-93634054D02*
X126529740Y-90649494D01*
X140900000Y-96460000D02*
X139750000Y-95310000D01*
X137210000Y-95310000D02*
X136460000Y-96060000D01*
X128955686Y-96060000D02*
X126529740Y-93634054D01*
X139750000Y-95310000D02*
X137210000Y-95310000D01*
%TO.N,/FX2_FD6*%
X143944114Y-90690000D02*
X131934116Y-90690000D01*
X164560000Y-118170000D02*
X163810000Y-118920000D01*
X166710000Y-118170000D02*
X164560000Y-118170000D01*
X119670000Y-78950020D02*
X119670000Y-84872962D01*
X131934116Y-90690000D02*
X128594116Y-87350000D01*
X117590000Y-76870020D02*
X119670000Y-78950020D01*
X146490000Y-117228628D02*
X146490000Y-93235887D01*
X148191372Y-118930000D02*
X146490000Y-117228628D01*
X163810000Y-118920000D02*
X157770000Y-118920000D01*
X119670000Y-84872962D02*
X122147038Y-87350000D01*
X146490000Y-93235887D02*
X143944114Y-90690000D01*
X168100000Y-116780000D02*
X166710000Y-118170000D01*
X157760000Y-118930000D02*
X148191372Y-118930000D01*
X122147038Y-87350000D02*
X128594116Y-87350000D01*
X157770000Y-118920000D02*
X157760000Y-118930000D01*
%TO.N,/FX2_FD13*%
X128790000Y-96460000D02*
X125730000Y-93400000D01*
X125730000Y-93400000D02*
X125730000Y-90670000D01*
X138360000Y-96460000D02*
X128790000Y-96460000D01*
%TO.N,/FX2_FD5*%
X121981352Y-87750000D02*
X128428430Y-87750000D01*
X163800000Y-119330000D02*
X148025686Y-119330000D01*
X143778425Y-91090000D02*
X131768430Y-91090000D01*
X165560000Y-119320000D02*
X163810000Y-119320000D01*
X146090000Y-117394314D02*
X146090000Y-93401572D01*
X148025686Y-119330000D02*
X146090000Y-117394314D01*
X117590000Y-79410020D02*
X119140000Y-80960020D01*
X163810000Y-119320000D02*
X163800000Y-119330000D01*
X119140000Y-84908648D02*
X121981352Y-87750000D01*
X119140000Y-80960020D02*
X119140000Y-84908648D01*
X131768430Y-91090000D02*
X128428430Y-87750000D01*
X146090000Y-93401572D02*
X143778425Y-91090000D01*
%TO.N,/FX2_FD4*%
X145690000Y-93567256D02*
X143612740Y-91490000D01*
X131602744Y-91490000D02*
X128262744Y-88150000D01*
X145690000Y-117560000D02*
X145690000Y-93567256D01*
X168100000Y-119320000D02*
X166150000Y-121270000D01*
X117590000Y-81950020D02*
X118740000Y-83100020D01*
X117590000Y-81950020D02*
X117590000Y-82197256D01*
X149680000Y-121550000D02*
X145690000Y-117560000D01*
X118740000Y-83100020D02*
X118740000Y-85074334D01*
X118740000Y-85074334D02*
X121815666Y-88150000D01*
X143612740Y-91490000D02*
X131602744Y-91490000D01*
X166150000Y-121270000D02*
X166150000Y-121550000D01*
X121815666Y-88150000D02*
X128262744Y-88150000D01*
X166150000Y-121550000D02*
X149680000Y-121550000D01*
%TO.N,/FX2_FD3*%
X140900000Y-116780000D02*
X141257058Y-116780000D01*
X128097057Y-88550000D02*
X121649980Y-88550000D01*
X141257058Y-116780000D02*
X145270000Y-112767058D01*
X145270000Y-93712942D02*
X143447055Y-91890000D01*
X143447055Y-91890000D02*
X131437058Y-91890000D01*
X121649980Y-88550000D02*
X117590000Y-84490020D01*
X131437058Y-91890000D02*
X128097057Y-88550000D01*
X145270000Y-112767058D02*
X145270000Y-93712942D01*
%TO.N,/FX2_FD2*%
X131271372Y-92290000D02*
X127931371Y-88950000D01*
X138360000Y-116780000D02*
X139510000Y-115630000D01*
X119509980Y-88950000D02*
X117590000Y-87030020D01*
X144870000Y-112601372D02*
X144870000Y-93878628D01*
X141841372Y-115630000D02*
X144870000Y-112601372D01*
X144870000Y-93878628D02*
X143281370Y-92290000D01*
X127931371Y-88950000D02*
X119509980Y-88950000D01*
X143281370Y-92290000D02*
X131271372Y-92290000D01*
X139510000Y-115630000D02*
X141841372Y-115630000D01*
%TO.N,/FX2_FD1*%
X117810020Y-89350000D02*
X117590000Y-89570020D01*
X131105686Y-92690000D02*
X127765686Y-89350000D01*
X140900000Y-114240000D02*
X142665686Y-114240000D01*
X143115685Y-92690000D02*
X131105686Y-92690000D01*
X142665686Y-114240000D02*
X144470000Y-112435686D01*
X127765686Y-89350000D02*
X117810020Y-89350000D01*
X144470000Y-94044314D02*
X143115685Y-92690000D01*
X144470000Y-112435686D02*
X144470000Y-94044314D01*
%TO.N,/FX2_FD0*%
X143490000Y-112850000D02*
X144070000Y-112270000D01*
X138360000Y-114240000D02*
X139750000Y-112850000D01*
X139750000Y-112850000D02*
X143490000Y-112850000D01*
X127600000Y-89750000D02*
X119950020Y-89750000D01*
X144070000Y-112270000D02*
X144070000Y-94210000D01*
X119950020Y-89750000D02*
X117590000Y-92110020D01*
X130940000Y-93090000D02*
X127600000Y-89750000D01*
X144070000Y-94210000D02*
X142950000Y-93090000D01*
X142950000Y-93090000D02*
X130940000Y-93090000D01*
%TO.N,/FX2_SLWR*%
X124260000Y-95800000D02*
X124355686Y-95800000D01*
X131255686Y-102700000D02*
X131265686Y-102690000D01*
X139510000Y-102690000D02*
X140900000Y-104080000D01*
X131265686Y-102690000D02*
X139510000Y-102690000D01*
X124355686Y-95800000D02*
X131255686Y-102700000D01*
%TO.N,/FX2_SLRD*%
X119484980Y-96545000D02*
X124535000Y-96545000D01*
X131090000Y-103100000D02*
X133830000Y-103100000D01*
X124535000Y-96545000D02*
X131090000Y-103100000D01*
X137370000Y-103090000D02*
X138360000Y-104080000D01*
X133840000Y-103090000D02*
X137370000Y-103090000D01*
X117590000Y-94650020D02*
X119484980Y-96545000D01*
X133830000Y-103100000D02*
X133840000Y-103090000D01*
%TO.N,/FX2_FLAGC*%
X150375827Y-109275545D02*
X150375827Y-113936555D01*
X157392942Y-106430000D02*
X156726472Y-105763529D01*
X166950000Y-110550000D02*
X165323654Y-110550000D01*
X117590000Y-97190020D02*
X116200000Y-98580020D01*
X116200000Y-98580020D02*
X113039980Y-98580020D01*
X165323654Y-110550000D02*
X161203654Y-106430000D01*
X153887843Y-105763529D02*
X150375827Y-109275545D01*
X156726472Y-105763529D02*
X153887843Y-105763529D01*
X161203654Y-106430000D02*
X157392942Y-106430000D01*
X168100000Y-111700000D02*
X166950000Y-110550000D01*
X113039980Y-98580020D02*
X112580000Y-99040000D01*
%TO.N,/FX2_FLAGB*%
X160872282Y-107230000D02*
X157061570Y-107230000D01*
X162510000Y-108867718D02*
X160872282Y-107230000D01*
X157061570Y-107230000D02*
X156395099Y-106563529D01*
X115050000Y-99730020D02*
X112817179Y-99730020D01*
X156395099Y-106563529D02*
X154219215Y-106563529D01*
X151990000Y-108792744D02*
X151990000Y-113960000D01*
X154219215Y-106563529D02*
X151990000Y-108792744D01*
X165560000Y-114240000D02*
X162510000Y-111190000D01*
X112817179Y-99730020D02*
X110928106Y-101619093D01*
X162510000Y-111190000D02*
X162510000Y-108867718D01*
%TO.N,/FX2_FLAGA*%
X112549980Y-101120020D02*
X116200000Y-101120020D01*
X151175631Y-113918762D02*
X151175631Y-109041427D01*
X151175631Y-109041427D02*
X154053529Y-106163529D01*
X111420000Y-102250000D02*
X112549980Y-101120020D01*
X154053529Y-106163529D02*
X156560785Y-106163529D01*
X161037968Y-106830000D02*
X162910000Y-108702032D01*
X166710000Y-112850000D02*
X168100000Y-114240000D01*
X157227256Y-106830000D02*
X161037968Y-106830000D01*
X162910000Y-108702032D02*
X162910000Y-110676346D01*
X162910000Y-110676346D02*
X165083654Y-112850000D01*
X156560785Y-106163529D02*
X157227256Y-106830000D01*
X165083654Y-112850000D02*
X166710000Y-112850000D01*
X116200000Y-101120020D02*
X117590000Y-99730020D01*
%TO.N,/FX2_PKTEND*%
X158055686Y-104830000D02*
X157195686Y-103970000D01*
X163540000Y-104830000D02*
X158055686Y-104830000D01*
X165560000Y-104080000D02*
X164290000Y-104080000D01*
X164290000Y-104080000D02*
X163540000Y-104830000D01*
X157195686Y-103970000D02*
X150410000Y-103970000D01*
%TO.N,/FX2_SLOE*%
X157558628Y-106030000D02*
X156892158Y-105363529D01*
X162430000Y-106030000D02*
X157558628Y-106030000D01*
X125600020Y-102270020D02*
X117590000Y-102270020D01*
X129130000Y-108660000D02*
X129130000Y-105800000D01*
X165560000Y-109160000D02*
X162430000Y-106030000D01*
X149576248Y-109509438D02*
X149576248Y-113962587D01*
X129130000Y-105800000D02*
X125600020Y-102270020D01*
X153722157Y-105363529D02*
X149576248Y-109509438D01*
X156892158Y-105363529D02*
X153722157Y-105363529D01*
%TO.N,/FX2_ADDR1*%
X168100000Y-104080000D02*
X166950000Y-105230000D01*
X157060000Y-104400000D02*
X151780000Y-104400000D01*
X157890000Y-105230000D02*
X157060000Y-104400000D01*
X166950000Y-105230000D02*
X157890000Y-105230000D01*
X151780000Y-104400000D02*
X150910000Y-105270000D01*
%TO.N,/FX2_ADDR0*%
X157724314Y-105630000D02*
X156967157Y-104872843D01*
X156967157Y-104872843D02*
X153647157Y-104872843D01*
X153647157Y-104872843D02*
X148780000Y-109740000D01*
X165560000Y-106620000D02*
X164570000Y-105630000D01*
X164570000Y-105630000D02*
X157724314Y-105630000D01*
X148780000Y-109740000D02*
X148780000Y-114040000D01*
%TO.N,/FX2_IFCLK*%
X128600000Y-110550000D02*
X124179980Y-114970020D01*
X124179980Y-114970020D02*
X117590000Y-114970020D01*
X140900000Y-109160000D02*
X139510000Y-110550000D01*
X139510000Y-110550000D02*
X128600000Y-110550000D01*
%TD*%
%TA.AperFunction,Conductor*%
%TO.N,/GND*%
G36*
X119126499Y-97031430D02*
G01*
X119245623Y-97100205D01*
X119253196Y-97104577D01*
X119364999Y-97134534D01*
X119405922Y-97145500D01*
X119405923Y-97145500D01*
X124234903Y-97145500D01*
X124301942Y-97165185D01*
X124322584Y-97181819D01*
X130605139Y-103464374D01*
X130605149Y-103464385D01*
X130609479Y-103468715D01*
X130609480Y-103468716D01*
X130721284Y-103580520D01*
X130721286Y-103580521D01*
X130721290Y-103580524D01*
X130790562Y-103620518D01*
X130790566Y-103620519D01*
X130790567Y-103620520D01*
X130858213Y-103659576D01*
X130858214Y-103659576D01*
X130858215Y-103659577D01*
X131010943Y-103700501D01*
X131010946Y-103700501D01*
X131176653Y-103700501D01*
X131176669Y-103700500D01*
X133750939Y-103700500D01*
X133750943Y-103700501D01*
X133909057Y-103700501D01*
X133943611Y-103691241D01*
X133957059Y-103690629D01*
X133958691Y-103691028D01*
X133962706Y-103690500D01*
X136909172Y-103690500D01*
X136976211Y-103710185D01*
X137021966Y-103762989D01*
X137031910Y-103832147D01*
X137031651Y-103833852D01*
X137009500Y-103973713D01*
X137009500Y-104186287D01*
X137016344Y-104229500D01*
X137035300Y-104349185D01*
X137042754Y-104396243D01*
X137070063Y-104480292D01*
X137108444Y-104598414D01*
X137204951Y-104787820D01*
X137329890Y-104959786D01*
X137480213Y-105110109D01*
X137652179Y-105235048D01*
X137652181Y-105235049D01*
X137652184Y-105235051D01*
X137841588Y-105331557D01*
X138043757Y-105397246D01*
X138253713Y-105430500D01*
X138253714Y-105430500D01*
X138466286Y-105430500D01*
X138466287Y-105430500D01*
X138676243Y-105397246D01*
X138878412Y-105331557D01*
X139067816Y-105235051D01*
X139128237Y-105191153D01*
X139239786Y-105110109D01*
X139239788Y-105110106D01*
X139239792Y-105110104D01*
X139390104Y-104959792D01*
X139390106Y-104959788D01*
X139390109Y-104959786D01*
X139515048Y-104787820D01*
X139515047Y-104787820D01*
X139515051Y-104787816D01*
X139519514Y-104779054D01*
X139567488Y-104728259D01*
X139635308Y-104711463D01*
X139701444Y-104733999D01*
X139740486Y-104779056D01*
X139744951Y-104787820D01*
X139869890Y-104959786D01*
X140020213Y-105110109D01*
X140192182Y-105235050D01*
X140200946Y-105239516D01*
X140251742Y-105287491D01*
X140268536Y-105355312D01*
X140245998Y-105421447D01*
X140200946Y-105460484D01*
X140192182Y-105464949D01*
X140020213Y-105589890D01*
X139869890Y-105740213D01*
X139744951Y-105912179D01*
X139648444Y-106101585D01*
X139582753Y-106303760D01*
X139549500Y-106513713D01*
X139549500Y-106726287D01*
X139582754Y-106936243D01*
X139610321Y-107021086D01*
X139648444Y-107138414D01*
X139744951Y-107327820D01*
X139869890Y-107499786D01*
X140020213Y-107650109D01*
X140192182Y-107775050D01*
X140200946Y-107779516D01*
X140251742Y-107827491D01*
X140268536Y-107895312D01*
X140245998Y-107961447D01*
X140200946Y-108000484D01*
X140192182Y-108004949D01*
X140020213Y-108129890D01*
X139869890Y-108280213D01*
X139744951Y-108452179D01*
X139648444Y-108641585D01*
X139582753Y-108843760D01*
X139549500Y-109053713D01*
X139549500Y-109266286D01*
X139582754Y-109476244D01*
X139582754Y-109476247D01*
X139596491Y-109518523D01*
X139598486Y-109588364D01*
X139566241Y-109644522D01*
X139297582Y-109913182D01*
X139236262Y-109946666D01*
X139209903Y-109949500D01*
X128679057Y-109949500D01*
X128520942Y-109949500D01*
X128368215Y-109990423D01*
X128368214Y-109990423D01*
X128368212Y-109990424D01*
X128368209Y-109990425D01*
X128318096Y-110019359D01*
X128318095Y-110019360D01*
X128274689Y-110044420D01*
X128231285Y-110069479D01*
X128231282Y-110069481D01*
X128119480Y-110181284D01*
X128119478Y-110181286D01*
X126027922Y-112272843D01*
X123967564Y-114333201D01*
X123906241Y-114366686D01*
X123879883Y-114369520D01*
X118875719Y-114369520D01*
X118808680Y-114349835D01*
X118765235Y-114301815D01*
X118745052Y-114262205D01*
X118745051Y-114262204D01*
X118620109Y-114090233D01*
X118469786Y-113939910D01*
X118297820Y-113814971D01*
X118297115Y-113814611D01*
X118289054Y-113810505D01*
X118238259Y-113762532D01*
X118221463Y-113694712D01*
X118243999Y-113628576D01*
X118289054Y-113589535D01*
X118297816Y-113585071D01*
X118319789Y-113569106D01*
X118469786Y-113460129D01*
X118469788Y-113460126D01*
X118469792Y-113460124D01*
X118620104Y-113309812D01*
X118620106Y-113309808D01*
X118620109Y-113309806D01*
X118745048Y-113137840D01*
X118745047Y-113137840D01*
X118745051Y-113137836D01*
X118841557Y-112948432D01*
X118907246Y-112746263D01*
X118940500Y-112536307D01*
X118940500Y-112323733D01*
X118907246Y-112113777D01*
X118841557Y-111911608D01*
X118745051Y-111722204D01*
X118745049Y-111722201D01*
X118745048Y-111722199D01*
X118620109Y-111550233D01*
X118469786Y-111399910D01*
X118297820Y-111274971D01*
X118297115Y-111274611D01*
X118289054Y-111270505D01*
X118238259Y-111222532D01*
X118221463Y-111154712D01*
X118243999Y-111088576D01*
X118289054Y-111049535D01*
X118297816Y-111045071D01*
X118319789Y-111029106D01*
X118469786Y-110920129D01*
X118469788Y-110920126D01*
X118469792Y-110920124D01*
X118620104Y-110769812D01*
X118620106Y-110769808D01*
X118620109Y-110769806D01*
X118745048Y-110597840D01*
X118745047Y-110597840D01*
X118745051Y-110597836D01*
X118841557Y-110408432D01*
X118907246Y-110206263D01*
X118940500Y-109996307D01*
X118940500Y-109783733D01*
X118907246Y-109573777D01*
X118841557Y-109371608D01*
X118745051Y-109182204D01*
X118745049Y-109182201D01*
X118745048Y-109182199D01*
X118620109Y-109010233D01*
X118469786Y-108859910D01*
X118297820Y-108734971D01*
X118297115Y-108734611D01*
X118289054Y-108730505D01*
X118238259Y-108682532D01*
X118221463Y-108614712D01*
X118243999Y-108548576D01*
X118289054Y-108509535D01*
X118297816Y-108505071D01*
X118319789Y-108489106D01*
X118469786Y-108380129D01*
X118469788Y-108380126D01*
X118469792Y-108380124D01*
X118620104Y-108229812D01*
X118620106Y-108229808D01*
X118620109Y-108229806D01*
X118745048Y-108057840D01*
X118745047Y-108057840D01*
X118745051Y-108057836D01*
X118841557Y-107868432D01*
X118907246Y-107666263D01*
X118940500Y-107456307D01*
X118940500Y-107243733D01*
X118907246Y-107033777D01*
X118841557Y-106831608D01*
X118745051Y-106642204D01*
X118745049Y-106642201D01*
X118745048Y-106642199D01*
X118620109Y-106470233D01*
X118469786Y-106319910D01*
X118297820Y-106194971D01*
X118297115Y-106194611D01*
X118289054Y-106190505D01*
X118238259Y-106142532D01*
X118221463Y-106074712D01*
X118243999Y-106008576D01*
X118289054Y-105969535D01*
X118297816Y-105965071D01*
X118319789Y-105949106D01*
X118469786Y-105840129D01*
X118469788Y-105840126D01*
X118469792Y-105840124D01*
X118620104Y-105689812D01*
X118620106Y-105689808D01*
X118620109Y-105689806D01*
X118745048Y-105517840D01*
X118745047Y-105517840D01*
X118745051Y-105517836D01*
X118841557Y-105328432D01*
X118907246Y-105126263D01*
X118940500Y-104916307D01*
X118940500Y-104703733D01*
X118907246Y-104493777D01*
X118841557Y-104291608D01*
X118745051Y-104102204D01*
X118745049Y-104102201D01*
X118745048Y-104102199D01*
X118620109Y-103930233D01*
X118469786Y-103779910D01*
X118297820Y-103654971D01*
X118297115Y-103654611D01*
X118289054Y-103650505D01*
X118238259Y-103602532D01*
X118221463Y-103534712D01*
X118243999Y-103468576D01*
X118289054Y-103429535D01*
X118297816Y-103425071D01*
X118319789Y-103409106D01*
X118469786Y-103300129D01*
X118469788Y-103300126D01*
X118469792Y-103300124D01*
X118620104Y-103149812D01*
X118620106Y-103149808D01*
X118620109Y-103149806D01*
X118692258Y-103050500D01*
X118745051Y-102977836D01*
X118745349Y-102977250D01*
X118765235Y-102938225D01*
X118813209Y-102887429D01*
X118875719Y-102870520D01*
X125299923Y-102870520D01*
X125366962Y-102890205D01*
X125387604Y-102906839D01*
X128493181Y-106012416D01*
X128526666Y-106073739D01*
X128529500Y-106100097D01*
X128529500Y-108080234D01*
X128509815Y-108147273D01*
X128508602Y-108149125D01*
X128420609Y-108280814D01*
X128420602Y-108280827D01*
X128360264Y-108426498D01*
X128360261Y-108426510D01*
X128329500Y-108581153D01*
X128329500Y-108738846D01*
X128360261Y-108893489D01*
X128360264Y-108893501D01*
X128420602Y-109039172D01*
X128420609Y-109039185D01*
X128508210Y-109170288D01*
X128508213Y-109170292D01*
X128619707Y-109281786D01*
X128619711Y-109281789D01*
X128750814Y-109369390D01*
X128750827Y-109369397D01*
X128893200Y-109428369D01*
X128896503Y-109429737D01*
X129051153Y-109460499D01*
X129051156Y-109460500D01*
X129051158Y-109460500D01*
X129208844Y-109460500D01*
X129208845Y-109460499D01*
X129363497Y-109429737D01*
X129509179Y-109369394D01*
X129640289Y-109281789D01*
X129751789Y-109170289D01*
X129839394Y-109039179D01*
X129899737Y-108893497D01*
X129930500Y-108738842D01*
X129930500Y-108581158D01*
X129930500Y-108581155D01*
X129930499Y-108581153D01*
X129916253Y-108509534D01*
X129899737Y-108426503D01*
X129899735Y-108426498D01*
X129839397Y-108280827D01*
X129839390Y-108280814D01*
X129751398Y-108149125D01*
X129730520Y-108082447D01*
X129730500Y-108080234D01*
X129730500Y-105889060D01*
X129730501Y-105889047D01*
X129730501Y-105720944D01*
X129722159Y-105689812D01*
X129689577Y-105568216D01*
X129660493Y-105517840D01*
X129610524Y-105431290D01*
X129610518Y-105431282D01*
X126087610Y-101908375D01*
X126087608Y-101908372D01*
X125968737Y-101789501D01*
X125968729Y-101789495D01*
X125849261Y-101720521D01*
X125849258Y-101720520D01*
X125831805Y-101710443D01*
X125679077Y-101669519D01*
X125520963Y-101669519D01*
X125513367Y-101669519D01*
X125513351Y-101669520D01*
X118875719Y-101669520D01*
X118808680Y-101649835D01*
X118765235Y-101601815D01*
X118745052Y-101562205D01*
X118745051Y-101562204D01*
X118620109Y-101390233D01*
X118469786Y-101239910D01*
X118297820Y-101114971D01*
X118297115Y-101114611D01*
X118289054Y-101110505D01*
X118238259Y-101062532D01*
X118221463Y-100994712D01*
X118243999Y-100928576D01*
X118289054Y-100889535D01*
X118297816Y-100885071D01*
X118319789Y-100869106D01*
X118469786Y-100760129D01*
X118469788Y-100760126D01*
X118469792Y-100760124D01*
X118620104Y-100609812D01*
X118620106Y-100609808D01*
X118620109Y-100609806D01*
X118745048Y-100437840D01*
X118745047Y-100437840D01*
X118745051Y-100437836D01*
X118841557Y-100248432D01*
X118907246Y-100046263D01*
X118940500Y-99836307D01*
X118940500Y-99623733D01*
X118907246Y-99413777D01*
X118841557Y-99211608D01*
X118745051Y-99022204D01*
X118745049Y-99022201D01*
X118745048Y-99022199D01*
X118620109Y-98850233D01*
X118469786Y-98699910D01*
X118297820Y-98574971D01*
X118297115Y-98574611D01*
X118289054Y-98570505D01*
X118238259Y-98522532D01*
X118221463Y-98454712D01*
X118243999Y-98388576D01*
X118289054Y-98349535D01*
X118297816Y-98345071D01*
X118319789Y-98329106D01*
X118469786Y-98220129D01*
X118469788Y-98220126D01*
X118469792Y-98220124D01*
X118620104Y-98069812D01*
X118620106Y-98069808D01*
X118620109Y-98069806D01*
X118745048Y-97897840D01*
X118745047Y-97897840D01*
X118745051Y-97897836D01*
X118841557Y-97708432D01*
X118907246Y-97506263D01*
X118940500Y-97296307D01*
X118940500Y-97138817D01*
X118960185Y-97071778D01*
X119012989Y-97026023D01*
X119082147Y-97016079D01*
X119126499Y-97031430D01*
G37*
%TD.AperFunction*%
%TA.AperFunction,Conductor*%
G36*
X143388834Y-97822915D02*
G01*
X143444767Y-97864787D01*
X143469184Y-97930251D01*
X143469500Y-97939097D01*
X143469500Y-111969903D01*
X143460855Y-111999343D01*
X143454332Y-112029330D01*
X143450577Y-112034345D01*
X143449815Y-112036942D01*
X143433181Y-112057584D01*
X143277584Y-112213181D01*
X143216261Y-112246666D01*
X143189903Y-112249500D01*
X142312127Y-112249500D01*
X142245088Y-112229815D01*
X142199333Y-112177011D01*
X142189389Y-112107853D01*
X142194196Y-112087182D01*
X142203813Y-112057584D01*
X142217246Y-112016243D01*
X142250500Y-111806287D01*
X142250500Y-111593713D01*
X142217246Y-111383757D01*
X142151557Y-111181588D01*
X142055051Y-110992184D01*
X142055049Y-110992181D01*
X142055048Y-110992179D01*
X141930109Y-110820213D01*
X141779786Y-110669890D01*
X141607820Y-110544951D01*
X141605991Y-110544019D01*
X141599054Y-110540485D01*
X141548259Y-110492512D01*
X141531463Y-110424692D01*
X141553999Y-110358556D01*
X141599054Y-110319515D01*
X141607816Y-110315051D01*
X141629789Y-110299086D01*
X141779786Y-110190109D01*
X141779788Y-110190106D01*
X141779792Y-110190104D01*
X141930104Y-110039792D01*
X141930106Y-110039788D01*
X141930109Y-110039786D01*
X142055048Y-109867820D01*
X142055047Y-109867820D01*
X142055051Y-109867816D01*
X142151557Y-109678412D01*
X142217246Y-109476243D01*
X142250500Y-109266287D01*
X142250500Y-109053713D01*
X142217246Y-108843757D01*
X142151557Y-108641588D01*
X142055051Y-108452184D01*
X142055049Y-108452181D01*
X142055048Y-108452179D01*
X141930109Y-108280213D01*
X141779786Y-108129890D01*
X141607820Y-108004951D01*
X141605991Y-108004019D01*
X141599054Y-108000485D01*
X141548259Y-107952512D01*
X141531463Y-107884692D01*
X141553999Y-107818556D01*
X141599054Y-107779515D01*
X141607816Y-107775051D01*
X141629789Y-107759086D01*
X141779786Y-107650109D01*
X141779788Y-107650106D01*
X141779792Y-107650104D01*
X141930104Y-107499792D01*
X141930106Y-107499788D01*
X141930109Y-107499786D01*
X142055048Y-107327820D01*
X142055047Y-107327820D01*
X142055051Y-107327816D01*
X142151557Y-107138412D01*
X142217246Y-106936243D01*
X142250500Y-106726287D01*
X142250500Y-106513713D01*
X142217246Y-106303757D01*
X142151557Y-106101588D01*
X142055051Y-105912184D01*
X142055049Y-105912181D01*
X142055048Y-105912179D01*
X141930109Y-105740213D01*
X141779786Y-105589890D01*
X141607820Y-105464951D01*
X141607115Y-105464591D01*
X141599054Y-105460485D01*
X141548259Y-105412512D01*
X141531463Y-105344692D01*
X141553999Y-105278556D01*
X141599054Y-105239515D01*
X141607816Y-105235051D01*
X141668237Y-105191153D01*
X141779786Y-105110109D01*
X141779788Y-105110106D01*
X141779792Y-105110104D01*
X141930104Y-104959792D01*
X141930106Y-104959788D01*
X141930109Y-104959786D01*
X142055048Y-104787820D01*
X142055047Y-104787820D01*
X142055051Y-104787816D01*
X142151557Y-104598412D01*
X142217246Y-104396243D01*
X142250500Y-104186287D01*
X142250500Y-103973713D01*
X142217246Y-103763757D01*
X142151557Y-103561588D01*
X142055051Y-103372184D01*
X142055049Y-103372181D01*
X142055048Y-103372179D01*
X141930109Y-103200213D01*
X141779786Y-103049890D01*
X141607820Y-102924951D01*
X141418414Y-102828444D01*
X141418413Y-102828443D01*
X141418412Y-102828443D01*
X141216243Y-102762754D01*
X141216241Y-102762753D01*
X141216240Y-102762753D01*
X141054957Y-102737208D01*
X141006287Y-102729500D01*
X140793713Y-102729500D01*
X140765006Y-102734046D01*
X140583757Y-102762753D01*
X140541473Y-102776492D01*
X140471632Y-102778486D01*
X140415476Y-102746241D01*
X139997590Y-102328355D01*
X139997588Y-102328352D01*
X139878717Y-102209481D01*
X139878716Y-102209480D01*
X139791904Y-102159360D01*
X139741785Y-102130423D01*
X139715673Y-102123426D01*
X139705391Y-102118522D01*
X139687511Y-102102500D01*
X139667017Y-102090008D01*
X139661966Y-102079610D01*
X139653356Y-102071895D01*
X139646976Y-102048751D01*
X139636489Y-102027161D01*
X139637448Y-102014184D01*
X139634789Y-102004537D01*
X139639209Y-101990360D01*
X139640840Y-101968286D01*
X139677246Y-101856243D01*
X139710500Y-101646287D01*
X139710500Y-101433713D01*
X139677246Y-101223757D01*
X139611557Y-101021588D01*
X139515051Y-100832184D01*
X139515049Y-100832181D01*
X139515048Y-100832179D01*
X139390109Y-100660213D01*
X139239786Y-100509890D01*
X139067820Y-100384951D01*
X139067115Y-100384591D01*
X139059054Y-100380485D01*
X139008259Y-100332512D01*
X138991463Y-100264692D01*
X139013999Y-100198556D01*
X139059054Y-100159515D01*
X139067816Y-100155051D01*
X139089789Y-100139086D01*
X139239786Y-100030109D01*
X139239788Y-100030106D01*
X139239792Y-100030104D01*
X139390104Y-99879792D01*
X139390106Y-99879788D01*
X139390109Y-99879786D01*
X139515048Y-99707820D01*
X139515047Y-99707820D01*
X139515051Y-99707816D01*
X139611557Y-99518412D01*
X139677246Y-99316243D01*
X139710500Y-99106287D01*
X139710500Y-98893713D01*
X139677246Y-98683757D01*
X139663507Y-98641476D01*
X139663072Y-98626262D01*
X139657754Y-98612000D01*
X139662094Y-98592049D01*
X139661511Y-98571637D01*
X139669601Y-98557547D01*
X139672608Y-98543727D01*
X139693757Y-98515477D01*
X139710861Y-98498373D01*
X139722420Y-98486816D01*
X139783744Y-98453333D01*
X139810098Y-98450500D01*
X142172654Y-98450500D01*
X142204747Y-98454724D01*
X142300943Y-98480501D01*
X142300945Y-98480501D01*
X142459054Y-98480501D01*
X142459057Y-98480501D01*
X142611785Y-98439577D01*
X142748716Y-98360519D01*
X143257820Y-97851415D01*
X143319142Y-97817931D01*
X143388834Y-97822915D01*
G37*
%TD.AperFunction*%
%TA.AperFunction,Conductor*%
G36*
X131616922Y-58341280D02*
G01*
X131633878Y-58343190D01*
X131707268Y-58351458D01*
X131734333Y-58357636D01*
X131813539Y-58385351D01*
X131838549Y-58397395D01*
X131909606Y-58442043D01*
X131931313Y-58459355D01*
X131990644Y-58518686D01*
X132007957Y-58540395D01*
X132052602Y-58611447D01*
X132064649Y-58636464D01*
X132092362Y-58715662D01*
X132098541Y-58742734D01*
X132108720Y-58833076D01*
X132109500Y-58846959D01*
X132109500Y-86557317D01*
X132140045Y-86769767D01*
X132140046Y-86769771D01*
X132200511Y-86975701D01*
X132200516Y-86975713D01*
X132289671Y-87170938D01*
X132289680Y-87170954D01*
X132405718Y-87351512D01*
X132546275Y-87513724D01*
X132708487Y-87654281D01*
X132889045Y-87770319D01*
X132889061Y-87770328D01*
X133054865Y-87846047D01*
X133084290Y-87859485D01*
X133084292Y-87859485D01*
X133084298Y-87859488D01*
X133255670Y-87909806D01*
X133290231Y-87919954D01*
X133502682Y-87950500D01*
X133544108Y-87950500D01*
X172174108Y-87950500D01*
X172233040Y-87950500D01*
X172246922Y-87951280D01*
X172263878Y-87953190D01*
X172337268Y-87961458D01*
X172364333Y-87967636D01*
X172443539Y-87995351D01*
X172468549Y-88007395D01*
X172539606Y-88052043D01*
X172561313Y-88069355D01*
X172620644Y-88128686D01*
X172637957Y-88150395D01*
X172682602Y-88221447D01*
X172694649Y-88246464D01*
X172722362Y-88325662D01*
X172728541Y-88352734D01*
X172738720Y-88443076D01*
X172739500Y-88456959D01*
X172739500Y-124833040D01*
X172738720Y-124846923D01*
X172728541Y-124937265D01*
X172722362Y-124964337D01*
X172694649Y-125043535D01*
X172682602Y-125068552D01*
X172637957Y-125139604D01*
X172620644Y-125161313D01*
X172561313Y-125220644D01*
X172539604Y-125237957D01*
X172468552Y-125282602D01*
X172443535Y-125294649D01*
X172364337Y-125322362D01*
X172337265Y-125328541D01*
X172246923Y-125338720D01*
X172233040Y-125339500D01*
X110246960Y-125339500D01*
X110233077Y-125338720D01*
X110142734Y-125328541D01*
X110115662Y-125322362D01*
X110036464Y-125294649D01*
X110011447Y-125282602D01*
X109940395Y-125237957D01*
X109918686Y-125220644D01*
X109859355Y-125161313D01*
X109842042Y-125139604D01*
X109797397Y-125068552D01*
X109785351Y-125043539D01*
X109757636Y-124964333D01*
X109751458Y-124937268D01*
X109741280Y-124846922D01*
X109740500Y-124833040D01*
X109740500Y-101540246D01*
X110127606Y-101540246D01*
X110127606Y-101697939D01*
X110158367Y-101852582D01*
X110158370Y-101852594D01*
X110218708Y-101998265D01*
X110218715Y-101998278D01*
X110306316Y-102129381D01*
X110306319Y-102129385D01*
X110417816Y-102240882D01*
X110428194Y-102247816D01*
X110548927Y-102328487D01*
X110564523Y-102334947D01*
X110618926Y-102378785D01*
X110638689Y-102425315D01*
X110650261Y-102483492D01*
X110650264Y-102483501D01*
X110710602Y-102629172D01*
X110710609Y-102629185D01*
X110798210Y-102760288D01*
X110798213Y-102760292D01*
X110909707Y-102871786D01*
X110909711Y-102871789D01*
X111040814Y-102959390D01*
X111040827Y-102959397D01*
X111186498Y-103019735D01*
X111186503Y-103019737D01*
X111338091Y-103049890D01*
X111341153Y-103050499D01*
X111341156Y-103050500D01*
X111341158Y-103050500D01*
X111498844Y-103050500D01*
X111498845Y-103050499D01*
X111653497Y-103019737D01*
X111799179Y-102959394D01*
X111930289Y-102871789D01*
X112041789Y-102760289D01*
X112129394Y-102629179D01*
X112189737Y-102483497D01*
X112211059Y-102376306D01*
X112220638Y-102328150D01*
X112253023Y-102266239D01*
X112254518Y-102264716D01*
X112762396Y-101756839D01*
X112823719Y-101723354D01*
X112850077Y-101720520D01*
X113637873Y-101720520D01*
X113704912Y-101740205D01*
X113750667Y-101793009D01*
X113760611Y-101862167D01*
X113755804Y-101882838D01*
X113732753Y-101953780D01*
X113724714Y-102004537D01*
X113699500Y-102163733D01*
X113699500Y-102376307D01*
X113706386Y-102419786D01*
X113730194Y-102570104D01*
X113732754Y-102586263D01*
X113795211Y-102778486D01*
X113798444Y-102788434D01*
X113894951Y-102977840D01*
X114019890Y-103149806D01*
X114170213Y-103300129D01*
X114342179Y-103425068D01*
X114342181Y-103425069D01*
X114342184Y-103425071D01*
X114531588Y-103521577D01*
X114733757Y-103587266D01*
X114943713Y-103620520D01*
X114943714Y-103620520D01*
X115156286Y-103620520D01*
X115156287Y-103620520D01*
X115366243Y-103587266D01*
X115568412Y-103521577D01*
X115757816Y-103425071D01*
X115779789Y-103409106D01*
X115929786Y-103300129D01*
X115929788Y-103300126D01*
X115929792Y-103300124D01*
X116080104Y-103149812D01*
X116080106Y-103149808D01*
X116080109Y-103149806D01*
X116205048Y-102977840D01*
X116205047Y-102977840D01*
X116205051Y-102977836D01*
X116209514Y-102969074D01*
X116257488Y-102918279D01*
X116325308Y-102901483D01*
X116391444Y-102924019D01*
X116430486Y-102969076D01*
X116434951Y-102977840D01*
X116559890Y-103149806D01*
X116710213Y-103300129D01*
X116882182Y-103425070D01*
X116890946Y-103429536D01*
X116941742Y-103477511D01*
X116958536Y-103545332D01*
X116935998Y-103611467D01*
X116890946Y-103650504D01*
X116882182Y-103654969D01*
X116710213Y-103779910D01*
X116559890Y-103930233D01*
X116434951Y-104102199D01*
X116338444Y-104291605D01*
X116272753Y-104493780D01*
X116239500Y-104703733D01*
X116239500Y-104916306D01*
X116270194Y-105110104D01*
X116272754Y-105126263D01*
X116335292Y-105318735D01*
X116338444Y-105328434D01*
X116434951Y-105517840D01*
X116559890Y-105689806D01*
X116710213Y-105840129D01*
X116882182Y-105965070D01*
X116890946Y-105969536D01*
X116941742Y-106017511D01*
X116958536Y-106085332D01*
X116935998Y-106151467D01*
X116890946Y-106190504D01*
X116882182Y-106194969D01*
X116710213Y-106319910D01*
X116559890Y-106470233D01*
X116434949Y-106642202D01*
X116430484Y-106650966D01*
X116382509Y-106701762D01*
X116314688Y-106718556D01*
X116248553Y-106696018D01*
X116209516Y-106650966D01*
X116205050Y-106642202D01*
X116080109Y-106470233D01*
X115929786Y-106319910D01*
X115757820Y-106194971D01*
X115568414Y-106098464D01*
X115568413Y-106098463D01*
X115568412Y-106098463D01*
X115366243Y-106032774D01*
X115366241Y-106032773D01*
X115366240Y-106032773D01*
X115204957Y-106007228D01*
X115156287Y-105999520D01*
X114943713Y-105999520D01*
X114895042Y-106007228D01*
X114733760Y-106032773D01*
X114531585Y-106098464D01*
X114342179Y-106194971D01*
X114170213Y-106319910D01*
X114019890Y-106470233D01*
X113894951Y-106642199D01*
X113798444Y-106831605D01*
X113732753Y-107033780D01*
X113699500Y-107243733D01*
X113699500Y-107456306D01*
X113730194Y-107650104D01*
X113732754Y-107666263D01*
X113792514Y-107850185D01*
X113798444Y-107868434D01*
X113894951Y-108057840D01*
X114019890Y-108229806D01*
X114170213Y-108380129D01*
X114342182Y-108505070D01*
X114350946Y-108509536D01*
X114401742Y-108557511D01*
X114418536Y-108625332D01*
X114395998Y-108691467D01*
X114350946Y-108730504D01*
X114342182Y-108734969D01*
X114170213Y-108859910D01*
X114019890Y-109010233D01*
X113894951Y-109182199D01*
X113798444Y-109371605D01*
X113732753Y-109573780D01*
X113701256Y-109772649D01*
X113699500Y-109783733D01*
X113699500Y-109996307D01*
X113706386Y-110039786D01*
X113730194Y-110190104D01*
X113732754Y-110206263D01*
X113796550Y-110402607D01*
X113798444Y-110408434D01*
X113894951Y-110597840D01*
X114019890Y-110769806D01*
X114170213Y-110920129D01*
X114342182Y-111045070D01*
X114350946Y-111049536D01*
X114401742Y-111097511D01*
X114418536Y-111165332D01*
X114395998Y-111231467D01*
X114350946Y-111270504D01*
X114342182Y-111274969D01*
X114170213Y-111399910D01*
X114019890Y-111550233D01*
X113894951Y-111722199D01*
X113798444Y-111911605D01*
X113732753Y-112113780D01*
X113699500Y-112323733D01*
X113699500Y-112536306D01*
X113730194Y-112730104D01*
X113732754Y-112746263D01*
X113785140Y-112907491D01*
X113798444Y-112948434D01*
X113894951Y-113137840D01*
X114019890Y-113309806D01*
X114170213Y-113460129D01*
X114342182Y-113585070D01*
X114350946Y-113589536D01*
X114401742Y-113637511D01*
X114418536Y-113705332D01*
X114395998Y-113771467D01*
X114350946Y-113810504D01*
X114342182Y-113814969D01*
X114170213Y-113939910D01*
X114019890Y-114090233D01*
X113894951Y-114262199D01*
X113798444Y-114451605D01*
X113732753Y-114653780D01*
X113699500Y-114863733D01*
X113699500Y-115076306D01*
X113730194Y-115270104D01*
X113732754Y-115286263D01*
X113786130Y-115450538D01*
X113798444Y-115488434D01*
X113894951Y-115677840D01*
X114019890Y-115849806D01*
X114170213Y-116000129D01*
X114342182Y-116125070D01*
X114350946Y-116129536D01*
X114401742Y-116177511D01*
X114418536Y-116245332D01*
X114395998Y-116311467D01*
X114350946Y-116350504D01*
X114342182Y-116354969D01*
X114170213Y-116479910D01*
X114019890Y-116630233D01*
X113894951Y-116802199D01*
X113798444Y-116991605D01*
X113732753Y-117193780D01*
X113699500Y-117403733D01*
X113699500Y-117616306D01*
X113730194Y-117810104D01*
X113732754Y-117826263D01*
X113785140Y-117987491D01*
X113798444Y-118028434D01*
X113894951Y-118217840D01*
X114019890Y-118389806D01*
X114170213Y-118540129D01*
X114342179Y-118665068D01*
X114342181Y-118665069D01*
X114342184Y-118665071D01*
X114531588Y-118761577D01*
X114733757Y-118827266D01*
X114943713Y-118860520D01*
X114943714Y-118860520D01*
X115156286Y-118860520D01*
X115156287Y-118860520D01*
X115366243Y-118827266D01*
X115568412Y-118761577D01*
X115757816Y-118665071D01*
X115779789Y-118649106D01*
X115929786Y-118540129D01*
X115929788Y-118540126D01*
X115929792Y-118540124D01*
X116080104Y-118389812D01*
X116080106Y-118389808D01*
X116080109Y-118389806D01*
X116205048Y-118217840D01*
X116205047Y-118217840D01*
X116205051Y-118217836D01*
X116209514Y-118209074D01*
X116257488Y-118158279D01*
X116325308Y-118141483D01*
X116391444Y-118164019D01*
X116430486Y-118209076D01*
X116434951Y-118217840D01*
X116559890Y-118389806D01*
X116710213Y-118540129D01*
X116882179Y-118665068D01*
X116882181Y-118665069D01*
X116882184Y-118665071D01*
X117071588Y-118761577D01*
X117273757Y-118827266D01*
X117483713Y-118860520D01*
X117483714Y-118860520D01*
X117696286Y-118860520D01*
X117696287Y-118860520D01*
X117906243Y-118827266D01*
X118108412Y-118761577D01*
X118297816Y-118665071D01*
X118319789Y-118649106D01*
X118469786Y-118540129D01*
X118469788Y-118540126D01*
X118469792Y-118540124D01*
X118620104Y-118389812D01*
X118620106Y-118389808D01*
X118620109Y-118389806D01*
X118745048Y-118217840D01*
X118745047Y-118217840D01*
X118745051Y-118217836D01*
X118841557Y-118028432D01*
X118907246Y-117826263D01*
X118940500Y-117616307D01*
X118940500Y-117403733D01*
X118907246Y-117193777D01*
X118841557Y-116991608D01*
X118745051Y-116802204D01*
X118745049Y-116802201D01*
X118745048Y-116802199D01*
X118620109Y-116630233D01*
X118469786Y-116479910D01*
X118297820Y-116354971D01*
X118297115Y-116354611D01*
X118289054Y-116350505D01*
X118238259Y-116302532D01*
X118221463Y-116234712D01*
X118243999Y-116168576D01*
X118289054Y-116129535D01*
X118297816Y-116125071D01*
X118319789Y-116109106D01*
X118469786Y-116000129D01*
X118469788Y-116000126D01*
X118469792Y-116000124D01*
X118620104Y-115849812D01*
X118620106Y-115849808D01*
X118620109Y-115849806D01*
X118692701Y-115749890D01*
X118745051Y-115677836D01*
X118745349Y-115677250D01*
X118765235Y-115638225D01*
X118813209Y-115587429D01*
X118875719Y-115570520D01*
X124093311Y-115570520D01*
X124093327Y-115570521D01*
X124100923Y-115570521D01*
X124259034Y-115570521D01*
X124259037Y-115570521D01*
X124411765Y-115529597D01*
X124477652Y-115491557D01*
X124548696Y-115450540D01*
X124660500Y-115338736D01*
X124660500Y-115338734D01*
X124670704Y-115328531D01*
X124670707Y-115328526D01*
X128812416Y-111186819D01*
X128873739Y-111153334D01*
X128900097Y-111150500D01*
X136947873Y-111150500D01*
X137014912Y-111170185D01*
X137060667Y-111222989D01*
X137070611Y-111292147D01*
X137065804Y-111312818D01*
X137042753Y-111383760D01*
X137015044Y-111558712D01*
X137009500Y-111593713D01*
X137009500Y-111806287D01*
X137042754Y-112016243D01*
X137106743Y-112213181D01*
X137108444Y-112218414D01*
X137204951Y-112407820D01*
X137329890Y-112579786D01*
X137480213Y-112730109D01*
X137652182Y-112855050D01*
X137660946Y-112859516D01*
X137711742Y-112907491D01*
X137728536Y-112975312D01*
X137705998Y-113041447D01*
X137660946Y-113080484D01*
X137652182Y-113084949D01*
X137480213Y-113209890D01*
X137329890Y-113360213D01*
X137204951Y-113532179D01*
X137108444Y-113721585D01*
X137042753Y-113923760D01*
X137009500Y-114133713D01*
X137009500Y-114346286D01*
X137041810Y-114550288D01*
X137042754Y-114556243D01*
X137101503Y-114737054D01*
X137108444Y-114758414D01*
X137204951Y-114947820D01*
X137329890Y-115119786D01*
X137480213Y-115270109D01*
X137652182Y-115395050D01*
X137660946Y-115399516D01*
X137711742Y-115447491D01*
X137728536Y-115515312D01*
X137705998Y-115581447D01*
X137660946Y-115620484D01*
X137652182Y-115624949D01*
X137480213Y-115749890D01*
X137329890Y-115900213D01*
X137204951Y-116072179D01*
X137108444Y-116261585D01*
X137042753Y-116463760D01*
X137009500Y-116673713D01*
X137009500Y-116886286D01*
X137042753Y-117096239D01*
X137108444Y-117298414D01*
X137204951Y-117487820D01*
X137329890Y-117659786D01*
X137480213Y-117810109D01*
X137652179Y-117935048D01*
X137652181Y-117935049D01*
X137652184Y-117935051D01*
X137841588Y-118031557D01*
X138043757Y-118097246D01*
X138253713Y-118130500D01*
X138253714Y-118130500D01*
X138466286Y-118130500D01*
X138466287Y-118130500D01*
X138676243Y-118097246D01*
X138878412Y-118031557D01*
X139067816Y-117935051D01*
X139116315Y-117899815D01*
X139239786Y-117810109D01*
X139239788Y-117810106D01*
X139239792Y-117810104D01*
X139390104Y-117659792D01*
X139390106Y-117659788D01*
X139390109Y-117659786D01*
X139515048Y-117487820D01*
X139515047Y-117487820D01*
X139515051Y-117487816D01*
X139519514Y-117479054D01*
X139567488Y-117428259D01*
X139635308Y-117411463D01*
X139701444Y-117433999D01*
X139740486Y-117479056D01*
X139744951Y-117487820D01*
X139869890Y-117659786D01*
X140020213Y-117810109D01*
X140192182Y-117935050D01*
X140200946Y-117939516D01*
X140251742Y-117987491D01*
X140268536Y-118055312D01*
X140245998Y-118121447D01*
X140200946Y-118160484D01*
X140192182Y-118164949D01*
X140020213Y-118289890D01*
X139869890Y-118440213D01*
X139744951Y-118612179D01*
X139648444Y-118801585D01*
X139582753Y-119003760D01*
X139549500Y-119213713D01*
X139549500Y-119426286D01*
X139582753Y-119636239D01*
X139648444Y-119838414D01*
X139744951Y-120027820D01*
X139869890Y-120199786D01*
X140020213Y-120350109D01*
X140192179Y-120475048D01*
X140192181Y-120475049D01*
X140192184Y-120475051D01*
X140381588Y-120571557D01*
X140583757Y-120637246D01*
X140793713Y-120670500D01*
X140793714Y-120670500D01*
X141006286Y-120670500D01*
X141006287Y-120670500D01*
X141216243Y-120637246D01*
X141418412Y-120571557D01*
X141607816Y-120475051D01*
X141629789Y-120459086D01*
X141779786Y-120350109D01*
X141779788Y-120350106D01*
X141779792Y-120350104D01*
X141930104Y-120199792D01*
X141930106Y-120199788D01*
X141930109Y-120199786D01*
X142055048Y-120027820D01*
X142055047Y-120027820D01*
X142055051Y-120027816D01*
X142151557Y-119838412D01*
X142217246Y-119636243D01*
X142250500Y-119426287D01*
X142250500Y-119213713D01*
X142217246Y-119003757D01*
X142151557Y-118801588D01*
X142055051Y-118612184D01*
X142055049Y-118612181D01*
X142055048Y-118612179D01*
X141930109Y-118440213D01*
X141779786Y-118289890D01*
X141607820Y-118164951D01*
X141605991Y-118164019D01*
X141599054Y-118160485D01*
X141548259Y-118112512D01*
X141531463Y-118044692D01*
X141553999Y-117978556D01*
X141599054Y-117939515D01*
X141607816Y-117935051D01*
X141656315Y-117899815D01*
X141779786Y-117810109D01*
X141779788Y-117810106D01*
X141779792Y-117810104D01*
X141930104Y-117659792D01*
X141930106Y-117659788D01*
X141930109Y-117659786D01*
X142055048Y-117487820D01*
X142055047Y-117487820D01*
X142055051Y-117487816D01*
X142151557Y-117298412D01*
X142217246Y-117096243D01*
X142250500Y-116886287D01*
X142250500Y-116687154D01*
X142270185Y-116620115D01*
X142286819Y-116599473D01*
X143616188Y-115270104D01*
X144877821Y-114008471D01*
X144939142Y-113974988D01*
X145008834Y-113979972D01*
X145064767Y-114021844D01*
X145089184Y-114087308D01*
X145089500Y-114096154D01*
X145089500Y-117473330D01*
X145089499Y-117473348D01*
X145089499Y-117639054D01*
X145089498Y-117639054D01*
X145130423Y-117791785D01*
X145136237Y-117801855D01*
X145209477Y-117928712D01*
X145209481Y-117928717D01*
X145328349Y-118047585D01*
X145328355Y-118047590D01*
X149195139Y-121914374D01*
X149195149Y-121914385D01*
X149199479Y-121918715D01*
X149199480Y-121918716D01*
X149311284Y-122030520D01*
X149398095Y-122080639D01*
X149398097Y-122080641D01*
X149436151Y-122102611D01*
X149448215Y-122109577D01*
X149600943Y-122150500D01*
X149600945Y-122150500D01*
X166229055Y-122150500D01*
X166229057Y-122150500D01*
X166381784Y-122109577D01*
X166518716Y-122030520D01*
X166630520Y-121918716D01*
X166709577Y-121781784D01*
X166750500Y-121629057D01*
X166750500Y-121570096D01*
X166770185Y-121503057D01*
X166786815Y-121482419D01*
X167615478Y-120653755D01*
X167676799Y-120620272D01*
X167741473Y-120623506D01*
X167783757Y-120637246D01*
X167993713Y-120670500D01*
X167993714Y-120670500D01*
X168206286Y-120670500D01*
X168206287Y-120670500D01*
X168416243Y-120637246D01*
X168618412Y-120571557D01*
X168807816Y-120475051D01*
X168829789Y-120459086D01*
X168979786Y-120350109D01*
X168979788Y-120350106D01*
X168979792Y-120350104D01*
X169130104Y-120199792D01*
X169130106Y-120199788D01*
X169130109Y-120199786D01*
X169255048Y-120027820D01*
X169255047Y-120027820D01*
X169255051Y-120027816D01*
X169351557Y-119838412D01*
X169417246Y-119636243D01*
X169450500Y-119426287D01*
X169450500Y-119213713D01*
X169417246Y-119003757D01*
X169351557Y-118801588D01*
X169255051Y-118612184D01*
X169255049Y-118612181D01*
X169255048Y-118612179D01*
X169130109Y-118440213D01*
X168979786Y-118289890D01*
X168807820Y-118164951D01*
X168805991Y-118164019D01*
X168799054Y-118160485D01*
X168748259Y-118112512D01*
X168731463Y-118044692D01*
X168753999Y-117978556D01*
X168799054Y-117939515D01*
X168807816Y-117935051D01*
X168856315Y-117899815D01*
X168979786Y-117810109D01*
X168979788Y-117810106D01*
X168979792Y-117810104D01*
X169130104Y-117659792D01*
X169130106Y-117659788D01*
X169130109Y-117659786D01*
X169255048Y-117487820D01*
X169255047Y-117487820D01*
X169255051Y-117487816D01*
X169351557Y-117298412D01*
X169417246Y-117096243D01*
X169450500Y-116886287D01*
X169450500Y-116673713D01*
X169417246Y-116463757D01*
X169351557Y-116261588D01*
X169255051Y-116072184D01*
X169255049Y-116072181D01*
X169255048Y-116072179D01*
X169130109Y-115900213D01*
X168979786Y-115749890D01*
X168807820Y-115624951D01*
X168805991Y-115624019D01*
X168799054Y-115620485D01*
X168748259Y-115572512D01*
X168731463Y-115504692D01*
X168753999Y-115438556D01*
X168799054Y-115399515D01*
X168807816Y-115395051D01*
X168829789Y-115379086D01*
X168979786Y-115270109D01*
X168979788Y-115270106D01*
X168979792Y-115270104D01*
X169130104Y-115119792D01*
X169130106Y-115119788D01*
X169130109Y-115119786D01*
X169255048Y-114947820D01*
X169255047Y-114947820D01*
X169255051Y-114947816D01*
X169351557Y-114758412D01*
X169417246Y-114556243D01*
X169450500Y-114346287D01*
X169450500Y-114133713D01*
X169417246Y-113923757D01*
X169351557Y-113721588D01*
X169255051Y-113532184D01*
X169255049Y-113532181D01*
X169255048Y-113532179D01*
X169130109Y-113360213D01*
X168979786Y-113209890D01*
X168807820Y-113084951D01*
X168805991Y-113084019D01*
X168799054Y-113080485D01*
X168748259Y-113032512D01*
X168731463Y-112964692D01*
X168753999Y-112898556D01*
X168799054Y-112859515D01*
X168807816Y-112855051D01*
X168829789Y-112839086D01*
X168979786Y-112730109D01*
X168979788Y-112730106D01*
X168979792Y-112730104D01*
X169130104Y-112579792D01*
X169130106Y-112579788D01*
X169130109Y-112579786D01*
X169255048Y-112407820D01*
X169255047Y-112407820D01*
X169255051Y-112407816D01*
X169351557Y-112218412D01*
X169417246Y-112016243D01*
X169450500Y-111806287D01*
X169450500Y-111593713D01*
X169417246Y-111383757D01*
X169351557Y-111181588D01*
X169255051Y-110992184D01*
X169255049Y-110992181D01*
X169255048Y-110992179D01*
X169130109Y-110820213D01*
X168979786Y-110669890D01*
X168807820Y-110544951D01*
X168805991Y-110544019D01*
X168799054Y-110540485D01*
X168748259Y-110492512D01*
X168731463Y-110424692D01*
X168753999Y-110358556D01*
X168799054Y-110319515D01*
X168807816Y-110315051D01*
X168829789Y-110299086D01*
X168979786Y-110190109D01*
X168979788Y-110190106D01*
X168979792Y-110190104D01*
X169130104Y-110039792D01*
X169130106Y-110039788D01*
X169130109Y-110039786D01*
X169255048Y-109867820D01*
X169255047Y-109867820D01*
X169255051Y-109867816D01*
X169351557Y-109678412D01*
X169417246Y-109476243D01*
X169450500Y-109266287D01*
X169450500Y-109053713D01*
X169417246Y-108843757D01*
X169351557Y-108641588D01*
X169255051Y-108452184D01*
X169255049Y-108452181D01*
X169255048Y-108452179D01*
X169130109Y-108280213D01*
X168979786Y-108129890D01*
X168807820Y-108004951D01*
X168805991Y-108004019D01*
X168799054Y-108000485D01*
X168748259Y-107952512D01*
X168731463Y-107884692D01*
X168753999Y-107818556D01*
X168799054Y-107779515D01*
X168807816Y-107775051D01*
X168829789Y-107759086D01*
X168979786Y-107650109D01*
X168979788Y-107650106D01*
X168979792Y-107650104D01*
X169130104Y-107499792D01*
X169130106Y-107499788D01*
X169130109Y-107499786D01*
X169255048Y-107327820D01*
X169255047Y-107327820D01*
X169255051Y-107327816D01*
X169351557Y-107138412D01*
X169417246Y-106936243D01*
X169450500Y-106726287D01*
X169450500Y-106513713D01*
X169417246Y-106303757D01*
X169351557Y-106101588D01*
X169255051Y-105912184D01*
X169255049Y-105912181D01*
X169255048Y-105912179D01*
X169130109Y-105740213D01*
X168979786Y-105589890D01*
X168807820Y-105464951D01*
X168807115Y-105464591D01*
X168799054Y-105460485D01*
X168748259Y-105412512D01*
X168731463Y-105344692D01*
X168753999Y-105278556D01*
X168799054Y-105239515D01*
X168807816Y-105235051D01*
X168868237Y-105191153D01*
X168979786Y-105110109D01*
X168979788Y-105110106D01*
X168979792Y-105110104D01*
X169130104Y-104959792D01*
X169130106Y-104959788D01*
X169130109Y-104959786D01*
X169255048Y-104787820D01*
X169255047Y-104787820D01*
X169255051Y-104787816D01*
X169351557Y-104598412D01*
X169417246Y-104396243D01*
X169450500Y-104186287D01*
X169450500Y-103973713D01*
X169417246Y-103763757D01*
X169351557Y-103561588D01*
X169255051Y-103372184D01*
X169255049Y-103372181D01*
X169255048Y-103372179D01*
X169130109Y-103200213D01*
X168979786Y-103049890D01*
X168807820Y-102924951D01*
X168805991Y-102924019D01*
X168799054Y-102920485D01*
X168748259Y-102872512D01*
X168731463Y-102804692D01*
X168753999Y-102738556D01*
X168799054Y-102699515D01*
X168807816Y-102695051D01*
X168829789Y-102679086D01*
X168979786Y-102570109D01*
X168979788Y-102570106D01*
X168979792Y-102570104D01*
X169130104Y-102419792D01*
X169130106Y-102419788D01*
X169130109Y-102419786D01*
X169255048Y-102247820D01*
X169255047Y-102247820D01*
X169255051Y-102247816D01*
X169351557Y-102058412D01*
X169417246Y-101856243D01*
X169450500Y-101646287D01*
X169450500Y-101433713D01*
X169417246Y-101223757D01*
X169351557Y-101021588D01*
X169255051Y-100832184D01*
X169255049Y-100832181D01*
X169255048Y-100832179D01*
X169130109Y-100660213D01*
X168979786Y-100509890D01*
X168807820Y-100384951D01*
X168807115Y-100384591D01*
X168799054Y-100380485D01*
X168748259Y-100332512D01*
X168731463Y-100264692D01*
X168753999Y-100198556D01*
X168799054Y-100159515D01*
X168807816Y-100155051D01*
X168829789Y-100139086D01*
X168979786Y-100030109D01*
X168979788Y-100030106D01*
X168979792Y-100030104D01*
X169130104Y-99879792D01*
X169130106Y-99879788D01*
X169130109Y-99879786D01*
X169255048Y-99707820D01*
X169255047Y-99707820D01*
X169255051Y-99707816D01*
X169351557Y-99518412D01*
X169417246Y-99316243D01*
X169450500Y-99106287D01*
X169450500Y-98893713D01*
X169417246Y-98683757D01*
X169351557Y-98481588D01*
X169255051Y-98292184D01*
X169255049Y-98292181D01*
X169255048Y-98292179D01*
X169130109Y-98120213D01*
X168979786Y-97969890D01*
X168807820Y-97844951D01*
X168807115Y-97844591D01*
X168799054Y-97840485D01*
X168748259Y-97792512D01*
X168731463Y-97724692D01*
X168753999Y-97658556D01*
X168799054Y-97619515D01*
X168807816Y-97615051D01*
X168894138Y-97552335D01*
X168979786Y-97490109D01*
X168979788Y-97490106D01*
X168979792Y-97490104D01*
X169130104Y-97339792D01*
X169130106Y-97339788D01*
X169130109Y-97339786D01*
X169255048Y-97167820D01*
X169255047Y-97167820D01*
X169255051Y-97167816D01*
X169351557Y-96978412D01*
X169417246Y-96776243D01*
X169450500Y-96566287D01*
X169450500Y-96353713D01*
X169417246Y-96143757D01*
X169351557Y-95941588D01*
X169255051Y-95752184D01*
X169255049Y-95752181D01*
X169255048Y-95752179D01*
X169130109Y-95580213D01*
X168979786Y-95429890D01*
X168807820Y-95304951D01*
X168618414Y-95208444D01*
X168618413Y-95208443D01*
X168618412Y-95208443D01*
X168416243Y-95142754D01*
X168416241Y-95142753D01*
X168416240Y-95142753D01*
X168254957Y-95117208D01*
X168206287Y-95109500D01*
X167993713Y-95109500D01*
X167945042Y-95117208D01*
X167783760Y-95142753D01*
X167581585Y-95208444D01*
X167392179Y-95304951D01*
X167220215Y-95429889D01*
X167106673Y-95543431D01*
X167045350Y-95576915D01*
X166975658Y-95571931D01*
X166919725Y-95530059D01*
X166902810Y-95499082D01*
X166853797Y-95367671D01*
X166853793Y-95367664D01*
X166767547Y-95252455D01*
X166767544Y-95252452D01*
X166652335Y-95166206D01*
X166652328Y-95166202D01*
X166517482Y-95115908D01*
X166517483Y-95115908D01*
X166457883Y-95109501D01*
X166457881Y-95109500D01*
X166457873Y-95109500D01*
X166457864Y-95109500D01*
X164662129Y-95109500D01*
X164662123Y-95109501D01*
X164602516Y-95115908D01*
X164467671Y-95166202D01*
X164467664Y-95166206D01*
X164352455Y-95252452D01*
X164352452Y-95252455D01*
X164266206Y-95367664D01*
X164266202Y-95367671D01*
X164215908Y-95502517D01*
X164209501Y-95562116D01*
X164209500Y-95562135D01*
X164209500Y-97357870D01*
X164209501Y-97357876D01*
X164215908Y-97417483D01*
X164266202Y-97552328D01*
X164266206Y-97552335D01*
X164352452Y-97667544D01*
X164352455Y-97667547D01*
X164467664Y-97753793D01*
X164467671Y-97753797D01*
X164599082Y-97802810D01*
X164655016Y-97844681D01*
X164679433Y-97910145D01*
X164664582Y-97978418D01*
X164643431Y-98006673D01*
X164529889Y-98120215D01*
X164404951Y-98292179D01*
X164308444Y-98481585D01*
X164242753Y-98683760D01*
X164209500Y-98893713D01*
X164209500Y-99106286D01*
X164242753Y-99316239D01*
X164308444Y-99518414D01*
X164404951Y-99707820D01*
X164529890Y-99879786D01*
X164680213Y-100030109D01*
X164852182Y-100155050D01*
X164860946Y-100159516D01*
X164911742Y-100207491D01*
X164928536Y-100275312D01*
X164905998Y-100341447D01*
X164860946Y-100380484D01*
X164852182Y-100384949D01*
X164680213Y-100509890D01*
X164529890Y-100660213D01*
X164404951Y-100832179D01*
X164308444Y-101021585D01*
X164242753Y-101223760D01*
X164209500Y-101433713D01*
X164209500Y-101646286D01*
X164232738Y-101793009D01*
X164242754Y-101856243D01*
X164307937Y-102056856D01*
X164308444Y-102058414D01*
X164404951Y-102247820D01*
X164529890Y-102419786D01*
X164680213Y-102570109D01*
X164852182Y-102695050D01*
X164860946Y-102699516D01*
X164911742Y-102747491D01*
X164928536Y-102815312D01*
X164905998Y-102881447D01*
X164860946Y-102920484D01*
X164852182Y-102924949D01*
X164680213Y-103049890D01*
X164529890Y-103200213D01*
X164404948Y-103372184D01*
X164404947Y-103372185D01*
X164384765Y-103411795D01*
X164336791Y-103462591D01*
X164274281Y-103479500D01*
X164210943Y-103479500D01*
X164058215Y-103520423D01*
X164058214Y-103520423D01*
X164058212Y-103520424D01*
X164058209Y-103520425D01*
X164008096Y-103549359D01*
X164008095Y-103549360D01*
X163964689Y-103574420D01*
X163921285Y-103599479D01*
X163921282Y-103599481D01*
X163809478Y-103711286D01*
X163327584Y-104193181D01*
X163266261Y-104226666D01*
X163239903Y-104229500D01*
X158355784Y-104229500D01*
X158288745Y-104209815D01*
X158268103Y-104193181D01*
X157683276Y-103608355D01*
X157683274Y-103608352D01*
X157564403Y-103489481D01*
X157564402Y-103489480D01*
X157477590Y-103439360D01*
X157477590Y-103439359D01*
X157477586Y-103439358D01*
X157427471Y-103410423D01*
X157274743Y-103369499D01*
X157116629Y-103369499D01*
X157109033Y-103369499D01*
X157109017Y-103369500D01*
X150989766Y-103369500D01*
X150922727Y-103349815D01*
X150920875Y-103348602D01*
X150789185Y-103260609D01*
X150789172Y-103260602D01*
X150643501Y-103200264D01*
X150643489Y-103200261D01*
X150488845Y-103169500D01*
X150488842Y-103169500D01*
X150331158Y-103169500D01*
X150331155Y-103169500D01*
X150176510Y-103200261D01*
X150176498Y-103200264D01*
X150030827Y-103260602D01*
X150030814Y-103260609D01*
X149899711Y-103348210D01*
X149899707Y-103348213D01*
X149788213Y-103459707D01*
X149788210Y-103459711D01*
X149700609Y-103590814D01*
X149700602Y-103590827D01*
X149640264Y-103736498D01*
X149640261Y-103736510D01*
X149609500Y-103891153D01*
X149609500Y-104048846D01*
X149640261Y-104203489D01*
X149640264Y-104203501D01*
X149700602Y-104349172D01*
X149700609Y-104349185D01*
X149788210Y-104480288D01*
X149788213Y-104480292D01*
X149899707Y-104591786D01*
X149899711Y-104591789D01*
X150030814Y-104679390D01*
X150030821Y-104679394D01*
X150135957Y-104722942D01*
X150190358Y-104766781D01*
X150212424Y-104833075D01*
X150200639Y-104884241D01*
X150202937Y-104885193D01*
X150140264Y-105036498D01*
X150140261Y-105036510D01*
X150109500Y-105191153D01*
X150109500Y-105348846D01*
X150140261Y-105503489D01*
X150140264Y-105503501D01*
X150200602Y-105649172D01*
X150200609Y-105649185D01*
X150288210Y-105780288D01*
X150288213Y-105780292D01*
X150399707Y-105891786D01*
X150399711Y-105891789D01*
X150530814Y-105979390D01*
X150530827Y-105979397D01*
X150676498Y-106039735D01*
X150676503Y-106039737D01*
X150831153Y-106070499D01*
X150831156Y-106070500D01*
X150831158Y-106070500D01*
X150988844Y-106070500D01*
X150988845Y-106070499D01*
X151143497Y-106039737D01*
X151289179Y-105979394D01*
X151420289Y-105891789D01*
X151531789Y-105780289D01*
X151619394Y-105649179D01*
X151679737Y-105503497D01*
X151710270Y-105350000D01*
X151710638Y-105348150D01*
X151743023Y-105286239D01*
X151744461Y-105284773D01*
X151992418Y-105036816D01*
X152053740Y-105003334D01*
X152080098Y-105000500D01*
X152370903Y-105000500D01*
X152437942Y-105020185D01*
X152483697Y-105072989D01*
X152493641Y-105142147D01*
X152464616Y-105205703D01*
X152458584Y-105212180D01*
X150427031Y-107243733D01*
X148411286Y-109259478D01*
X148299481Y-109371282D01*
X148299475Y-109371290D01*
X148265361Y-109430379D01*
X148265361Y-109430381D01*
X148220423Y-109508214D01*
X148220423Y-109508215D01*
X148179499Y-109660943D01*
X148179499Y-109660945D01*
X148179499Y-109829046D01*
X148179500Y-109829059D01*
X148179500Y-113460234D01*
X148159815Y-113527273D01*
X148158602Y-113529125D01*
X148070609Y-113660814D01*
X148070602Y-113660827D01*
X148010264Y-113806498D01*
X148010261Y-113806510D01*
X147979500Y-113961153D01*
X147979500Y-114118846D01*
X148010261Y-114273489D01*
X148010264Y-114273501D01*
X148070602Y-114419172D01*
X148070609Y-114419185D01*
X148158210Y-114550288D01*
X148158213Y-114550292D01*
X148269707Y-114661786D01*
X148269711Y-114661789D01*
X148400814Y-114749390D01*
X148400827Y-114749397D01*
X148546498Y-114809735D01*
X148546503Y-114809737D01*
X148701153Y-114840499D01*
X148701156Y-114840500D01*
X148701158Y-114840500D01*
X148858844Y-114840500D01*
X148858845Y-114840499D01*
X149013497Y-114809737D01*
X149137403Y-114758414D01*
X149159172Y-114749397D01*
X149159172Y-114749396D01*
X149159179Y-114749394D01*
X149190089Y-114728740D01*
X149256764Y-114707861D01*
X149306428Y-114717278D01*
X149342751Y-114732324D01*
X149342757Y-114732325D01*
X149342759Y-114732326D01*
X149497401Y-114763086D01*
X149497404Y-114763087D01*
X149497406Y-114763087D01*
X149655092Y-114763087D01*
X149655093Y-114763086D01*
X149809745Y-114732324D01*
X149955427Y-114671981D01*
X149955429Y-114671979D01*
X149960008Y-114670083D01*
X150029478Y-114662614D01*
X150054910Y-114670082D01*
X150142330Y-114706292D01*
X150273196Y-114732323D01*
X150296980Y-114737054D01*
X150296983Y-114737055D01*
X150296985Y-114737055D01*
X150454671Y-114737055D01*
X150454672Y-114737054D01*
X150609324Y-114706292D01*
X150749755Y-114648123D01*
X150819224Y-114640655D01*
X150844657Y-114648123D01*
X150942134Y-114688499D01*
X151039473Y-114707861D01*
X151096784Y-114719261D01*
X151096787Y-114719262D01*
X151096789Y-114719262D01*
X151254475Y-114719262D01*
X151254476Y-114719261D01*
X151409128Y-114688499D01*
X151490056Y-114654977D01*
X151559520Y-114647509D01*
X151606395Y-114666436D01*
X151610821Y-114669394D01*
X151610827Y-114669396D01*
X151610828Y-114669397D01*
X151731214Y-114719262D01*
X151756503Y-114729737D01*
X151900661Y-114758412D01*
X151911153Y-114760499D01*
X151911156Y-114760500D01*
X151911158Y-114760500D01*
X152068844Y-114760500D01*
X152068845Y-114760499D01*
X152223497Y-114729737D01*
X152336166Y-114683067D01*
X152369172Y-114669397D01*
X152369172Y-114669396D01*
X152369179Y-114669394D01*
X152500289Y-114581789D01*
X152611789Y-114470289D01*
X152699394Y-114339179D01*
X152759737Y-114193497D01*
X152790500Y-114038842D01*
X152790500Y-113881158D01*
X152790500Y-113881155D01*
X152790499Y-113881153D01*
X152775649Y-113806498D01*
X152759737Y-113726503D01*
X152750968Y-113705332D01*
X152699397Y-113580827D01*
X152699390Y-113580814D01*
X152611398Y-113449125D01*
X152590520Y-113382447D01*
X152590500Y-113380234D01*
X152590500Y-109092841D01*
X152610185Y-109025802D01*
X152626819Y-109005160D01*
X154431631Y-107200348D01*
X154492954Y-107166863D01*
X154519312Y-107164029D01*
X156095002Y-107164029D01*
X156162041Y-107183714D01*
X156182683Y-107200348D01*
X156576709Y-107594374D01*
X156576719Y-107594385D01*
X156581049Y-107598715D01*
X156581050Y-107598716D01*
X156692854Y-107710520D01*
X156692856Y-107710521D01*
X156692860Y-107710524D01*
X156829779Y-107789573D01*
X156829786Y-107789577D01*
X156941589Y-107819534D01*
X156982512Y-107830500D01*
X156982513Y-107830500D01*
X160572185Y-107830500D01*
X160639224Y-107850185D01*
X160659866Y-107866819D01*
X161873181Y-109080134D01*
X161906666Y-109141457D01*
X161909500Y-109167815D01*
X161909500Y-111103330D01*
X161909499Y-111103348D01*
X161909499Y-111269054D01*
X161909498Y-111269054D01*
X161909499Y-111269057D01*
X161950423Y-111421785D01*
X161950424Y-111421787D01*
X161950423Y-111421787D01*
X161954889Y-111429521D01*
X161954890Y-111429522D01*
X162029477Y-111558712D01*
X162029481Y-111558717D01*
X162148349Y-111677585D01*
X162148355Y-111677590D01*
X164226241Y-113755476D01*
X164259726Y-113816799D01*
X164256492Y-113881473D01*
X164242753Y-113923757D01*
X164209500Y-114133713D01*
X164209500Y-114346286D01*
X164241810Y-114550288D01*
X164242754Y-114556243D01*
X164301503Y-114737054D01*
X164308444Y-114758414D01*
X164404951Y-114947820D01*
X164529890Y-115119786D01*
X164680213Y-115270109D01*
X164852182Y-115395050D01*
X164860946Y-115399516D01*
X164911742Y-115447491D01*
X164928536Y-115515312D01*
X164905998Y-115581447D01*
X164860946Y-115620484D01*
X164852182Y-115624949D01*
X164680213Y-115749890D01*
X164529890Y-115900213D01*
X164404948Y-116072184D01*
X164404947Y-116072185D01*
X164384765Y-116111795D01*
X164336791Y-116162591D01*
X164274281Y-116179500D01*
X163636670Y-116179500D01*
X163636654Y-116179499D01*
X163629058Y-116179499D01*
X163470943Y-116179499D01*
X163394579Y-116199961D01*
X163318214Y-116220423D01*
X163318209Y-116220426D01*
X163181290Y-116299475D01*
X163181282Y-116299481D01*
X161597584Y-117883181D01*
X161536261Y-117916666D01*
X161509903Y-117919500D01*
X148647155Y-117919500D01*
X148580116Y-117899815D01*
X148559474Y-117883181D01*
X147526819Y-116850526D01*
X147493334Y-116789203D01*
X147490500Y-116762845D01*
X147490500Y-93159262D01*
X147490501Y-93159249D01*
X147490501Y-92991146D01*
X147449576Y-92838416D01*
X147449573Y-92838411D01*
X147370524Y-92701492D01*
X147370518Y-92701484D01*
X144597389Y-89928355D01*
X144597387Y-89928352D01*
X144478516Y-89809481D01*
X144478515Y-89809480D01*
X144391703Y-89759360D01*
X144391703Y-89759359D01*
X144391699Y-89759358D01*
X144341584Y-89730423D01*
X144188856Y-89689499D01*
X144030742Y-89689499D01*
X144023146Y-89689499D01*
X144023130Y-89689500D01*
X132399899Y-89689500D01*
X132332860Y-89669815D01*
X132312218Y-89653181D01*
X129247392Y-86588355D01*
X129247390Y-86588352D01*
X129128519Y-86469481D01*
X129128518Y-86469480D01*
X129041706Y-86419360D01*
X129041706Y-86419359D01*
X129041702Y-86419358D01*
X128991587Y-86390423D01*
X128838859Y-86349499D01*
X128680745Y-86349499D01*
X128673149Y-86349499D01*
X128673133Y-86349500D01*
X122612822Y-86349500D01*
X122545783Y-86329815D01*
X122525141Y-86313181D01*
X120706819Y-84494859D01*
X120673334Y-84433536D01*
X120670500Y-84407178D01*
X120670500Y-76899080D01*
X120670501Y-76899067D01*
X120670501Y-76730964D01*
X120666578Y-76716323D01*
X120629577Y-76578236D01*
X120629573Y-76578229D01*
X120550524Y-76441310D01*
X120550518Y-76441302D01*
X119771748Y-75662532D01*
X118923756Y-74814541D01*
X118890272Y-74753219D01*
X118893507Y-74688543D01*
X118907246Y-74646263D01*
X118940500Y-74436307D01*
X118940500Y-74223733D01*
X118907246Y-74013777D01*
X118841557Y-73811608D01*
X118745051Y-73622204D01*
X118745049Y-73622201D01*
X118745048Y-73622199D01*
X118620109Y-73450233D01*
X118469786Y-73299910D01*
X118297820Y-73174971D01*
X118297115Y-73174611D01*
X118289054Y-73170505D01*
X118238259Y-73122532D01*
X118221463Y-73054712D01*
X118243999Y-72988576D01*
X118289054Y-72949535D01*
X118297816Y-72945071D01*
X118319789Y-72929106D01*
X118469786Y-72820129D01*
X118469788Y-72820126D01*
X118469792Y-72820124D01*
X118620104Y-72669812D01*
X118620106Y-72669808D01*
X118620109Y-72669806D01*
X118745048Y-72497840D01*
X118745047Y-72497840D01*
X118745051Y-72497836D01*
X118841557Y-72308432D01*
X118907246Y-72106263D01*
X118940500Y-71896307D01*
X118940500Y-71683733D01*
X118907246Y-71473777D01*
X118841557Y-71271608D01*
X118745051Y-71082204D01*
X118745049Y-71082201D01*
X118745048Y-71082199D01*
X118620109Y-70910233D01*
X118469786Y-70759910D01*
X118297820Y-70634971D01*
X118297115Y-70634611D01*
X118289054Y-70630505D01*
X118238259Y-70582532D01*
X118221463Y-70514712D01*
X118243999Y-70448576D01*
X118289054Y-70409535D01*
X118297816Y-70405071D01*
X118319789Y-70389106D01*
X118469786Y-70280129D01*
X118469788Y-70280126D01*
X118469792Y-70280124D01*
X118620104Y-70129812D01*
X118620106Y-70129808D01*
X118620109Y-70129806D01*
X118745048Y-69957840D01*
X118745047Y-69957840D01*
X118745051Y-69957836D01*
X118841557Y-69768432D01*
X118907246Y-69566263D01*
X118940500Y-69356307D01*
X118940500Y-69143733D01*
X118907246Y-68933777D01*
X118841557Y-68731608D01*
X118745051Y-68542204D01*
X118745049Y-68542201D01*
X118745048Y-68542199D01*
X118620109Y-68370233D01*
X118469786Y-68219910D01*
X118297820Y-68094971D01*
X118297115Y-68094611D01*
X118289054Y-68090505D01*
X118238259Y-68042532D01*
X118221463Y-67974712D01*
X118243999Y-67908576D01*
X118289054Y-67869535D01*
X118297816Y-67865071D01*
X118319789Y-67849106D01*
X118469786Y-67740129D01*
X118469788Y-67740126D01*
X118469792Y-67740124D01*
X118620104Y-67589812D01*
X118620106Y-67589808D01*
X118620109Y-67589806D01*
X118745048Y-67417840D01*
X118745047Y-67417840D01*
X118745051Y-67417836D01*
X118841557Y-67228432D01*
X118907246Y-67026263D01*
X118940500Y-66816307D01*
X118940500Y-66603733D01*
X118907246Y-66393777D01*
X118841557Y-66191608D01*
X118745051Y-66002204D01*
X118745049Y-66002201D01*
X118745048Y-66002199D01*
X118620109Y-65830233D01*
X118469786Y-65679910D01*
X118297820Y-65554971D01*
X118108414Y-65458464D01*
X118108413Y-65458463D01*
X118108412Y-65458463D01*
X117906243Y-65392774D01*
X117906241Y-65392773D01*
X117906240Y-65392773D01*
X117744957Y-65367228D01*
X117696287Y-65359520D01*
X117483713Y-65359520D01*
X117435042Y-65367228D01*
X117273760Y-65392773D01*
X117071585Y-65458464D01*
X116882179Y-65554971D01*
X116710213Y-65679910D01*
X116559890Y-65830233D01*
X116434949Y-66002202D01*
X116430484Y-66010966D01*
X116382509Y-66061762D01*
X116314688Y-66078556D01*
X116248553Y-66056018D01*
X116209516Y-66010966D01*
X116205050Y-66002202D01*
X116080109Y-65830233D01*
X115929786Y-65679910D01*
X115757820Y-65554971D01*
X115568414Y-65458464D01*
X115568413Y-65458463D01*
X115568412Y-65458463D01*
X115366243Y-65392774D01*
X115366241Y-65392773D01*
X115366240Y-65392773D01*
X115204957Y-65367228D01*
X115156287Y-65359520D01*
X114943713Y-65359520D01*
X114895042Y-65367228D01*
X114733760Y-65392773D01*
X114531585Y-65458464D01*
X114342179Y-65554971D01*
X114170213Y-65679910D01*
X114019890Y-65830233D01*
X113894951Y-66002199D01*
X113798444Y-66191605D01*
X113732753Y-66393780D01*
X113699500Y-66603733D01*
X113699500Y-66816306D01*
X113732753Y-67026259D01*
X113798444Y-67228434D01*
X113894951Y-67417840D01*
X114019890Y-67589806D01*
X114170213Y-67740129D01*
X114342182Y-67865070D01*
X114350946Y-67869536D01*
X114401742Y-67917511D01*
X114418536Y-67985332D01*
X114395998Y-68051467D01*
X114350946Y-68090504D01*
X114342182Y-68094969D01*
X114170213Y-68219910D01*
X114019890Y-68370233D01*
X113894951Y-68542199D01*
X113798444Y-68731605D01*
X113732753Y-68933780D01*
X113699500Y-69143733D01*
X113699500Y-69356306D01*
X113732753Y-69566259D01*
X113798444Y-69768434D01*
X113894951Y-69957840D01*
X114019890Y-70129806D01*
X114170213Y-70280129D01*
X114342182Y-70405070D01*
X114350946Y-70409536D01*
X114401742Y-70457511D01*
X114418536Y-70525332D01*
X114395998Y-70591467D01*
X114350946Y-70630504D01*
X114342182Y-70634969D01*
X114170213Y-70759910D01*
X114019890Y-70910233D01*
X113894951Y-71082199D01*
X113798444Y-71271605D01*
X113732753Y-71473780D01*
X113699500Y-71683733D01*
X113699500Y-71896306D01*
X113732753Y-72106259D01*
X113798444Y-72308434D01*
X113894951Y-72497840D01*
X114019890Y-72669806D01*
X114170213Y-72820129D01*
X114342182Y-72945070D01*
X114350946Y-72949536D01*
X114401742Y-72997511D01*
X114418536Y-73065332D01*
X114395998Y-73131467D01*
X114350946Y-73170504D01*
X114342182Y-73174969D01*
X114170213Y-73299910D01*
X114019890Y-73450233D01*
X113894951Y-73622199D01*
X113798444Y-73811605D01*
X113732753Y-74013780D01*
X113699500Y-74223733D01*
X113699500Y-74436306D01*
X113732753Y-74646259D01*
X113732753Y-74646261D01*
X113732754Y-74646263D01*
X113787431Y-74814542D01*
X113798444Y-74848434D01*
X113894951Y-75037840D01*
X114019890Y-75209806D01*
X114170213Y-75360129D01*
X114342182Y-75485070D01*
X114350946Y-75489536D01*
X114401742Y-75537511D01*
X114418536Y-75605332D01*
X114395998Y-75671467D01*
X114350946Y-75710504D01*
X114342182Y-75714969D01*
X114170213Y-75839910D01*
X114019890Y-75990233D01*
X113894951Y-76162199D01*
X113798444Y-76351605D01*
X113732753Y-76553780D01*
X113699500Y-76763733D01*
X113699500Y-76976306D01*
X113732753Y-77186259D01*
X113732753Y-77186261D01*
X113732754Y-77186263D01*
X113787431Y-77354542D01*
X113798444Y-77388434D01*
X113894951Y-77577840D01*
X114019890Y-77749806D01*
X114170213Y-77900129D01*
X114342182Y-78025070D01*
X114350946Y-78029536D01*
X114401742Y-78077511D01*
X114418536Y-78145332D01*
X114395998Y-78211467D01*
X114350946Y-78250504D01*
X114342182Y-78254969D01*
X114170213Y-78379910D01*
X114019890Y-78530233D01*
X113894951Y-78702199D01*
X113798444Y-78891605D01*
X113732753Y-79093780D01*
X113699500Y-79303733D01*
X113699500Y-79516306D01*
X113732753Y-79726259D01*
X113798444Y-79928434D01*
X113894951Y-80117840D01*
X114019890Y-80289806D01*
X114170213Y-80440129D01*
X114342182Y-80565070D01*
X114350946Y-80569536D01*
X114401742Y-80617511D01*
X114418536Y-80685332D01*
X114395998Y-80751467D01*
X114350946Y-80790504D01*
X114342182Y-80794969D01*
X114170213Y-80919910D01*
X114019890Y-81070233D01*
X113894951Y-81242199D01*
X113798444Y-81431605D01*
X113732753Y-81633780D01*
X113699500Y-81843733D01*
X113699500Y-82056306D01*
X113732753Y-82266259D01*
X113798444Y-82468434D01*
X113894951Y-82657840D01*
X114019890Y-82829806D01*
X114170213Y-82980129D01*
X114342182Y-83105070D01*
X114350946Y-83109536D01*
X114401742Y-83157511D01*
X114418536Y-83225332D01*
X114395998Y-83291467D01*
X114350946Y-83330504D01*
X114342182Y-83334969D01*
X114170213Y-83459910D01*
X114019890Y-83610233D01*
X113894951Y-83782199D01*
X113798444Y-83971605D01*
X113732753Y-84173780D01*
X113699500Y-84383733D01*
X113699500Y-84596306D01*
X113732753Y-84806259D01*
X113798444Y-85008434D01*
X113894951Y-85197840D01*
X114019890Y-85369806D01*
X114170213Y-85520129D01*
X114342182Y-85645070D01*
X114350946Y-85649536D01*
X114401742Y-85697511D01*
X114418536Y-85765332D01*
X114395998Y-85831467D01*
X114350946Y-85870504D01*
X114342182Y-85874969D01*
X114170213Y-85999910D01*
X114019890Y-86150233D01*
X113894951Y-86322199D01*
X113798444Y-86511605D01*
X113732753Y-86713780D01*
X113699500Y-86923733D01*
X113699500Y-87136306D01*
X113732753Y-87346259D01*
X113732753Y-87346261D01*
X113732754Y-87346263D01*
X113787431Y-87514542D01*
X113798444Y-87548434D01*
X113894951Y-87737840D01*
X114019890Y-87909806D01*
X114170213Y-88060129D01*
X114342182Y-88185070D01*
X114350946Y-88189536D01*
X114401742Y-88237511D01*
X114418536Y-88305332D01*
X114395998Y-88371467D01*
X114350946Y-88410504D01*
X114342182Y-88414969D01*
X114170213Y-88539910D01*
X114019890Y-88690233D01*
X113894951Y-88862199D01*
X113798444Y-89051605D01*
X113732753Y-89253780D01*
X113699500Y-89463733D01*
X113699500Y-89676307D01*
X113701590Y-89689500D01*
X113720592Y-89809479D01*
X113732754Y-89886263D01*
X113760321Y-89971106D01*
X113798444Y-90088434D01*
X113894951Y-90277840D01*
X114019890Y-90449806D01*
X114170213Y-90600129D01*
X114342182Y-90725070D01*
X114350946Y-90729536D01*
X114401742Y-90777511D01*
X114418536Y-90845332D01*
X114395998Y-90911467D01*
X114350946Y-90950504D01*
X114342182Y-90954969D01*
X114170213Y-91079910D01*
X114019890Y-91230233D01*
X113894951Y-91402199D01*
X113798444Y-91591605D01*
X113732753Y-91793780D01*
X113699500Y-92003733D01*
X113699500Y-92216306D01*
X113732753Y-92426259D01*
X113798444Y-92628434D01*
X113894951Y-92817840D01*
X114019890Y-92989806D01*
X114170213Y-93140129D01*
X114342182Y-93265070D01*
X114350946Y-93269536D01*
X114401742Y-93317511D01*
X114418536Y-93385332D01*
X114395998Y-93451467D01*
X114350946Y-93490504D01*
X114342182Y-93494969D01*
X114170213Y-93619910D01*
X114019890Y-93770233D01*
X113894951Y-93942199D01*
X113798444Y-94131605D01*
X113732753Y-94333780D01*
X113699500Y-94543733D01*
X113699500Y-94756306D01*
X113732753Y-94966259D01*
X113732753Y-94966261D01*
X113732754Y-94966263D01*
X113797718Y-95166202D01*
X113798444Y-95168434D01*
X113894951Y-95357840D01*
X114019890Y-95529806D01*
X114170213Y-95680129D01*
X114342182Y-95805070D01*
X114350946Y-95809536D01*
X114401742Y-95857511D01*
X114418536Y-95925332D01*
X114395998Y-95991467D01*
X114350946Y-96030504D01*
X114342182Y-96034969D01*
X114170213Y-96159910D01*
X114019890Y-96310233D01*
X113894951Y-96482199D01*
X113798444Y-96671605D01*
X113732753Y-96873780D01*
X113699500Y-97083733D01*
X113699500Y-97296306D01*
X113730194Y-97490104D01*
X113732754Y-97506263D01*
X113785158Y-97667546D01*
X113798444Y-97708434D01*
X113844704Y-97799225D01*
X113857600Y-97867895D01*
X113831323Y-97932635D01*
X113774217Y-97972892D01*
X113734219Y-97979520D01*
X113126649Y-97979520D01*
X113126633Y-97979519D01*
X113119037Y-97979519D01*
X112960923Y-97979519D01*
X112808195Y-98020443D01*
X112808194Y-98020443D01*
X112808192Y-98020444D01*
X112777876Y-98037948D01*
X112777874Y-98037949D01*
X112671267Y-98099497D01*
X112565337Y-98205427D01*
X112504014Y-98238911D01*
X112501848Y-98239362D01*
X112346508Y-98270261D01*
X112346498Y-98270264D01*
X112200827Y-98330602D01*
X112200814Y-98330609D01*
X112069711Y-98418210D01*
X112069707Y-98418213D01*
X111958213Y-98529707D01*
X111958210Y-98529711D01*
X111870609Y-98660814D01*
X111870602Y-98660827D01*
X111810264Y-98806498D01*
X111810261Y-98806510D01*
X111779500Y-98961153D01*
X111779500Y-99118846D01*
X111810261Y-99273489D01*
X111810264Y-99273501D01*
X111870602Y-99419172D01*
X111870609Y-99419185D01*
X111958210Y-99550288D01*
X111958213Y-99550292D01*
X111965260Y-99557339D01*
X111998745Y-99618662D01*
X111993761Y-99688354D01*
X111965260Y-99732701D01*
X110913445Y-100784518D01*
X110852122Y-100818003D01*
X110849956Y-100818454D01*
X110694614Y-100849354D01*
X110694604Y-100849357D01*
X110548933Y-100909695D01*
X110548920Y-100909702D01*
X110417817Y-100997303D01*
X110417813Y-100997306D01*
X110306319Y-101108800D01*
X110306316Y-101108804D01*
X110218715Y-101239907D01*
X110218708Y-101239920D01*
X110158370Y-101385591D01*
X110158367Y-101385603D01*
X110127606Y-101540246D01*
X109740500Y-101540246D01*
X109740500Y-60732155D01*
X113699500Y-60732155D01*
X113699500Y-62527890D01*
X113699501Y-62527896D01*
X113705908Y-62587503D01*
X113756202Y-62722348D01*
X113756206Y-62722355D01*
X113842452Y-62837564D01*
X113842455Y-62837567D01*
X113957664Y-62923813D01*
X113957671Y-62923817D01*
X114092517Y-62974111D01*
X114092516Y-62974111D01*
X114099444Y-62974855D01*
X114152127Y-62980520D01*
X115947872Y-62980519D01*
X116007483Y-62974111D01*
X116142331Y-62923816D01*
X116257546Y-62837566D01*
X116343796Y-62722351D01*
X116392810Y-62590936D01*
X116434681Y-62535004D01*
X116500145Y-62510586D01*
X116568418Y-62525437D01*
X116596673Y-62546589D01*
X116710213Y-62660129D01*
X116882179Y-62785068D01*
X116882181Y-62785069D01*
X116882184Y-62785071D01*
X117071588Y-62881577D01*
X117273757Y-62947266D01*
X117483713Y-62980520D01*
X117483714Y-62980520D01*
X117696286Y-62980520D01*
X117696287Y-62980520D01*
X117906243Y-62947266D01*
X118108412Y-62881577D01*
X118297816Y-62785071D01*
X118384138Y-62722355D01*
X118469786Y-62660129D01*
X118469788Y-62660126D01*
X118469792Y-62660124D01*
X118620104Y-62509812D01*
X118620106Y-62509808D01*
X118620109Y-62509806D01*
X118745048Y-62337840D01*
X118745047Y-62337840D01*
X118745051Y-62337836D01*
X118841557Y-62148432D01*
X118907246Y-61946263D01*
X118940500Y-61736307D01*
X118940500Y-61523733D01*
X118907246Y-61313777D01*
X118841557Y-61111608D01*
X118745051Y-60922204D01*
X118745049Y-60922201D01*
X118745048Y-60922199D01*
X118620109Y-60750233D01*
X118469786Y-60599910D01*
X118297820Y-60474971D01*
X118108414Y-60378464D01*
X118108413Y-60378463D01*
X118108412Y-60378463D01*
X117906243Y-60312774D01*
X117906241Y-60312773D01*
X117906240Y-60312773D01*
X117744957Y-60287228D01*
X117696287Y-60279520D01*
X117483713Y-60279520D01*
X117435042Y-60287228D01*
X117273760Y-60312773D01*
X117071585Y-60378464D01*
X116882179Y-60474971D01*
X116710215Y-60599909D01*
X116596673Y-60713451D01*
X116535350Y-60746935D01*
X116465658Y-60741951D01*
X116409725Y-60700079D01*
X116392810Y-60669102D01*
X116343797Y-60537691D01*
X116343793Y-60537684D01*
X116257547Y-60422475D01*
X116257544Y-60422472D01*
X116142335Y-60336226D01*
X116142328Y-60336222D01*
X116007482Y-60285928D01*
X116007483Y-60285928D01*
X115947883Y-60279521D01*
X115947881Y-60279520D01*
X115947873Y-60279520D01*
X115947864Y-60279520D01*
X114152129Y-60279520D01*
X114152123Y-60279521D01*
X114092516Y-60285928D01*
X113957671Y-60336222D01*
X113957664Y-60336226D01*
X113842455Y-60422472D01*
X113842452Y-60422475D01*
X113756206Y-60537684D01*
X113756202Y-60537691D01*
X113705908Y-60672537D01*
X113699501Y-60732136D01*
X113699500Y-60732155D01*
X109740500Y-60732155D01*
X109740500Y-58846959D01*
X109741280Y-58833077D01*
X109741320Y-58832717D01*
X109751459Y-58742727D01*
X109757635Y-58715668D01*
X109785353Y-58636457D01*
X109797393Y-58611453D01*
X109842046Y-58540389D01*
X109859351Y-58518690D01*
X109918690Y-58459351D01*
X109940389Y-58442046D01*
X110011453Y-58397393D01*
X110036457Y-58385353D01*
X110115668Y-58357635D01*
X110142729Y-58351459D01*
X110218753Y-58342893D01*
X110233078Y-58341280D01*
X110246960Y-58340500D01*
X110305892Y-58340500D01*
X131544108Y-58340500D01*
X131603040Y-58340500D01*
X131616922Y-58341280D01*
G37*
%TD.AperFunction*%
%TD*%
M02*
