%TF.GenerationSoftware,KiCad,Pcbnew,10.0.1*%
%TF.CreationDate,2026-05-18T15:35:15+09:00*%
%TF.ProjectId,ez_usb_cyclone10,657a5f75-7362-45f6-9379-636c6f6e6531,rev?*%
%TF.SameCoordinates,Original*%
%TF.FileFunction,Legend,Bot*%
%TF.FilePolarity,Positive*%
%FSLAX46Y46*%
G04 Gerber Fmt 4.6, Leading zero omitted, Abs format (unit mm)*
G04 Created by KiCad (PCBNEW 10.0.1) date 2026-05-18 15:35:15*
%MOMM*%
%LPD*%
G01*
G04 APERTURE LIST*
%ADD10C,0.100000*%
%ADD11C,0.200000*%
G04 APERTURE END LIST*
D10*
X130536591Y-116780249D02*
X130574687Y-116818345D01*
X130574687Y-116818345D02*
X130688972Y-116856440D01*
X130688972Y-116856440D02*
X130765163Y-116856440D01*
X130765163Y-116856440D02*
X130879449Y-116818345D01*
X130879449Y-116818345D02*
X130955639Y-116742154D01*
X130955639Y-116742154D02*
X130993734Y-116665964D01*
X130993734Y-116665964D02*
X131031830Y-116513583D01*
X131031830Y-116513583D02*
X131031830Y-116399297D01*
X131031830Y-116399297D02*
X130993734Y-116246916D01*
X130993734Y-116246916D02*
X130955639Y-116170725D01*
X130955639Y-116170725D02*
X130879449Y-116094535D01*
X130879449Y-116094535D02*
X130765163Y-116056440D01*
X130765163Y-116056440D02*
X130688972Y-116056440D01*
X130688972Y-116056440D02*
X130574687Y-116094535D01*
X130574687Y-116094535D02*
X130536591Y-116132630D01*
X130269925Y-116323106D02*
X130079449Y-116856440D01*
X129888972Y-116323106D02*
X130079449Y-116856440D01*
X130079449Y-116856440D02*
X130155639Y-117046916D01*
X130155639Y-117046916D02*
X130193734Y-117085011D01*
X130193734Y-117085011D02*
X130269925Y-117123106D01*
X129241353Y-116818345D02*
X129317544Y-116856440D01*
X129317544Y-116856440D02*
X129469925Y-116856440D01*
X129469925Y-116856440D02*
X129546115Y-116818345D01*
X129546115Y-116818345D02*
X129584210Y-116780249D01*
X129584210Y-116780249D02*
X129622306Y-116704059D01*
X129622306Y-116704059D02*
X129622306Y-116475487D01*
X129622306Y-116475487D02*
X129584210Y-116399297D01*
X129584210Y-116399297D02*
X129546115Y-116361202D01*
X129546115Y-116361202D02*
X129469925Y-116323106D01*
X129469925Y-116323106D02*
X129317544Y-116323106D01*
X129317544Y-116323106D02*
X129241353Y-116361202D01*
X128784211Y-116856440D02*
X128860401Y-116818345D01*
X128860401Y-116818345D02*
X128898496Y-116742154D01*
X128898496Y-116742154D02*
X128898496Y-116056440D01*
X128365163Y-116856440D02*
X128441353Y-116818345D01*
X128441353Y-116818345D02*
X128479448Y-116780249D01*
X128479448Y-116780249D02*
X128517544Y-116704059D01*
X128517544Y-116704059D02*
X128517544Y-116475487D01*
X128517544Y-116475487D02*
X128479448Y-116399297D01*
X128479448Y-116399297D02*
X128441353Y-116361202D01*
X128441353Y-116361202D02*
X128365163Y-116323106D01*
X128365163Y-116323106D02*
X128250877Y-116323106D01*
X128250877Y-116323106D02*
X128174686Y-116361202D01*
X128174686Y-116361202D02*
X128136591Y-116399297D01*
X128136591Y-116399297D02*
X128098496Y-116475487D01*
X128098496Y-116475487D02*
X128098496Y-116704059D01*
X128098496Y-116704059D02*
X128136591Y-116780249D01*
X128136591Y-116780249D02*
X128174686Y-116818345D01*
X128174686Y-116818345D02*
X128250877Y-116856440D01*
X128250877Y-116856440D02*
X128365163Y-116856440D01*
X127755638Y-116323106D02*
X127755638Y-116856440D01*
X127755638Y-116399297D02*
X127717543Y-116361202D01*
X127717543Y-116361202D02*
X127641353Y-116323106D01*
X127641353Y-116323106D02*
X127527067Y-116323106D01*
X127527067Y-116323106D02*
X127450876Y-116361202D01*
X127450876Y-116361202D02*
X127412781Y-116437392D01*
X127412781Y-116437392D02*
X127412781Y-116856440D01*
X126727066Y-116818345D02*
X126803257Y-116856440D01*
X126803257Y-116856440D02*
X126955638Y-116856440D01*
X126955638Y-116856440D02*
X127031828Y-116818345D01*
X127031828Y-116818345D02*
X127069924Y-116742154D01*
X127069924Y-116742154D02*
X127069924Y-116437392D01*
X127069924Y-116437392D02*
X127031828Y-116361202D01*
X127031828Y-116361202D02*
X126955638Y-116323106D01*
X126955638Y-116323106D02*
X126803257Y-116323106D01*
X126803257Y-116323106D02*
X126727066Y-116361202D01*
X126727066Y-116361202D02*
X126688971Y-116437392D01*
X126688971Y-116437392D02*
X126688971Y-116513583D01*
X126688971Y-116513583D02*
X127069924Y-116589773D01*
X125927067Y-116856440D02*
X126384210Y-116856440D01*
X126155638Y-116856440D02*
X126155638Y-116056440D01*
X126155638Y-116056440D02*
X126231829Y-116170725D01*
X126231829Y-116170725D02*
X126308019Y-116246916D01*
X126308019Y-116246916D02*
X126384210Y-116285011D01*
X125431828Y-116056440D02*
X125355638Y-116056440D01*
X125355638Y-116056440D02*
X125279447Y-116094535D01*
X125279447Y-116094535D02*
X125241352Y-116132630D01*
X125241352Y-116132630D02*
X125203257Y-116208821D01*
X125203257Y-116208821D02*
X125165162Y-116361202D01*
X125165162Y-116361202D02*
X125165162Y-116551678D01*
X125165162Y-116551678D02*
X125203257Y-116704059D01*
X125203257Y-116704059D02*
X125241352Y-116780249D01*
X125241352Y-116780249D02*
X125279447Y-116818345D01*
X125279447Y-116818345D02*
X125355638Y-116856440D01*
X125355638Y-116856440D02*
X125431828Y-116856440D01*
X125431828Y-116856440D02*
X125508019Y-116818345D01*
X125508019Y-116818345D02*
X125546114Y-116780249D01*
X125546114Y-116780249D02*
X125584209Y-116704059D01*
X125584209Y-116704059D02*
X125622305Y-116551678D01*
X125622305Y-116551678D02*
X125622305Y-116361202D01*
X125622305Y-116361202D02*
X125584209Y-116208821D01*
X125584209Y-116208821D02*
X125546114Y-116132630D01*
X125546114Y-116132630D02*
X125508019Y-116094535D01*
X125508019Y-116094535D02*
X125431828Y-116056440D01*
X124212780Y-116437392D02*
X123946114Y-116437392D01*
X123831828Y-116856440D02*
X124212780Y-116856440D01*
X124212780Y-116856440D02*
X124212780Y-116056440D01*
X124212780Y-116056440D02*
X123831828Y-116056440D01*
X123565161Y-116056440D02*
X123031827Y-116056440D01*
X123031827Y-116056440D02*
X123565161Y-116856440D01*
X123565161Y-116856440D02*
X123031827Y-116856440D01*
X122727065Y-116551678D02*
X122117542Y-116551678D01*
X121736589Y-116056440D02*
X121736589Y-116704059D01*
X121736589Y-116704059D02*
X121698494Y-116780249D01*
X121698494Y-116780249D02*
X121660399Y-116818345D01*
X121660399Y-116818345D02*
X121584208Y-116856440D01*
X121584208Y-116856440D02*
X121431827Y-116856440D01*
X121431827Y-116856440D02*
X121355637Y-116818345D01*
X121355637Y-116818345D02*
X121317542Y-116780249D01*
X121317542Y-116780249D02*
X121279446Y-116704059D01*
X121279446Y-116704059D02*
X121279446Y-116056440D01*
X120936590Y-116818345D02*
X120822304Y-116856440D01*
X120822304Y-116856440D02*
X120631828Y-116856440D01*
X120631828Y-116856440D02*
X120555637Y-116818345D01*
X120555637Y-116818345D02*
X120517542Y-116780249D01*
X120517542Y-116780249D02*
X120479447Y-116704059D01*
X120479447Y-116704059D02*
X120479447Y-116627868D01*
X120479447Y-116627868D02*
X120517542Y-116551678D01*
X120517542Y-116551678D02*
X120555637Y-116513583D01*
X120555637Y-116513583D02*
X120631828Y-116475487D01*
X120631828Y-116475487D02*
X120784209Y-116437392D01*
X120784209Y-116437392D02*
X120860399Y-116399297D01*
X120860399Y-116399297D02*
X120898494Y-116361202D01*
X120898494Y-116361202D02*
X120936590Y-116285011D01*
X120936590Y-116285011D02*
X120936590Y-116208821D01*
X120936590Y-116208821D02*
X120898494Y-116132630D01*
X120898494Y-116132630D02*
X120860399Y-116094535D01*
X120860399Y-116094535D02*
X120784209Y-116056440D01*
X120784209Y-116056440D02*
X120593732Y-116056440D01*
X120593732Y-116056440D02*
X120479447Y-116094535D01*
X119869923Y-116437392D02*
X119755637Y-116475487D01*
X119755637Y-116475487D02*
X119717542Y-116513583D01*
X119717542Y-116513583D02*
X119679446Y-116589773D01*
X119679446Y-116589773D02*
X119679446Y-116704059D01*
X119679446Y-116704059D02*
X119717542Y-116780249D01*
X119717542Y-116780249D02*
X119755637Y-116818345D01*
X119755637Y-116818345D02*
X119831827Y-116856440D01*
X119831827Y-116856440D02*
X120136589Y-116856440D01*
X120136589Y-116856440D02*
X120136589Y-116056440D01*
X120136589Y-116056440D02*
X119869923Y-116056440D01*
X119869923Y-116056440D02*
X119793732Y-116094535D01*
X119793732Y-116094535D02*
X119755637Y-116132630D01*
X119755637Y-116132630D02*
X119717542Y-116208821D01*
X119717542Y-116208821D02*
X119717542Y-116285011D01*
X119717542Y-116285011D02*
X119755637Y-116361202D01*
X119755637Y-116361202D02*
X119793732Y-116399297D01*
X119793732Y-116399297D02*
X119869923Y-116437392D01*
X119869923Y-116437392D02*
X120136589Y-116437392D01*
X130536591Y-118068204D02*
X130574687Y-118106300D01*
X130574687Y-118106300D02*
X130688972Y-118144395D01*
X130688972Y-118144395D02*
X130765163Y-118144395D01*
X130765163Y-118144395D02*
X130879449Y-118106300D01*
X130879449Y-118106300D02*
X130955639Y-118030109D01*
X130955639Y-118030109D02*
X130993734Y-117953919D01*
X130993734Y-117953919D02*
X131031830Y-117801538D01*
X131031830Y-117801538D02*
X131031830Y-117687252D01*
X131031830Y-117687252D02*
X130993734Y-117534871D01*
X130993734Y-117534871D02*
X130955639Y-117458680D01*
X130955639Y-117458680D02*
X130879449Y-117382490D01*
X130879449Y-117382490D02*
X130765163Y-117344395D01*
X130765163Y-117344395D02*
X130688972Y-117344395D01*
X130688972Y-117344395D02*
X130574687Y-117382490D01*
X130574687Y-117382490D02*
X130536591Y-117420585D01*
X130079449Y-118144395D02*
X130155639Y-118106300D01*
X130155639Y-118106300D02*
X130193734Y-118068204D01*
X130193734Y-118068204D02*
X130231830Y-117992014D01*
X130231830Y-117992014D02*
X130231830Y-117763442D01*
X130231830Y-117763442D02*
X130193734Y-117687252D01*
X130193734Y-117687252D02*
X130155639Y-117649157D01*
X130155639Y-117649157D02*
X130079449Y-117611061D01*
X130079449Y-117611061D02*
X129965163Y-117611061D01*
X129965163Y-117611061D02*
X129888972Y-117649157D01*
X129888972Y-117649157D02*
X129850877Y-117687252D01*
X129850877Y-117687252D02*
X129812782Y-117763442D01*
X129812782Y-117763442D02*
X129812782Y-117992014D01*
X129812782Y-117992014D02*
X129850877Y-118068204D01*
X129850877Y-118068204D02*
X129888972Y-118106300D01*
X129888972Y-118106300D02*
X129965163Y-118144395D01*
X129965163Y-118144395D02*
X130079449Y-118144395D01*
X129469924Y-117611061D02*
X129469924Y-118144395D01*
X129469924Y-117687252D02*
X129431829Y-117649157D01*
X129431829Y-117649157D02*
X129355639Y-117611061D01*
X129355639Y-117611061D02*
X129241353Y-117611061D01*
X129241353Y-117611061D02*
X129165162Y-117649157D01*
X129165162Y-117649157D02*
X129127067Y-117725347D01*
X129127067Y-117725347D02*
X129127067Y-118144395D01*
X128746114Y-117611061D02*
X128746114Y-118144395D01*
X128746114Y-117687252D02*
X128708019Y-117649157D01*
X128708019Y-117649157D02*
X128631829Y-117611061D01*
X128631829Y-117611061D02*
X128517543Y-117611061D01*
X128517543Y-117611061D02*
X128441352Y-117649157D01*
X128441352Y-117649157D02*
X128403257Y-117725347D01*
X128403257Y-117725347D02*
X128403257Y-118144395D01*
X127717542Y-118106300D02*
X127793733Y-118144395D01*
X127793733Y-118144395D02*
X127946114Y-118144395D01*
X127946114Y-118144395D02*
X128022304Y-118106300D01*
X128022304Y-118106300D02*
X128060400Y-118030109D01*
X128060400Y-118030109D02*
X128060400Y-117725347D01*
X128060400Y-117725347D02*
X128022304Y-117649157D01*
X128022304Y-117649157D02*
X127946114Y-117611061D01*
X127946114Y-117611061D02*
X127793733Y-117611061D01*
X127793733Y-117611061D02*
X127717542Y-117649157D01*
X127717542Y-117649157D02*
X127679447Y-117725347D01*
X127679447Y-117725347D02*
X127679447Y-117801538D01*
X127679447Y-117801538D02*
X128060400Y-117877728D01*
X126993733Y-118106300D02*
X127069924Y-118144395D01*
X127069924Y-118144395D02*
X127222305Y-118144395D01*
X127222305Y-118144395D02*
X127298495Y-118106300D01*
X127298495Y-118106300D02*
X127336590Y-118068204D01*
X127336590Y-118068204D02*
X127374686Y-117992014D01*
X127374686Y-117992014D02*
X127374686Y-117763442D01*
X127374686Y-117763442D02*
X127336590Y-117687252D01*
X127336590Y-117687252D02*
X127298495Y-117649157D01*
X127298495Y-117649157D02*
X127222305Y-117611061D01*
X127222305Y-117611061D02*
X127069924Y-117611061D01*
X127069924Y-117611061D02*
X126993733Y-117649157D01*
X126765162Y-117611061D02*
X126460400Y-117611061D01*
X126650876Y-117344395D02*
X126650876Y-118030109D01*
X126650876Y-118030109D02*
X126612781Y-118106300D01*
X126612781Y-118106300D02*
X126536591Y-118144395D01*
X126536591Y-118144395D02*
X126460400Y-118144395D01*
X126079448Y-118144395D02*
X126155638Y-118106300D01*
X126155638Y-118106300D02*
X126193733Y-118068204D01*
X126193733Y-118068204D02*
X126231829Y-117992014D01*
X126231829Y-117992014D02*
X126231829Y-117763442D01*
X126231829Y-117763442D02*
X126193733Y-117687252D01*
X126193733Y-117687252D02*
X126155638Y-117649157D01*
X126155638Y-117649157D02*
X126079448Y-117611061D01*
X126079448Y-117611061D02*
X125965162Y-117611061D01*
X125965162Y-117611061D02*
X125888971Y-117649157D01*
X125888971Y-117649157D02*
X125850876Y-117687252D01*
X125850876Y-117687252D02*
X125812781Y-117763442D01*
X125812781Y-117763442D02*
X125812781Y-117992014D01*
X125812781Y-117992014D02*
X125850876Y-118068204D01*
X125850876Y-118068204D02*
X125888971Y-118106300D01*
X125888971Y-118106300D02*
X125965162Y-118144395D01*
X125965162Y-118144395D02*
X126079448Y-118144395D01*
X125469923Y-118144395D02*
X125469923Y-117611061D01*
X125469923Y-117763442D02*
X125431828Y-117687252D01*
X125431828Y-117687252D02*
X125393733Y-117649157D01*
X125393733Y-117649157D02*
X125317542Y-117611061D01*
X125317542Y-117611061D02*
X125241352Y-117611061D01*
X130536591Y-119748940D02*
X130803258Y-119367987D01*
X130993734Y-119748940D02*
X130993734Y-118948940D01*
X130993734Y-118948940D02*
X130688972Y-118948940D01*
X130688972Y-118948940D02*
X130612782Y-118987035D01*
X130612782Y-118987035D02*
X130574687Y-119025130D01*
X130574687Y-119025130D02*
X130536591Y-119101321D01*
X130536591Y-119101321D02*
X130536591Y-119215606D01*
X130536591Y-119215606D02*
X130574687Y-119291797D01*
X130574687Y-119291797D02*
X130612782Y-119329892D01*
X130612782Y-119329892D02*
X130688972Y-119367987D01*
X130688972Y-119367987D02*
X130993734Y-119367987D01*
X129888972Y-119710845D02*
X129965163Y-119748940D01*
X129965163Y-119748940D02*
X130117544Y-119748940D01*
X130117544Y-119748940D02*
X130193734Y-119710845D01*
X130193734Y-119710845D02*
X130231830Y-119634654D01*
X130231830Y-119634654D02*
X130231830Y-119329892D01*
X130231830Y-119329892D02*
X130193734Y-119253702D01*
X130193734Y-119253702D02*
X130117544Y-119215606D01*
X130117544Y-119215606D02*
X129965163Y-119215606D01*
X129965163Y-119215606D02*
X129888972Y-119253702D01*
X129888972Y-119253702D02*
X129850877Y-119329892D01*
X129850877Y-119329892D02*
X129850877Y-119406083D01*
X129850877Y-119406083D02*
X130231830Y-119482273D01*
X129584211Y-119215606D02*
X129393735Y-119748940D01*
X129393735Y-119748940D02*
X129203258Y-119215606D01*
X128898496Y-119672749D02*
X128860401Y-119710845D01*
X128860401Y-119710845D02*
X128898496Y-119748940D01*
X128898496Y-119748940D02*
X128936592Y-119710845D01*
X128936592Y-119710845D02*
X128898496Y-119672749D01*
X128898496Y-119672749D02*
X128898496Y-119748940D01*
X127450877Y-119672749D02*
X127488973Y-119710845D01*
X127488973Y-119710845D02*
X127603258Y-119748940D01*
X127603258Y-119748940D02*
X127679449Y-119748940D01*
X127679449Y-119748940D02*
X127793735Y-119710845D01*
X127793735Y-119710845D02*
X127869925Y-119634654D01*
X127869925Y-119634654D02*
X127908020Y-119558464D01*
X127908020Y-119558464D02*
X127946116Y-119406083D01*
X127946116Y-119406083D02*
X127946116Y-119291797D01*
X127946116Y-119291797D02*
X127908020Y-119139416D01*
X127908020Y-119139416D02*
X127869925Y-119063225D01*
X127869925Y-119063225D02*
X127793735Y-118987035D01*
X127793735Y-118987035D02*
X127679449Y-118948940D01*
X127679449Y-118948940D02*
X127603258Y-118948940D01*
X127603258Y-118948940D02*
X127488973Y-118987035D01*
X127488973Y-118987035D02*
X127450877Y-119025130D01*
X126765163Y-119748940D02*
X126765163Y-119329892D01*
X126765163Y-119329892D02*
X126803258Y-119253702D01*
X126803258Y-119253702D02*
X126879449Y-119215606D01*
X126879449Y-119215606D02*
X127031830Y-119215606D01*
X127031830Y-119215606D02*
X127108020Y-119253702D01*
X126765163Y-119710845D02*
X126841354Y-119748940D01*
X126841354Y-119748940D02*
X127031830Y-119748940D01*
X127031830Y-119748940D02*
X127108020Y-119710845D01*
X127108020Y-119710845D02*
X127146116Y-119634654D01*
X127146116Y-119634654D02*
X127146116Y-119558464D01*
X127146116Y-119558464D02*
X127108020Y-119482273D01*
X127108020Y-119482273D02*
X127031830Y-119444178D01*
X127031830Y-119444178D02*
X126841354Y-119444178D01*
X126841354Y-119444178D02*
X126765163Y-119406083D01*
X126384210Y-119748940D02*
X126384210Y-119215606D01*
X126384210Y-118948940D02*
X126422306Y-118987035D01*
X126422306Y-118987035D02*
X126384210Y-119025130D01*
X126384210Y-119025130D02*
X126346115Y-118987035D01*
X126346115Y-118987035D02*
X126384210Y-118948940D01*
X126384210Y-118948940D02*
X126384210Y-119025130D01*
X126003258Y-119748940D02*
X126003258Y-119215606D01*
X126003258Y-119367987D02*
X125965163Y-119291797D01*
X125965163Y-119291797D02*
X125927068Y-119253702D01*
X125927068Y-119253702D02*
X125850877Y-119215606D01*
X125850877Y-119215606D02*
X125774687Y-119215606D01*
X125393735Y-119748940D02*
X125469925Y-119710845D01*
X125469925Y-119710845D02*
X125508020Y-119672749D01*
X125508020Y-119672749D02*
X125546116Y-119596559D01*
X125546116Y-119596559D02*
X125546116Y-119367987D01*
X125546116Y-119367987D02*
X125508020Y-119291797D01*
X125508020Y-119291797D02*
X125469925Y-119253702D01*
X125469925Y-119253702D02*
X125393735Y-119215606D01*
X125393735Y-119215606D02*
X125279449Y-119215606D01*
X125279449Y-119215606D02*
X125203258Y-119253702D01*
X125203258Y-119253702D02*
X125165163Y-119291797D01*
X125165163Y-119291797D02*
X125127068Y-119367987D01*
X125127068Y-119367987D02*
X125127068Y-119596559D01*
X125127068Y-119596559D02*
X125165163Y-119672749D01*
X125165163Y-119672749D02*
X125203258Y-119710845D01*
X125203258Y-119710845D02*
X125279449Y-119748940D01*
X125279449Y-119748940D02*
X125393735Y-119748940D01*
X130993734Y-121036895D02*
X130993734Y-120236895D01*
X130993734Y-120236895D02*
X130727068Y-120808323D01*
X130727068Y-120808323D02*
X130460401Y-120236895D01*
X130460401Y-120236895D02*
X130460401Y-121036895D01*
X129736591Y-121036895D02*
X129736591Y-120617847D01*
X129736591Y-120617847D02*
X129774686Y-120541657D01*
X129774686Y-120541657D02*
X129850877Y-120503561D01*
X129850877Y-120503561D02*
X130003258Y-120503561D01*
X130003258Y-120503561D02*
X130079448Y-120541657D01*
X129736591Y-120998800D02*
X129812782Y-121036895D01*
X129812782Y-121036895D02*
X130003258Y-121036895D01*
X130003258Y-121036895D02*
X130079448Y-120998800D01*
X130079448Y-120998800D02*
X130117544Y-120922609D01*
X130117544Y-120922609D02*
X130117544Y-120846419D01*
X130117544Y-120846419D02*
X130079448Y-120770228D01*
X130079448Y-120770228D02*
X130003258Y-120732133D01*
X130003258Y-120732133D02*
X129812782Y-120732133D01*
X129812782Y-120732133D02*
X129736591Y-120694038D01*
X129431829Y-120503561D02*
X129241353Y-121036895D01*
X129050876Y-120503561D02*
X129241353Y-121036895D01*
X129241353Y-121036895D02*
X129317543Y-121227371D01*
X129317543Y-121227371D02*
X129355638Y-121265466D01*
X129355638Y-121265466D02*
X129431829Y-121303561D01*
X128174686Y-120198800D02*
X128860400Y-121227371D01*
X127946115Y-120313085D02*
X127908019Y-120274990D01*
X127908019Y-120274990D02*
X127831829Y-120236895D01*
X127831829Y-120236895D02*
X127641353Y-120236895D01*
X127641353Y-120236895D02*
X127565162Y-120274990D01*
X127565162Y-120274990D02*
X127527067Y-120313085D01*
X127527067Y-120313085D02*
X127488972Y-120389276D01*
X127488972Y-120389276D02*
X127488972Y-120465466D01*
X127488972Y-120465466D02*
X127527067Y-120579752D01*
X127527067Y-120579752D02*
X127984210Y-121036895D01*
X127984210Y-121036895D02*
X127488972Y-121036895D01*
X126993733Y-120236895D02*
X126917543Y-120236895D01*
X126917543Y-120236895D02*
X126841352Y-120274990D01*
X126841352Y-120274990D02*
X126803257Y-120313085D01*
X126803257Y-120313085D02*
X126765162Y-120389276D01*
X126765162Y-120389276D02*
X126727067Y-120541657D01*
X126727067Y-120541657D02*
X126727067Y-120732133D01*
X126727067Y-120732133D02*
X126765162Y-120884514D01*
X126765162Y-120884514D02*
X126803257Y-120960704D01*
X126803257Y-120960704D02*
X126841352Y-120998800D01*
X126841352Y-120998800D02*
X126917543Y-121036895D01*
X126917543Y-121036895D02*
X126993733Y-121036895D01*
X126993733Y-121036895D02*
X127069924Y-120998800D01*
X127069924Y-120998800D02*
X127108019Y-120960704D01*
X127108019Y-120960704D02*
X127146114Y-120884514D01*
X127146114Y-120884514D02*
X127184210Y-120732133D01*
X127184210Y-120732133D02*
X127184210Y-120541657D01*
X127184210Y-120541657D02*
X127146114Y-120389276D01*
X127146114Y-120389276D02*
X127108019Y-120313085D01*
X127108019Y-120313085D02*
X127069924Y-120274990D01*
X127069924Y-120274990D02*
X126993733Y-120236895D01*
X126422305Y-120313085D02*
X126384209Y-120274990D01*
X126384209Y-120274990D02*
X126308019Y-120236895D01*
X126308019Y-120236895D02*
X126117543Y-120236895D01*
X126117543Y-120236895D02*
X126041352Y-120274990D01*
X126041352Y-120274990D02*
X126003257Y-120313085D01*
X126003257Y-120313085D02*
X125965162Y-120389276D01*
X125965162Y-120389276D02*
X125965162Y-120465466D01*
X125965162Y-120465466D02*
X126003257Y-120579752D01*
X126003257Y-120579752D02*
X126460400Y-121036895D01*
X126460400Y-121036895D02*
X125965162Y-121036895D01*
X125279447Y-120236895D02*
X125431828Y-120236895D01*
X125431828Y-120236895D02*
X125508019Y-120274990D01*
X125508019Y-120274990D02*
X125546114Y-120313085D01*
X125546114Y-120313085D02*
X125622304Y-120427371D01*
X125622304Y-120427371D02*
X125660400Y-120579752D01*
X125660400Y-120579752D02*
X125660400Y-120884514D01*
X125660400Y-120884514D02*
X125622304Y-120960704D01*
X125622304Y-120960704D02*
X125584209Y-120998800D01*
X125584209Y-120998800D02*
X125508019Y-121036895D01*
X125508019Y-121036895D02*
X125355638Y-121036895D01*
X125355638Y-121036895D02*
X125279447Y-120998800D01*
X125279447Y-120998800D02*
X125241352Y-120960704D01*
X125241352Y-120960704D02*
X125203257Y-120884514D01*
X125203257Y-120884514D02*
X125203257Y-120694038D01*
X125203257Y-120694038D02*
X125241352Y-120617847D01*
X125241352Y-120617847D02*
X125279447Y-120579752D01*
X125279447Y-120579752D02*
X125355638Y-120541657D01*
X125355638Y-120541657D02*
X125508019Y-120541657D01*
X125508019Y-120541657D02*
X125584209Y-120579752D01*
X125584209Y-120579752D02*
X125622304Y-120617847D01*
X125622304Y-120617847D02*
X125660400Y-120694038D01*
D11*
X130761279Y-115137219D02*
X130636279Y-114137219D01*
X130636279Y-114137219D02*
X130392231Y-114851504D01*
X130392231Y-114851504D02*
X129969612Y-114137219D01*
X129969612Y-114137219D02*
X130094612Y-115137219D01*
X129219612Y-114613409D02*
X129082707Y-114661028D01*
X129082707Y-114661028D02*
X129041041Y-114708647D01*
X129041041Y-114708647D02*
X129005326Y-114803885D01*
X129005326Y-114803885D02*
X129023184Y-114946742D01*
X129023184Y-114946742D02*
X129082707Y-115041980D01*
X129082707Y-115041980D02*
X129136279Y-115089600D01*
X129136279Y-115089600D02*
X129237469Y-115137219D01*
X129237469Y-115137219D02*
X129618422Y-115137219D01*
X129618422Y-115137219D02*
X129493422Y-114137219D01*
X129493422Y-114137219D02*
X129160088Y-114137219D01*
X129160088Y-114137219D02*
X129070803Y-114184838D01*
X129070803Y-114184838D02*
X129029136Y-114232457D01*
X129029136Y-114232457D02*
X128993422Y-114327695D01*
X128993422Y-114327695D02*
X129005326Y-114422933D01*
X129005326Y-114422933D02*
X129064850Y-114518171D01*
X129064850Y-114518171D02*
X129118422Y-114565790D01*
X129118422Y-114565790D02*
X129219612Y-114613409D01*
X129219612Y-114613409D02*
X129552945Y-114613409D01*
X128660088Y-115089600D02*
X128523184Y-115137219D01*
X128523184Y-115137219D02*
X128285088Y-115137219D01*
X128285088Y-115137219D02*
X128183898Y-115089600D01*
X128183898Y-115089600D02*
X128130326Y-115041980D01*
X128130326Y-115041980D02*
X128070803Y-114946742D01*
X128070803Y-114946742D02*
X128058898Y-114851504D01*
X128058898Y-114851504D02*
X128094612Y-114756266D01*
X128094612Y-114756266D02*
X128136279Y-114708647D01*
X128136279Y-114708647D02*
X128225565Y-114661028D01*
X128225565Y-114661028D02*
X128410088Y-114613409D01*
X128410088Y-114613409D02*
X128499374Y-114565790D01*
X128499374Y-114565790D02*
X128541041Y-114518171D01*
X128541041Y-114518171D02*
X128576755Y-114422933D01*
X128576755Y-114422933D02*
X128564850Y-114327695D01*
X128564850Y-114327695D02*
X128505326Y-114232457D01*
X128505326Y-114232457D02*
X128451755Y-114184838D01*
X128451755Y-114184838D02*
X128350565Y-114137219D01*
X128350565Y-114137219D02*
X128112469Y-114137219D01*
X128112469Y-114137219D02*
X127975565Y-114184838D01*
X126320802Y-115041980D02*
X126374374Y-115089600D01*
X126374374Y-115089600D02*
X126523183Y-115137219D01*
X126523183Y-115137219D02*
X126618421Y-115137219D01*
X126618421Y-115137219D02*
X126755326Y-115089600D01*
X126755326Y-115089600D02*
X126838659Y-114994361D01*
X126838659Y-114994361D02*
X126874374Y-114899123D01*
X126874374Y-114899123D02*
X126898183Y-114708647D01*
X126898183Y-114708647D02*
X126880326Y-114565790D01*
X126880326Y-114565790D02*
X126808898Y-114375314D01*
X126808898Y-114375314D02*
X126749374Y-114280076D01*
X126749374Y-114280076D02*
X126642231Y-114184838D01*
X126642231Y-114184838D02*
X126493421Y-114137219D01*
X126493421Y-114137219D02*
X126398183Y-114137219D01*
X126398183Y-114137219D02*
X126261279Y-114184838D01*
X126261279Y-114184838D02*
X126219612Y-114232457D01*
X125427945Y-115137219D02*
X125904136Y-115137219D01*
X125904136Y-115137219D02*
X125779136Y-114137219D01*
X124666040Y-115137219D02*
X124600564Y-114613409D01*
X124600564Y-114613409D02*
X124636278Y-114518171D01*
X124636278Y-114518171D02*
X124725564Y-114470552D01*
X124725564Y-114470552D02*
X124916040Y-114470552D01*
X124916040Y-114470552D02*
X125017231Y-114518171D01*
X124660088Y-115089600D02*
X124761278Y-115137219D01*
X124761278Y-115137219D02*
X124999374Y-115137219D01*
X124999374Y-115137219D02*
X125088659Y-115089600D01*
X125088659Y-115089600D02*
X125124374Y-114994361D01*
X125124374Y-114994361D02*
X125112469Y-114899123D01*
X125112469Y-114899123D02*
X125052945Y-114803885D01*
X125052945Y-114803885D02*
X124951755Y-114756266D01*
X124951755Y-114756266D02*
X124713659Y-114756266D01*
X124713659Y-114756266D02*
X124612469Y-114708647D01*
X124231516Y-115089600D02*
X124142231Y-115137219D01*
X124142231Y-115137219D02*
X123951754Y-115137219D01*
X123951754Y-115137219D02*
X123850564Y-115089600D01*
X123850564Y-115089600D02*
X123791040Y-114994361D01*
X123791040Y-114994361D02*
X123785088Y-114946742D01*
X123785088Y-114946742D02*
X123820802Y-114851504D01*
X123820802Y-114851504D02*
X123910088Y-114803885D01*
X123910088Y-114803885D02*
X124052945Y-114803885D01*
X124052945Y-114803885D02*
X124142231Y-114756266D01*
X124142231Y-114756266D02*
X124177945Y-114661028D01*
X124177945Y-114661028D02*
X124171993Y-114613409D01*
X124171993Y-114613409D02*
X124112469Y-114518171D01*
X124112469Y-114518171D02*
X124011278Y-114470552D01*
X124011278Y-114470552D02*
X123868421Y-114470552D01*
X123868421Y-114470552D02*
X123779135Y-114518171D01*
X123421992Y-115089600D02*
X123332707Y-115137219D01*
X123332707Y-115137219D02*
X123142230Y-115137219D01*
X123142230Y-115137219D02*
X123041040Y-115089600D01*
X123041040Y-115089600D02*
X122981516Y-114994361D01*
X122981516Y-114994361D02*
X122975564Y-114946742D01*
X122975564Y-114946742D02*
X123011278Y-114851504D01*
X123011278Y-114851504D02*
X123100564Y-114803885D01*
X123100564Y-114803885D02*
X123243421Y-114803885D01*
X123243421Y-114803885D02*
X123332707Y-114756266D01*
X123332707Y-114756266D02*
X123368421Y-114661028D01*
X123368421Y-114661028D02*
X123362469Y-114613409D01*
X123362469Y-114613409D02*
X123302945Y-114518171D01*
X123302945Y-114518171D02*
X123201754Y-114470552D01*
X123201754Y-114470552D02*
X123058897Y-114470552D01*
X123058897Y-114470552D02*
X122969611Y-114518171D01*
X121892230Y-114661028D02*
X121933897Y-114613409D01*
X121933897Y-114613409D02*
X122023183Y-114565790D01*
X122023183Y-114565790D02*
X122118421Y-114565790D01*
X122118421Y-114565790D02*
X122219611Y-114613409D01*
X122219611Y-114613409D02*
X122273183Y-114661028D01*
X122273183Y-114661028D02*
X122332706Y-114756266D01*
X122332706Y-114756266D02*
X122344611Y-114851504D01*
X122344611Y-114851504D02*
X122308897Y-114946742D01*
X122308897Y-114946742D02*
X122267230Y-114994361D01*
X122267230Y-114994361D02*
X122177945Y-115041980D01*
X122177945Y-115041980D02*
X122082706Y-115041980D01*
X122082706Y-115041980D02*
X121981516Y-114994361D01*
X121981516Y-114994361D02*
X121927945Y-114946742D01*
X121880325Y-114565790D02*
X121927945Y-114946742D01*
X121927945Y-114946742D02*
X121886278Y-114994361D01*
X121886278Y-114994361D02*
X121838659Y-114994361D01*
X121838659Y-114994361D02*
X121737468Y-114946742D01*
X121737468Y-114946742D02*
X121677945Y-114851504D01*
X121677945Y-114851504D02*
X121648183Y-114613409D01*
X121648183Y-114613409D02*
X121725564Y-114470552D01*
X121725564Y-114470552D02*
X121856516Y-114375314D01*
X121856516Y-114375314D02*
X122041040Y-114327695D01*
X122041040Y-114327695D02*
X122237468Y-114375314D01*
X122237468Y-114375314D02*
X122392230Y-114470552D01*
X122392230Y-114470552D02*
X122505325Y-114613409D01*
X122505325Y-114613409D02*
X122576754Y-114803885D01*
X122576754Y-114803885D02*
X122552945Y-114994361D01*
X122552945Y-114994361D02*
X122475564Y-115137219D01*
X122475564Y-115137219D02*
X122344611Y-115232457D01*
X122344611Y-115232457D02*
X122160087Y-115280076D01*
X122160087Y-115280076D02*
X121963659Y-115232457D01*
X121963659Y-115232457D02*
X121808897Y-115137219D01*
M02*
