%TF.GenerationSoftware,KiCad,Pcbnew,10.0.1*%
%TF.CreationDate,2026-05-18T15:35:15+09:00*%
%TF.ProjectId,ez_usb_cyclone10,657a5f75-7362-45f6-9379-636c6f6e6531,rev?*%
%TF.SameCoordinates,Original*%
%TF.FileFunction,Legend,Top*%
%TF.FilePolarity,Positive*%
%FSLAX46Y46*%
G04 Gerber Fmt 4.6, Leading zero omitted, Abs format (unit mm)*
G04 Created by KiCad (PCBNEW 10.0.1) date 2026-05-18 15:35:15*
%MOMM*%
%LPD*%
G01*
G04 APERTURE LIST*
%ADD10C,0.400000*%
%ADD11C,0.150000*%
%ADD12C,0.120000*%
%ADD13C,0.010000*%
G04 APERTURE END LIST*
D10*
X120788871Y-61178914D02*
X121817442Y-61178914D01*
X121078157Y-62978914D02*
X121303157Y-61178914D01*
X122449586Y-62978914D02*
X122288871Y-62893200D01*
X122288871Y-62893200D02*
X122213871Y-62807485D01*
X122213871Y-62807485D02*
X122149586Y-62636057D01*
X122149586Y-62636057D02*
X122213871Y-62121771D01*
X122213871Y-62121771D02*
X122321014Y-61950342D01*
X122321014Y-61950342D02*
X122417443Y-61864628D01*
X122417443Y-61864628D02*
X122599586Y-61778914D01*
X122599586Y-61778914D02*
X122856728Y-61778914D01*
X122856728Y-61778914D02*
X123017443Y-61864628D01*
X123017443Y-61864628D02*
X123092443Y-61950342D01*
X123092443Y-61950342D02*
X123156728Y-62121771D01*
X123156728Y-62121771D02*
X123092443Y-62636057D01*
X123092443Y-62636057D02*
X122985300Y-62807485D01*
X122985300Y-62807485D02*
X122888871Y-62893200D01*
X122888871Y-62893200D02*
X122706728Y-62978914D01*
X122706728Y-62978914D02*
X122449586Y-62978914D01*
X125417443Y-61178914D02*
X125235300Y-62636057D01*
X125235300Y-62636057D02*
X125299586Y-62807485D01*
X125299586Y-62807485D02*
X125374586Y-62893200D01*
X125374586Y-62893200D02*
X125535300Y-62978914D01*
X125535300Y-62978914D02*
X125878157Y-62978914D01*
X125878157Y-62978914D02*
X126060300Y-62893200D01*
X126060300Y-62893200D02*
X126156728Y-62807485D01*
X126156728Y-62807485D02*
X126263871Y-62636057D01*
X126263871Y-62636057D02*
X126446014Y-61178914D01*
X127003157Y-62893200D02*
X127249585Y-62978914D01*
X127249585Y-62978914D02*
X127678157Y-62978914D01*
X127678157Y-62978914D02*
X127860300Y-62893200D01*
X127860300Y-62893200D02*
X127956728Y-62807485D01*
X127956728Y-62807485D02*
X128063871Y-62636057D01*
X128063871Y-62636057D02*
X128085300Y-62464628D01*
X128085300Y-62464628D02*
X128021014Y-62293200D01*
X128021014Y-62293200D02*
X127946014Y-62207485D01*
X127946014Y-62207485D02*
X127785300Y-62121771D01*
X127785300Y-62121771D02*
X127453157Y-62036057D01*
X127453157Y-62036057D02*
X127292442Y-61950342D01*
X127292442Y-61950342D02*
X127217442Y-61864628D01*
X127217442Y-61864628D02*
X127153157Y-61693200D01*
X127153157Y-61693200D02*
X127174585Y-61521771D01*
X127174585Y-61521771D02*
X127281728Y-61350342D01*
X127281728Y-61350342D02*
X127378157Y-61264628D01*
X127378157Y-61264628D02*
X127560300Y-61178914D01*
X127560300Y-61178914D02*
X127988871Y-61178914D01*
X127988871Y-61178914D02*
X128235300Y-61264628D01*
X129510300Y-62036057D02*
X129756728Y-62121771D01*
X129756728Y-62121771D02*
X129831728Y-62207485D01*
X129831728Y-62207485D02*
X129896014Y-62378914D01*
X129896014Y-62378914D02*
X129863871Y-62636057D01*
X129863871Y-62636057D02*
X129756728Y-62807485D01*
X129756728Y-62807485D02*
X129660300Y-62893200D01*
X129660300Y-62893200D02*
X129478157Y-62978914D01*
X129478157Y-62978914D02*
X128792443Y-62978914D01*
X128792443Y-62978914D02*
X129017443Y-61178914D01*
X129017443Y-61178914D02*
X129617443Y-61178914D01*
X129617443Y-61178914D02*
X129778157Y-61264628D01*
X129778157Y-61264628D02*
X129853157Y-61350342D01*
X129853157Y-61350342D02*
X129917443Y-61521771D01*
X129917443Y-61521771D02*
X129896014Y-61693200D01*
X129896014Y-61693200D02*
X129788871Y-61864628D01*
X129788871Y-61864628D02*
X129692443Y-61950342D01*
X129692443Y-61950342D02*
X129510300Y-62036057D01*
X129510300Y-62036057D02*
X128910300Y-62036057D01*
X149578871Y-90028914D02*
X150607442Y-90028914D01*
X149868157Y-91828914D02*
X150093157Y-90028914D01*
X151239586Y-91828914D02*
X151078871Y-91743200D01*
X151078871Y-91743200D02*
X151003871Y-91657485D01*
X151003871Y-91657485D02*
X150939586Y-91486057D01*
X150939586Y-91486057D02*
X151003871Y-90971771D01*
X151003871Y-90971771D02*
X151111014Y-90800342D01*
X151111014Y-90800342D02*
X151207443Y-90714628D01*
X151207443Y-90714628D02*
X151389586Y-90628914D01*
X151389586Y-90628914D02*
X151646728Y-90628914D01*
X151646728Y-90628914D02*
X151807443Y-90714628D01*
X151807443Y-90714628D02*
X151882443Y-90800342D01*
X151882443Y-90800342D02*
X151946728Y-90971771D01*
X151946728Y-90971771D02*
X151882443Y-91486057D01*
X151882443Y-91486057D02*
X151775300Y-91657485D01*
X151775300Y-91657485D02*
X151678871Y-91743200D01*
X151678871Y-91743200D02*
X151496728Y-91828914D01*
X151496728Y-91828914D02*
X151239586Y-91828914D01*
X154207443Y-90028914D02*
X154025300Y-91486057D01*
X154025300Y-91486057D02*
X154089586Y-91657485D01*
X154089586Y-91657485D02*
X154164586Y-91743200D01*
X154164586Y-91743200D02*
X154325300Y-91828914D01*
X154325300Y-91828914D02*
X154668157Y-91828914D01*
X154668157Y-91828914D02*
X154850300Y-91743200D01*
X154850300Y-91743200D02*
X154946728Y-91657485D01*
X154946728Y-91657485D02*
X155053871Y-91486057D01*
X155053871Y-91486057D02*
X155236014Y-90028914D01*
X155793157Y-91743200D02*
X156039585Y-91828914D01*
X156039585Y-91828914D02*
X156468157Y-91828914D01*
X156468157Y-91828914D02*
X156650300Y-91743200D01*
X156650300Y-91743200D02*
X156746728Y-91657485D01*
X156746728Y-91657485D02*
X156853871Y-91486057D01*
X156853871Y-91486057D02*
X156875300Y-91314628D01*
X156875300Y-91314628D02*
X156811014Y-91143200D01*
X156811014Y-91143200D02*
X156736014Y-91057485D01*
X156736014Y-91057485D02*
X156575300Y-90971771D01*
X156575300Y-90971771D02*
X156243157Y-90886057D01*
X156243157Y-90886057D02*
X156082442Y-90800342D01*
X156082442Y-90800342D02*
X156007442Y-90714628D01*
X156007442Y-90714628D02*
X155943157Y-90543200D01*
X155943157Y-90543200D02*
X155964585Y-90371771D01*
X155964585Y-90371771D02*
X156071728Y-90200342D01*
X156071728Y-90200342D02*
X156168157Y-90114628D01*
X156168157Y-90114628D02*
X156350300Y-90028914D01*
X156350300Y-90028914D02*
X156778871Y-90028914D01*
X156778871Y-90028914D02*
X157025300Y-90114628D01*
X158300300Y-90886057D02*
X158546728Y-90971771D01*
X158546728Y-90971771D02*
X158621728Y-91057485D01*
X158621728Y-91057485D02*
X158686014Y-91228914D01*
X158686014Y-91228914D02*
X158653871Y-91486057D01*
X158653871Y-91486057D02*
X158546728Y-91657485D01*
X158546728Y-91657485D02*
X158450300Y-91743200D01*
X158450300Y-91743200D02*
X158268157Y-91828914D01*
X158268157Y-91828914D02*
X157582443Y-91828914D01*
X157582443Y-91828914D02*
X157807443Y-90028914D01*
X157807443Y-90028914D02*
X158407443Y-90028914D01*
X158407443Y-90028914D02*
X158568157Y-90114628D01*
X158568157Y-90114628D02*
X158643157Y-90200342D01*
X158643157Y-90200342D02*
X158707443Y-90371771D01*
X158707443Y-90371771D02*
X158686014Y-90543200D01*
X158686014Y-90543200D02*
X158578871Y-90714628D01*
X158578871Y-90714628D02*
X158482443Y-90800342D01*
X158482443Y-90800342D02*
X158300300Y-90886057D01*
X158300300Y-90886057D02*
X157700300Y-90886057D01*
D11*
X115986666Y-58704839D02*
X115986666Y-59419124D01*
X115986666Y-59419124D02*
X115939047Y-59561981D01*
X115939047Y-59561981D02*
X115843809Y-59657220D01*
X115843809Y-59657220D02*
X115700952Y-59704839D01*
X115700952Y-59704839D02*
X115605714Y-59704839D01*
X116891428Y-59038172D02*
X116891428Y-59704839D01*
X116653333Y-58657220D02*
X116415238Y-59371505D01*
X116415238Y-59371505D02*
X117034285Y-59371505D01*
X139296666Y-93534819D02*
X139296666Y-94249104D01*
X139296666Y-94249104D02*
X139249047Y-94391961D01*
X139249047Y-94391961D02*
X139153809Y-94487200D01*
X139153809Y-94487200D02*
X139010952Y-94534819D01*
X139010952Y-94534819D02*
X138915714Y-94534819D01*
X140296666Y-94534819D02*
X139725238Y-94534819D01*
X140010952Y-94534819D02*
X140010952Y-93534819D01*
X140010952Y-93534819D02*
X139915714Y-93677676D01*
X139915714Y-93677676D02*
X139820476Y-93772914D01*
X139820476Y-93772914D02*
X139725238Y-93820533D01*
X166496666Y-93534819D02*
X166496666Y-94249104D01*
X166496666Y-94249104D02*
X166449047Y-94391961D01*
X166449047Y-94391961D02*
X166353809Y-94487200D01*
X166353809Y-94487200D02*
X166210952Y-94534819D01*
X166210952Y-94534819D02*
X166115714Y-94534819D01*
X166925238Y-93630057D02*
X166972857Y-93582438D01*
X166972857Y-93582438D02*
X167068095Y-93534819D01*
X167068095Y-93534819D02*
X167306190Y-93534819D01*
X167306190Y-93534819D02*
X167401428Y-93582438D01*
X167401428Y-93582438D02*
X167449047Y-93630057D01*
X167449047Y-93630057D02*
X167496666Y-93725295D01*
X167496666Y-93725295D02*
X167496666Y-93820533D01*
X167496666Y-93820533D02*
X167449047Y-93963390D01*
X167449047Y-93963390D02*
X166877619Y-94534819D01*
X166877619Y-94534819D02*
X167496666Y-94534819D01*
%TO.C,J4*%
D12*
X113670000Y-60250020D02*
X115050000Y-60250020D01*
X113670000Y-61630020D02*
X113670000Y-60250020D01*
X113670000Y-62900020D02*
X113670000Y-121430020D01*
X113670000Y-62900020D02*
X116320000Y-62900020D01*
X113670000Y-121430020D02*
X118970000Y-121430020D01*
X116320000Y-60250020D02*
X118970000Y-60250020D01*
X116320000Y-62900020D02*
X116320000Y-60250020D01*
X118970000Y-60250020D02*
X118970000Y-121430020D01*
D13*
%TO.C,REF\u002A\u002A*%
X158570690Y-114520018D02*
X158605585Y-114535269D01*
X158688877Y-114601235D01*
X158760103Y-114696618D01*
X158804153Y-114798406D01*
X158811322Y-114848587D01*
X158787285Y-114918647D01*
X158734561Y-114955717D01*
X158678031Y-114978164D01*
X158652146Y-114982300D01*
X158639542Y-114952283D01*
X158614654Y-114886961D01*
X158603735Y-114857445D01*
X158542508Y-114755348D01*
X158453861Y-114704423D01*
X158340193Y-114705989D01*
X158331774Y-114707994D01*
X158271088Y-114736767D01*
X158226474Y-114792859D01*
X158196002Y-114883163D01*
X158177744Y-115014571D01*
X158169771Y-115193974D01*
X158169023Y-115289433D01*
X158168652Y-115439913D01*
X158166223Y-115542495D01*
X158159760Y-115607672D01*
X158147288Y-115645938D01*
X158126833Y-115667785D01*
X158096419Y-115683707D01*
X158094661Y-115684509D01*
X158036091Y-115709272D01*
X158007075Y-115718391D01*
X158002616Y-115690822D01*
X157998799Y-115614620D01*
X157995899Y-115499541D01*
X157994191Y-115355341D01*
X157993851Y-115249814D01*
X157995588Y-115045613D01*
X158002382Y-114890697D01*
X158016607Y-114776024D01*
X158040638Y-114692551D01*
X158076848Y-114631236D01*
X158127612Y-114583034D01*
X158177739Y-114549393D01*
X158298275Y-114504619D01*
X158438557Y-114494521D01*
X158570690Y-114520018D01*
G36*
X158570690Y-114520018D02*
G01*
X158605585Y-114535269D01*
X158688877Y-114601235D01*
X158760103Y-114696618D01*
X158804153Y-114798406D01*
X158811322Y-114848587D01*
X158787285Y-114918647D01*
X158734561Y-114955717D01*
X158678031Y-114978164D01*
X158652146Y-114982300D01*
X158639542Y-114952283D01*
X158614654Y-114886961D01*
X158603735Y-114857445D01*
X158542508Y-114755348D01*
X158453861Y-114704423D01*
X158340193Y-114705989D01*
X158331774Y-114707994D01*
X158271088Y-114736767D01*
X158226474Y-114792859D01*
X158196002Y-114883163D01*
X158177744Y-115014571D01*
X158169771Y-115193974D01*
X158169023Y-115289433D01*
X158168652Y-115439913D01*
X158166223Y-115542495D01*
X158159760Y-115607672D01*
X158147288Y-115645938D01*
X158126833Y-115667785D01*
X158096419Y-115683707D01*
X158094661Y-115684509D01*
X158036091Y-115709272D01*
X158007075Y-115718391D01*
X158002616Y-115690822D01*
X157998799Y-115614620D01*
X157995899Y-115499541D01*
X157994191Y-115355341D01*
X157993851Y-115249814D01*
X157995588Y-115045613D01*
X158002382Y-114890697D01*
X158016607Y-114776024D01*
X158040638Y-114692551D01*
X158076848Y-114631236D01*
X158127612Y-114583034D01*
X158177739Y-114549393D01*
X158298275Y-114504619D01*
X158438557Y-114494521D01*
X158570690Y-114520018D01*
G37*
X150652429Y-114457719D02*
X150746123Y-114511914D01*
X150811264Y-114565707D01*
X150858907Y-114622066D01*
X150891728Y-114690987D01*
X150912406Y-114782468D01*
X150923620Y-114906506D01*
X150928049Y-115073098D01*
X150928563Y-115192851D01*
X150928563Y-115633659D01*
X150804483Y-115689283D01*
X150680402Y-115744907D01*
X150665805Y-115262095D01*
X150659773Y-115081779D01*
X150653445Y-114950901D01*
X150645606Y-114860511D01*
X150635037Y-114801664D01*
X150620523Y-114765413D01*
X150600848Y-114742810D01*
X150594535Y-114737917D01*
X150498888Y-114699706D01*
X150402207Y-114714827D01*
X150344655Y-114754943D01*
X150321245Y-114783370D01*
X150305039Y-114820672D01*
X150294741Y-114877223D01*
X150289049Y-114963394D01*
X150286664Y-115089558D01*
X150286264Y-115221042D01*
X150286186Y-115385999D01*
X150283361Y-115502761D01*
X150273907Y-115581510D01*
X150253940Y-115632431D01*
X150219576Y-115665706D01*
X150166932Y-115691520D01*
X150096617Y-115718344D01*
X150019820Y-115747542D01*
X150028962Y-115229346D01*
X150032643Y-115042539D01*
X150036950Y-114904490D01*
X150043123Y-114805568D01*
X150052402Y-114736145D01*
X150066027Y-114686590D01*
X150085239Y-114647273D01*
X150108402Y-114612584D01*
X150220152Y-114501770D01*
X150356513Y-114437689D01*
X150504825Y-114422339D01*
X150652429Y-114457719D01*
G36*
X150652429Y-114457719D02*
G01*
X150746123Y-114511914D01*
X150811264Y-114565707D01*
X150858907Y-114622066D01*
X150891728Y-114690987D01*
X150912406Y-114782468D01*
X150923620Y-114906506D01*
X150928049Y-115073098D01*
X150928563Y-115192851D01*
X150928563Y-115633659D01*
X150804483Y-115689283D01*
X150680402Y-115744907D01*
X150665805Y-115262095D01*
X150659773Y-115081779D01*
X150653445Y-114950901D01*
X150645606Y-114860511D01*
X150635037Y-114801664D01*
X150620523Y-114765413D01*
X150600848Y-114742810D01*
X150594535Y-114737917D01*
X150498888Y-114699706D01*
X150402207Y-114714827D01*
X150344655Y-114754943D01*
X150321245Y-114783370D01*
X150305039Y-114820672D01*
X150294741Y-114877223D01*
X150289049Y-114963394D01*
X150286664Y-115089558D01*
X150286264Y-115221042D01*
X150286186Y-115385999D01*
X150283361Y-115502761D01*
X150273907Y-115581510D01*
X150253940Y-115632431D01*
X150219576Y-115665706D01*
X150166932Y-115691520D01*
X150096617Y-115718344D01*
X150019820Y-115747542D01*
X150028962Y-115229346D01*
X150032643Y-115042539D01*
X150036950Y-114904490D01*
X150043123Y-114805568D01*
X150052402Y-114736145D01*
X150066027Y-114686590D01*
X150085239Y-114647273D01*
X150108402Y-114612584D01*
X150220152Y-114501770D01*
X150356513Y-114437689D01*
X150504825Y-114422339D01*
X150652429Y-114457719D01*
G37*
X154300943Y-114501920D02*
X154433565Y-114550859D01*
X154541010Y-114637419D01*
X154583032Y-114698352D01*
X154628843Y-114810161D01*
X154627891Y-114891006D01*
X154579808Y-114945378D01*
X154562017Y-114954624D01*
X154485204Y-114983450D01*
X154445976Y-114976065D01*
X154432689Y-114927658D01*
X154432012Y-114900920D01*
X154407686Y-114802548D01*
X154344281Y-114733734D01*
X154256154Y-114700498D01*
X154157663Y-114708861D01*
X154077602Y-114752296D01*
X154050561Y-114777072D01*
X154031394Y-114807129D01*
X154018446Y-114852565D01*
X154010064Y-114923476D01*
X154004593Y-115029960D01*
X154000378Y-115182112D01*
X153999287Y-115230287D01*
X153995307Y-115395095D01*
X153990781Y-115511088D01*
X153983995Y-115587833D01*
X153973231Y-115634893D01*
X153956773Y-115661835D01*
X153932906Y-115678223D01*
X153917626Y-115685463D01*
X153852733Y-115710220D01*
X153814534Y-115718391D01*
X153801912Y-115691103D01*
X153794208Y-115608603D01*
X153791380Y-115469941D01*
X153793386Y-115274162D01*
X153794011Y-115243965D01*
X153798421Y-115065349D01*
X153803635Y-114934923D01*
X153811055Y-114842492D01*
X153822082Y-114777858D01*
X153838117Y-114730825D01*
X153860561Y-114691196D01*
X153872302Y-114674215D01*
X153939619Y-114599080D01*
X154014910Y-114540638D01*
X154024128Y-114535536D01*
X154159133Y-114495260D01*
X154300943Y-114501920D01*
G36*
X154300943Y-114501920D02*
G01*
X154433565Y-114550859D01*
X154541010Y-114637419D01*
X154583032Y-114698352D01*
X154628843Y-114810161D01*
X154627891Y-114891006D01*
X154579808Y-114945378D01*
X154562017Y-114954624D01*
X154485204Y-114983450D01*
X154445976Y-114976065D01*
X154432689Y-114927658D01*
X154432012Y-114900920D01*
X154407686Y-114802548D01*
X154344281Y-114733734D01*
X154256154Y-114700498D01*
X154157663Y-114708861D01*
X154077602Y-114752296D01*
X154050561Y-114777072D01*
X154031394Y-114807129D01*
X154018446Y-114852565D01*
X154010064Y-114923476D01*
X154004593Y-115029960D01*
X154000378Y-115182112D01*
X153999287Y-115230287D01*
X153995307Y-115395095D01*
X153990781Y-115511088D01*
X153983995Y-115587833D01*
X153973231Y-115634893D01*
X153956773Y-115661835D01*
X153932906Y-115678223D01*
X153917626Y-115685463D01*
X153852733Y-115710220D01*
X153814534Y-115718391D01*
X153801912Y-115691103D01*
X153794208Y-115608603D01*
X153791380Y-115469941D01*
X153793386Y-115274162D01*
X153794011Y-115243965D01*
X153798421Y-115065349D01*
X153803635Y-114934923D01*
X153811055Y-114842492D01*
X153822082Y-114777858D01*
X153838117Y-114730825D01*
X153860561Y-114691196D01*
X153872302Y-114674215D01*
X153939619Y-114599080D01*
X154014910Y-114540638D01*
X154024128Y-114535536D01*
X154159133Y-114495260D01*
X154300943Y-114501920D01*
G37*
X156815124Y-114519840D02*
X156819579Y-114596653D01*
X156823071Y-114713391D01*
X156825315Y-114860821D01*
X156826035Y-115015455D01*
X156826035Y-115538727D01*
X156733645Y-115631117D01*
X156669978Y-115688047D01*
X156614089Y-115711107D01*
X156537702Y-115709647D01*
X156507380Y-115705934D01*
X156412610Y-115695126D01*
X156334222Y-115688933D01*
X156315115Y-115688361D01*
X156250699Y-115692102D01*
X156158571Y-115701494D01*
X156122850Y-115705934D01*
X156035114Y-115712801D01*
X155976153Y-115697885D01*
X155917690Y-115651835D01*
X155896585Y-115631117D01*
X155804195Y-115538727D01*
X155804195Y-114559947D01*
X155878558Y-114526066D01*
X155942590Y-114500970D01*
X155980052Y-114492184D01*
X155989657Y-114519950D01*
X155998635Y-114597530D01*
X156006386Y-114716348D01*
X156012314Y-114867828D01*
X156015173Y-114995805D01*
X156023161Y-115499425D01*
X156092848Y-115509278D01*
X156156229Y-115502389D01*
X156187286Y-115480083D01*
X156195967Y-115438379D01*
X156203378Y-115349544D01*
X156208931Y-115224834D01*
X156212036Y-115075507D01*
X156212484Y-114998661D01*
X156212931Y-114556287D01*
X156304874Y-114524235D01*
X156369949Y-114502443D01*
X156405347Y-114492281D01*
X156406368Y-114492184D01*
X156409920Y-114519809D01*
X156413823Y-114596411D01*
X156417751Y-114712579D01*
X156421376Y-114858904D01*
X156423908Y-114995805D01*
X156431897Y-115499425D01*
X156607069Y-115499425D01*
X156615107Y-115039965D01*
X156623146Y-114580505D01*
X156708543Y-114536344D01*
X156771593Y-114506019D01*
X156808910Y-114492258D01*
X156809987Y-114492184D01*
X156815124Y-114519840D01*
G36*
X156815124Y-114519840D02*
G01*
X156819579Y-114596653D01*
X156823071Y-114713391D01*
X156825315Y-114860821D01*
X156826035Y-115015455D01*
X156826035Y-115538727D01*
X156733645Y-115631117D01*
X156669978Y-115688047D01*
X156614089Y-115711107D01*
X156537702Y-115709647D01*
X156507380Y-115705934D01*
X156412610Y-115695126D01*
X156334222Y-115688933D01*
X156315115Y-115688361D01*
X156250699Y-115692102D01*
X156158571Y-115701494D01*
X156122850Y-115705934D01*
X156035114Y-115712801D01*
X155976153Y-115697885D01*
X155917690Y-115651835D01*
X155896585Y-115631117D01*
X155804195Y-115538727D01*
X155804195Y-114559947D01*
X155878558Y-114526066D01*
X155942590Y-114500970D01*
X155980052Y-114492184D01*
X155989657Y-114519950D01*
X155998635Y-114597530D01*
X156006386Y-114716348D01*
X156012314Y-114867828D01*
X156015173Y-114995805D01*
X156023161Y-115499425D01*
X156092848Y-115509278D01*
X156156229Y-115502389D01*
X156187286Y-115480083D01*
X156195967Y-115438379D01*
X156203378Y-115349544D01*
X156208931Y-115224834D01*
X156212036Y-115075507D01*
X156212484Y-114998661D01*
X156212931Y-114556287D01*
X156304874Y-114524235D01*
X156369949Y-114502443D01*
X156405347Y-114492281D01*
X156406368Y-114492184D01*
X156409920Y-114519809D01*
X156413823Y-114596411D01*
X156417751Y-114712579D01*
X156421376Y-114858904D01*
X156423908Y-114995805D01*
X156431897Y-115499425D01*
X156607069Y-115499425D01*
X156615107Y-115039965D01*
X156623146Y-114580505D01*
X156708543Y-114536344D01*
X156771593Y-114506019D01*
X156808910Y-114492258D01*
X156809987Y-114492184D01*
X156815124Y-114519840D01*
G37*
X151979598Y-114303857D02*
X151988154Y-114423188D01*
X151997981Y-114493506D01*
X152011599Y-114524179D01*
X152031527Y-114524571D01*
X152037989Y-114520910D01*
X152123940Y-114494398D01*
X152235745Y-114495946D01*
X152349414Y-114523199D01*
X152420510Y-114558455D01*
X152493405Y-114614778D01*
X152546693Y-114678519D01*
X152583275Y-114759510D01*
X152606050Y-114867586D01*
X152617919Y-115012580D01*
X152621782Y-115204326D01*
X152621851Y-115241109D01*
X152621897Y-115654288D01*
X152529954Y-115686339D01*
X152464652Y-115708144D01*
X152428824Y-115718297D01*
X152427770Y-115718391D01*
X152424242Y-115690860D01*
X152421239Y-115614923D01*
X152418990Y-115500565D01*
X152417724Y-115357769D01*
X152417529Y-115270951D01*
X152417123Y-115099773D01*
X152415032Y-114977088D01*
X152409947Y-114893000D01*
X152400560Y-114837614D01*
X152385561Y-114801032D01*
X152363642Y-114773359D01*
X152349957Y-114760032D01*
X152255949Y-114706328D01*
X152153364Y-114702307D01*
X152060290Y-114747725D01*
X152043078Y-114764123D01*
X152017832Y-114794957D01*
X152000320Y-114831531D01*
X151989142Y-114884415D01*
X151982896Y-114964177D01*
X151980182Y-115081385D01*
X151979598Y-115242991D01*
X151979598Y-115654288D01*
X151887655Y-115686339D01*
X151822353Y-115708144D01*
X151786525Y-115718297D01*
X151785471Y-115718391D01*
X151782775Y-115690448D01*
X151780345Y-115611630D01*
X151778278Y-115489453D01*
X151776671Y-115331432D01*
X151775623Y-115145083D01*
X151775231Y-114937920D01*
X151775230Y-114928706D01*
X151775230Y-114139020D01*
X151870115Y-114098997D01*
X151965000Y-114058973D01*
X151979598Y-114303857D01*
G36*
X151979598Y-114303857D02*
G01*
X151988154Y-114423188D01*
X151997981Y-114493506D01*
X152011599Y-114524179D01*
X152031527Y-114524571D01*
X152037989Y-114520910D01*
X152123940Y-114494398D01*
X152235745Y-114495946D01*
X152349414Y-114523199D01*
X152420510Y-114558455D01*
X152493405Y-114614778D01*
X152546693Y-114678519D01*
X152583275Y-114759510D01*
X152606050Y-114867586D01*
X152617919Y-115012580D01*
X152621782Y-115204326D01*
X152621851Y-115241109D01*
X152621897Y-115654288D01*
X152529954Y-115686339D01*
X152464652Y-115708144D01*
X152428824Y-115718297D01*
X152427770Y-115718391D01*
X152424242Y-115690860D01*
X152421239Y-115614923D01*
X152418990Y-115500565D01*
X152417724Y-115357769D01*
X152417529Y-115270951D01*
X152417123Y-115099773D01*
X152415032Y-114977088D01*
X152409947Y-114893000D01*
X152400560Y-114837614D01*
X152385561Y-114801032D01*
X152363642Y-114773359D01*
X152349957Y-114760032D01*
X152255949Y-114706328D01*
X152153364Y-114702307D01*
X152060290Y-114747725D01*
X152043078Y-114764123D01*
X152017832Y-114794957D01*
X152000320Y-114831531D01*
X151989142Y-114884415D01*
X151982896Y-114964177D01*
X151980182Y-115081385D01*
X151979598Y-115242991D01*
X151979598Y-115654288D01*
X151887655Y-115686339D01*
X151822353Y-115708144D01*
X151786525Y-115718297D01*
X151785471Y-115718391D01*
X151782775Y-115690448D01*
X151780345Y-115611630D01*
X151778278Y-115489453D01*
X151776671Y-115331432D01*
X151775623Y-115145083D01*
X151775231Y-114937920D01*
X151775230Y-114928706D01*
X151775230Y-114139020D01*
X151870115Y-114098997D01*
X151965000Y-114058973D01*
X151979598Y-114303857D01*
G37*
X147283221Y-114446015D02*
X147420061Y-114517968D01*
X147521051Y-114633766D01*
X147556925Y-114708213D01*
X147584839Y-114819992D01*
X147599129Y-114961227D01*
X147600484Y-115115371D01*
X147589595Y-115265879D01*
X147567153Y-115396205D01*
X147533850Y-115489803D01*
X147523615Y-115505922D01*
X147402382Y-115626249D01*
X147258387Y-115698317D01*
X147102139Y-115719408D01*
X146944148Y-115686802D01*
X146900180Y-115667253D01*
X146814556Y-115607012D01*
X146739408Y-115527135D01*
X146732306Y-115517004D01*
X146703439Y-115468181D01*
X146684357Y-115415990D01*
X146673084Y-115347285D01*
X146667645Y-115248918D01*
X146666062Y-115107744D01*
X146666035Y-115076092D01*
X146666107Y-115066019D01*
X146957989Y-115066019D01*
X146959687Y-115199256D01*
X146966372Y-115287674D01*
X146980425Y-115344785D01*
X147004229Y-115384102D01*
X147016379Y-115397241D01*
X147086236Y-115447172D01*
X147154059Y-115444895D01*
X147222635Y-115401584D01*
X147263535Y-115355346D01*
X147287758Y-115287857D01*
X147301361Y-115181433D01*
X147302294Y-115169020D01*
X147304616Y-114976147D01*
X147280350Y-114832900D01*
X147229824Y-114740160D01*
X147153368Y-114698807D01*
X147126076Y-114696552D01*
X147054411Y-114707893D01*
X147005390Y-114747184D01*
X146975418Y-114822326D01*
X146960899Y-114941222D01*
X146957989Y-115066019D01*
X146666107Y-115066019D01*
X146667122Y-114925659D01*
X146671688Y-114820549D01*
X146681688Y-114747714D01*
X146699079Y-114694108D01*
X146725816Y-114646681D01*
X146731724Y-114637864D01*
X146831032Y-114519007D01*
X146939242Y-114450008D01*
X147070981Y-114422619D01*
X147115717Y-114421281D01*
X147283221Y-114446015D01*
G36*
X147283221Y-114446015D02*
G01*
X147420061Y-114517968D01*
X147521051Y-114633766D01*
X147556925Y-114708213D01*
X147584839Y-114819992D01*
X147599129Y-114961227D01*
X147600484Y-115115371D01*
X147589595Y-115265879D01*
X147567153Y-115396205D01*
X147533850Y-115489803D01*
X147523615Y-115505922D01*
X147402382Y-115626249D01*
X147258387Y-115698317D01*
X147102139Y-115719408D01*
X146944148Y-115686802D01*
X146900180Y-115667253D01*
X146814556Y-115607012D01*
X146739408Y-115527135D01*
X146732306Y-115517004D01*
X146703439Y-115468181D01*
X146684357Y-115415990D01*
X146673084Y-115347285D01*
X146667645Y-115248918D01*
X146666062Y-115107744D01*
X146666035Y-115076092D01*
X146666107Y-115066019D01*
X146957989Y-115066019D01*
X146959687Y-115199256D01*
X146966372Y-115287674D01*
X146980425Y-115344785D01*
X147004229Y-115384102D01*
X147016379Y-115397241D01*
X147086236Y-115447172D01*
X147154059Y-115444895D01*
X147222635Y-115401584D01*
X147263535Y-115355346D01*
X147287758Y-115287857D01*
X147301361Y-115181433D01*
X147302294Y-115169020D01*
X147304616Y-114976147D01*
X147280350Y-114832900D01*
X147229824Y-114740160D01*
X147153368Y-114698807D01*
X147126076Y-114696552D01*
X147054411Y-114707893D01*
X147005390Y-114747184D01*
X146975418Y-114822326D01*
X146960899Y-114941222D01*
X146957989Y-115066019D01*
X146666107Y-115066019D01*
X146667122Y-114925659D01*
X146671688Y-114820549D01*
X146681688Y-114747714D01*
X146699079Y-114694108D01*
X146725816Y-114646681D01*
X146731724Y-114637864D01*
X146831032Y-114519007D01*
X146939242Y-114450008D01*
X147070981Y-114422619D01*
X147115717Y-114421281D01*
X147283221Y-114446015D01*
G37*
X159578439Y-114536540D02*
X159693950Y-114612034D01*
X159749664Y-114679617D01*
X159793804Y-114802255D01*
X159797309Y-114899298D01*
X159789368Y-115029056D01*
X159490115Y-115160039D01*
X159344611Y-115226958D01*
X159249537Y-115280790D01*
X159200101Y-115327416D01*
X159191511Y-115372720D01*
X159218972Y-115422582D01*
X159249253Y-115455632D01*
X159337363Y-115508633D01*
X159433196Y-115512347D01*
X159521212Y-115471041D01*
X159585869Y-115388983D01*
X159597433Y-115360008D01*
X159652825Y-115269509D01*
X159716553Y-115230940D01*
X159803966Y-115197946D01*
X159803966Y-115323034D01*
X159796238Y-115408156D01*
X159765966Y-115479938D01*
X159702518Y-115562356D01*
X159693088Y-115573066D01*
X159622513Y-115646391D01*
X159561847Y-115685742D01*
X159485950Y-115703845D01*
X159423030Y-115709774D01*
X159310487Y-115711251D01*
X159230370Y-115692535D01*
X159180390Y-115664747D01*
X159101838Y-115603641D01*
X159047463Y-115537554D01*
X159013052Y-115454441D01*
X158994388Y-115342254D01*
X158987256Y-115188946D01*
X158986687Y-115111136D01*
X158988622Y-115017853D01*
X159164899Y-115017853D01*
X159166944Y-115067896D01*
X159172039Y-115076092D01*
X159205666Y-115064958D01*
X159278030Y-115035493D01*
X159374747Y-114993601D01*
X159394973Y-114984597D01*
X159517203Y-114922442D01*
X159584547Y-114867815D01*
X159599348Y-114816649D01*
X159563947Y-114764876D01*
X159534711Y-114742000D01*
X159429216Y-114696250D01*
X159330476Y-114703808D01*
X159247812Y-114759651D01*
X159190548Y-114858753D01*
X159172188Y-114937414D01*
X159164899Y-115017853D01*
X158988622Y-115017853D01*
X158990459Y-114929351D01*
X159004359Y-114794853D01*
X159031894Y-114696916D01*
X159076572Y-114624811D01*
X159141901Y-114567813D01*
X159170383Y-114549393D01*
X159299763Y-114501422D01*
X159441412Y-114498403D01*
X159578439Y-114536540D01*
G36*
X159578439Y-114536540D02*
G01*
X159693950Y-114612034D01*
X159749664Y-114679617D01*
X159793804Y-114802255D01*
X159797309Y-114899298D01*
X159789368Y-115029056D01*
X159490115Y-115160039D01*
X159344611Y-115226958D01*
X159249537Y-115280790D01*
X159200101Y-115327416D01*
X159191511Y-115372720D01*
X159218972Y-115422582D01*
X159249253Y-115455632D01*
X159337363Y-115508633D01*
X159433196Y-115512347D01*
X159521212Y-115471041D01*
X159585869Y-115388983D01*
X159597433Y-115360008D01*
X159652825Y-115269509D01*
X159716553Y-115230940D01*
X159803966Y-115197946D01*
X159803966Y-115323034D01*
X159796238Y-115408156D01*
X159765966Y-115479938D01*
X159702518Y-115562356D01*
X159693088Y-115573066D01*
X159622513Y-115646391D01*
X159561847Y-115685742D01*
X159485950Y-115703845D01*
X159423030Y-115709774D01*
X159310487Y-115711251D01*
X159230370Y-115692535D01*
X159180390Y-115664747D01*
X159101838Y-115603641D01*
X159047463Y-115537554D01*
X159013052Y-115454441D01*
X158994388Y-115342254D01*
X158987256Y-115188946D01*
X158986687Y-115111136D01*
X158988622Y-115017853D01*
X159164899Y-115017853D01*
X159166944Y-115067896D01*
X159172039Y-115076092D01*
X159205666Y-115064958D01*
X159278030Y-115035493D01*
X159374747Y-114993601D01*
X159394973Y-114984597D01*
X159517203Y-114922442D01*
X159584547Y-114867815D01*
X159599348Y-114816649D01*
X159563947Y-114764876D01*
X159534711Y-114742000D01*
X159429216Y-114696250D01*
X159330476Y-114703808D01*
X159247812Y-114759651D01*
X159190548Y-114858753D01*
X159172188Y-114937414D01*
X159164899Y-115017853D01*
X158988622Y-115017853D01*
X158990459Y-114929351D01*
X159004359Y-114794853D01*
X159031894Y-114696916D01*
X159076572Y-114624811D01*
X159141901Y-114567813D01*
X159170383Y-114549393D01*
X159299763Y-114501422D01*
X159441412Y-114498403D01*
X159578439Y-114536540D01*
G37*
X155628914Y-114734455D02*
X155628543Y-114952661D01*
X155627108Y-115120519D01*
X155624002Y-115246070D01*
X155618622Y-115337355D01*
X155610362Y-115402415D01*
X155598616Y-115449291D01*
X155582781Y-115486024D01*
X155570790Y-115506991D01*
X155471490Y-115620694D01*
X155345588Y-115691965D01*
X155206291Y-115717538D01*
X155066805Y-115694150D01*
X154983743Y-115652119D01*
X154896545Y-115579411D01*
X154837117Y-115490612D01*
X154801261Y-115374320D01*
X154784781Y-115219135D01*
X154782447Y-115105287D01*
X154782761Y-115097106D01*
X154986724Y-115097106D01*
X154987970Y-115227657D01*
X154993678Y-115314080D01*
X155006804Y-115370618D01*
X155030306Y-115411514D01*
X155058386Y-115442362D01*
X155152688Y-115501905D01*
X155253940Y-115506992D01*
X155349636Y-115457279D01*
X155357084Y-115450543D01*
X155388874Y-115415502D01*
X155408808Y-115373811D01*
X155419600Y-115311762D01*
X155423965Y-115215644D01*
X155424655Y-115109379D01*
X155423159Y-114975880D01*
X155416964Y-114886822D01*
X155403514Y-114828293D01*
X155380251Y-114786382D01*
X155361175Y-114764123D01*
X155272563Y-114707985D01*
X155170508Y-114701235D01*
X155073095Y-114744114D01*
X155054296Y-114760032D01*
X155022293Y-114795382D01*
X155002318Y-114837502D01*
X154991593Y-114900251D01*
X154987339Y-114997487D01*
X154986724Y-115097106D01*
X154782761Y-115097106D01*
X154789504Y-114921947D01*
X154813472Y-114784195D01*
X154858548Y-114680632D01*
X154928928Y-114599856D01*
X154983743Y-114558455D01*
X155083376Y-114513728D01*
X155198855Y-114492967D01*
X155306199Y-114498525D01*
X155366264Y-114520943D01*
X155389835Y-114527323D01*
X155405477Y-114503535D01*
X155416395Y-114439788D01*
X155424655Y-114342687D01*
X155433699Y-114234541D01*
X155446261Y-114169475D01*
X155469119Y-114132268D01*
X155509051Y-114107699D01*
X155534138Y-114096819D01*
X155629023Y-114057072D01*
X155628914Y-114734455D01*
G36*
X155628914Y-114734455D02*
G01*
X155628543Y-114952661D01*
X155627108Y-115120519D01*
X155624002Y-115246070D01*
X155618622Y-115337355D01*
X155610362Y-115402415D01*
X155598616Y-115449291D01*
X155582781Y-115486024D01*
X155570790Y-115506991D01*
X155471490Y-115620694D01*
X155345588Y-115691965D01*
X155206291Y-115717538D01*
X155066805Y-115694150D01*
X154983743Y-115652119D01*
X154896545Y-115579411D01*
X154837117Y-115490612D01*
X154801261Y-115374320D01*
X154784781Y-115219135D01*
X154782447Y-115105287D01*
X154782761Y-115097106D01*
X154986724Y-115097106D01*
X154987970Y-115227657D01*
X154993678Y-115314080D01*
X155006804Y-115370618D01*
X155030306Y-115411514D01*
X155058386Y-115442362D01*
X155152688Y-115501905D01*
X155253940Y-115506992D01*
X155349636Y-115457279D01*
X155357084Y-115450543D01*
X155388874Y-115415502D01*
X155408808Y-115373811D01*
X155419600Y-115311762D01*
X155423965Y-115215644D01*
X155424655Y-115109379D01*
X155423159Y-114975880D01*
X155416964Y-114886822D01*
X155403514Y-114828293D01*
X155380251Y-114786382D01*
X155361175Y-114764123D01*
X155272563Y-114707985D01*
X155170508Y-114701235D01*
X155073095Y-114744114D01*
X155054296Y-114760032D01*
X155022293Y-114795382D01*
X155002318Y-114837502D01*
X154991593Y-114900251D01*
X154987339Y-114997487D01*
X154986724Y-115097106D01*
X154782761Y-115097106D01*
X154789504Y-114921947D01*
X154813472Y-114784195D01*
X154858548Y-114680632D01*
X154928928Y-114599856D01*
X154983743Y-114558455D01*
X155083376Y-114513728D01*
X155198855Y-114492967D01*
X155306199Y-114498525D01*
X155366264Y-114520943D01*
X155389835Y-114527323D01*
X155405477Y-114503535D01*
X155416395Y-114439788D01*
X155424655Y-114342687D01*
X155433699Y-114234541D01*
X155446261Y-114169475D01*
X155469119Y-114132268D01*
X155509051Y-114107699D01*
X155534138Y-114096819D01*
X155629023Y-114057072D01*
X155628914Y-114734455D01*
G37*
X149550552Y-114464676D02*
X149665658Y-114542111D01*
X149754611Y-114653949D01*
X149807749Y-114796265D01*
X149818497Y-114901015D01*
X149817276Y-114944726D01*
X149807056Y-114978194D01*
X149778961Y-115008179D01*
X149724116Y-115041440D01*
X149633645Y-115084738D01*
X149498672Y-115144833D01*
X149497989Y-115145134D01*
X149373751Y-115202037D01*
X149271873Y-115252565D01*
X149202767Y-115291280D01*
X149176846Y-115312740D01*
X149176839Y-115312913D01*
X149199685Y-115359644D01*
X149253109Y-115411154D01*
X149314442Y-115448261D01*
X149345515Y-115455632D01*
X149430289Y-115430138D01*
X149503293Y-115366291D01*
X149538913Y-115296094D01*
X149573180Y-115244343D01*
X149640303Y-115185409D01*
X149719208Y-115134496D01*
X149788821Y-115106809D01*
X149803377Y-115105287D01*
X149819763Y-115130321D01*
X149820750Y-115194311D01*
X149808708Y-115280593D01*
X149786007Y-115372501D01*
X149755014Y-115453369D01*
X149753448Y-115456509D01*
X149660181Y-115586734D01*
X149539304Y-115675311D01*
X149402027Y-115718786D01*
X149259560Y-115713706D01*
X149123112Y-115656616D01*
X149117045Y-115652602D01*
X149009710Y-115555326D01*
X148939132Y-115428409D01*
X148900074Y-115261526D01*
X148894832Y-115214639D01*
X148885548Y-114993329D01*
X148896678Y-114890124D01*
X149176839Y-114890124D01*
X149180479Y-114954503D01*
X149200389Y-114973291D01*
X149250026Y-114959235D01*
X149328267Y-114926009D01*
X149415726Y-114884359D01*
X149417899Y-114883256D01*
X149492030Y-114844265D01*
X149521781Y-114818244D01*
X149514445Y-114790965D01*
X149483553Y-114755121D01*
X149404960Y-114703251D01*
X149320323Y-114699439D01*
X149244403Y-114737189D01*
X149191965Y-114810001D01*
X149176839Y-114890124D01*
X148896678Y-114890124D01*
X148904644Y-114816261D01*
X148953634Y-114675829D01*
X149021836Y-114577447D01*
X149144935Y-114478030D01*
X149280528Y-114428711D01*
X149418955Y-114425568D01*
X149550552Y-114464676D01*
G36*
X149550552Y-114464676D02*
G01*
X149665658Y-114542111D01*
X149754611Y-114653949D01*
X149807749Y-114796265D01*
X149818497Y-114901015D01*
X149817276Y-114944726D01*
X149807056Y-114978194D01*
X149778961Y-115008179D01*
X149724116Y-115041440D01*
X149633645Y-115084738D01*
X149498672Y-115144833D01*
X149497989Y-115145134D01*
X149373751Y-115202037D01*
X149271873Y-115252565D01*
X149202767Y-115291280D01*
X149176846Y-115312740D01*
X149176839Y-115312913D01*
X149199685Y-115359644D01*
X149253109Y-115411154D01*
X149314442Y-115448261D01*
X149345515Y-115455632D01*
X149430289Y-115430138D01*
X149503293Y-115366291D01*
X149538913Y-115296094D01*
X149573180Y-115244343D01*
X149640303Y-115185409D01*
X149719208Y-115134496D01*
X149788821Y-115106809D01*
X149803377Y-115105287D01*
X149819763Y-115130321D01*
X149820750Y-115194311D01*
X149808708Y-115280593D01*
X149786007Y-115372501D01*
X149755014Y-115453369D01*
X149753448Y-115456509D01*
X149660181Y-115586734D01*
X149539304Y-115675311D01*
X149402027Y-115718786D01*
X149259560Y-115713706D01*
X149123112Y-115656616D01*
X149117045Y-115652602D01*
X149009710Y-115555326D01*
X148939132Y-115428409D01*
X148900074Y-115261526D01*
X148894832Y-115214639D01*
X148885548Y-114993329D01*
X148896678Y-114890124D01*
X149176839Y-114890124D01*
X149180479Y-114954503D01*
X149200389Y-114973291D01*
X149250026Y-114959235D01*
X149328267Y-114926009D01*
X149415726Y-114884359D01*
X149417899Y-114883256D01*
X149492030Y-114844265D01*
X149521781Y-114818244D01*
X149514445Y-114790965D01*
X149483553Y-114755121D01*
X149404960Y-114703251D01*
X149320323Y-114699439D01*
X149244403Y-114737189D01*
X149191965Y-114810001D01*
X149176839Y-114890124D01*
X148896678Y-114890124D01*
X148904644Y-114816261D01*
X148953634Y-114675829D01*
X149021836Y-114577447D01*
X149144935Y-114478030D01*
X149280528Y-114428711D01*
X149418955Y-114425568D01*
X149550552Y-114464676D01*
G37*
X153314944Y-114504360D02*
X153429343Y-114546842D01*
X153430652Y-114547658D01*
X153501403Y-114599730D01*
X153553636Y-114660584D01*
X153590371Y-114739887D01*
X153614634Y-114847309D01*
X153629445Y-114992517D01*
X153637829Y-115185179D01*
X153638564Y-115212628D01*
X153649120Y-115626521D01*
X153560291Y-115672456D01*
X153496018Y-115703498D01*
X153457210Y-115718206D01*
X153455415Y-115718391D01*
X153448700Y-115691250D01*
X153443365Y-115618041D01*
X153440083Y-115511081D01*
X153439368Y-115424469D01*
X153439351Y-115284162D01*
X153432937Y-115196051D01*
X153410580Y-115154025D01*
X153362732Y-115151975D01*
X153279849Y-115183790D01*
X153154713Y-115242272D01*
X153062697Y-115290845D01*
X153015371Y-115332986D01*
X153001458Y-115378916D01*
X153001437Y-115381189D01*
X153024395Y-115460311D01*
X153092370Y-115503055D01*
X153196398Y-115509246D01*
X153271330Y-115508172D01*
X153310839Y-115529753D01*
X153335478Y-115581591D01*
X153349659Y-115647632D01*
X153329223Y-115685104D01*
X153321528Y-115690467D01*
X153249083Y-115712006D01*
X153147633Y-115715055D01*
X153043157Y-115700778D01*
X152969125Y-115674688D01*
X152866772Y-115587785D01*
X152808591Y-115466816D01*
X152797069Y-115372308D01*
X152805862Y-115287062D01*
X152837680Y-115217476D01*
X152900684Y-115155672D01*
X153003031Y-115093772D01*
X153152882Y-115023897D01*
X153162012Y-115019948D01*
X153296997Y-114957588D01*
X153380294Y-114906446D01*
X153415997Y-114860488D01*
X153408203Y-114813683D01*
X153361007Y-114759998D01*
X153346894Y-114747644D01*
X153252359Y-114699741D01*
X153154406Y-114701758D01*
X153069097Y-114748724D01*
X153012496Y-114835669D01*
X153007237Y-114852734D01*
X152956023Y-114935504D01*
X152891037Y-114975372D01*
X152797069Y-115014882D01*
X152797069Y-114912658D01*
X152825653Y-114764072D01*
X152910495Y-114627784D01*
X152954645Y-114582191D01*
X153055005Y-114523674D01*
X153182635Y-114497184D01*
X153314944Y-114504360D01*
G36*
X153314944Y-114504360D02*
G01*
X153429343Y-114546842D01*
X153430652Y-114547658D01*
X153501403Y-114599730D01*
X153553636Y-114660584D01*
X153590371Y-114739887D01*
X153614634Y-114847309D01*
X153629445Y-114992517D01*
X153637829Y-115185179D01*
X153638564Y-115212628D01*
X153649120Y-115626521D01*
X153560291Y-115672456D01*
X153496018Y-115703498D01*
X153457210Y-115718206D01*
X153455415Y-115718391D01*
X153448700Y-115691250D01*
X153443365Y-115618041D01*
X153440083Y-115511081D01*
X153439368Y-115424469D01*
X153439351Y-115284162D01*
X153432937Y-115196051D01*
X153410580Y-115154025D01*
X153362732Y-115151975D01*
X153279849Y-115183790D01*
X153154713Y-115242272D01*
X153062697Y-115290845D01*
X153015371Y-115332986D01*
X153001458Y-115378916D01*
X153001437Y-115381189D01*
X153024395Y-115460311D01*
X153092370Y-115503055D01*
X153196398Y-115509246D01*
X153271330Y-115508172D01*
X153310839Y-115529753D01*
X153335478Y-115581591D01*
X153349659Y-115647632D01*
X153329223Y-115685104D01*
X153321528Y-115690467D01*
X153249083Y-115712006D01*
X153147633Y-115715055D01*
X153043157Y-115700778D01*
X152969125Y-115674688D01*
X152866772Y-115587785D01*
X152808591Y-115466816D01*
X152797069Y-115372308D01*
X152805862Y-115287062D01*
X152837680Y-115217476D01*
X152900684Y-115155672D01*
X153003031Y-115093772D01*
X153152882Y-115023897D01*
X153162012Y-115019948D01*
X153296997Y-114957588D01*
X153380294Y-114906446D01*
X153415997Y-114860488D01*
X153408203Y-114813683D01*
X153361007Y-114759998D01*
X153346894Y-114747644D01*
X153252359Y-114699741D01*
X153154406Y-114701758D01*
X153069097Y-114748724D01*
X153012496Y-114835669D01*
X153007237Y-114852734D01*
X152956023Y-114935504D01*
X152891037Y-114975372D01*
X152797069Y-115014882D01*
X152797069Y-114912658D01*
X152825653Y-114764072D01*
X152910495Y-114627784D01*
X152954645Y-114582191D01*
X153055005Y-114523674D01*
X153182635Y-114497184D01*
X153314944Y-114504360D01*
G37*
X148406900Y-114441903D02*
X148518450Y-114497522D01*
X148616908Y-114599931D01*
X148644023Y-114637864D01*
X148673562Y-114687500D01*
X148692728Y-114741412D01*
X148703693Y-114813364D01*
X148708629Y-114917122D01*
X148709713Y-115054101D01*
X148704818Y-115241815D01*
X148687804Y-115382758D01*
X148655177Y-115487908D01*
X148603442Y-115568243D01*
X148529104Y-115634741D01*
X148523642Y-115638678D01*
X148450380Y-115678953D01*
X148362160Y-115698880D01*
X148249962Y-115703793D01*
X148067567Y-115703793D01*
X148067491Y-115880857D01*
X148065793Y-115979470D01*
X148055450Y-116037314D01*
X148028422Y-116072006D01*
X147976668Y-116101164D01*
X147964239Y-116107121D01*
X147906077Y-116135039D01*
X147861044Y-116152672D01*
X147827559Y-116154194D01*
X147804038Y-116133781D01*
X147788900Y-116085607D01*
X147780563Y-116003846D01*
X147777444Y-115882672D01*
X147777960Y-115716260D01*
X147780529Y-115498785D01*
X147781332Y-115433736D01*
X147784222Y-115209502D01*
X147786812Y-115062821D01*
X148067414Y-115062821D01*
X148068991Y-115187326D01*
X148076000Y-115268787D01*
X148091858Y-115322515D01*
X148119981Y-115363823D01*
X148139075Y-115383971D01*
X148217135Y-115442921D01*
X148286247Y-115447720D01*
X148357560Y-115399038D01*
X148359368Y-115397241D01*
X148388383Y-115359618D01*
X148406033Y-115308484D01*
X148414936Y-115229738D01*
X148417709Y-115109276D01*
X148417759Y-115082588D01*
X148411058Y-114916583D01*
X148389248Y-114801505D01*
X148349765Y-114731254D01*
X148290044Y-114699729D01*
X148255528Y-114696552D01*
X148173611Y-114711460D01*
X148117421Y-114760548D01*
X148083598Y-114850362D01*
X148068780Y-114987445D01*
X148067414Y-115062821D01*
X147786812Y-115062821D01*
X147787287Y-115035952D01*
X147791247Y-114905382D01*
X147796826Y-114810087D01*
X147804746Y-114742364D01*
X147815731Y-114694507D01*
X147830501Y-114658813D01*
X147849782Y-114627578D01*
X147858049Y-114615824D01*
X147967712Y-114504797D01*
X148106365Y-114441847D01*
X148266754Y-114424297D01*
X148406900Y-114441903D01*
G36*
X148406900Y-114441903D02*
G01*
X148518450Y-114497522D01*
X148616908Y-114599931D01*
X148644023Y-114637864D01*
X148673562Y-114687500D01*
X148692728Y-114741412D01*
X148703693Y-114813364D01*
X148708629Y-114917122D01*
X148709713Y-115054101D01*
X148704818Y-115241815D01*
X148687804Y-115382758D01*
X148655177Y-115487908D01*
X148603442Y-115568243D01*
X148529104Y-115634741D01*
X148523642Y-115638678D01*
X148450380Y-115678953D01*
X148362160Y-115698880D01*
X148249962Y-115703793D01*
X148067567Y-115703793D01*
X148067491Y-115880857D01*
X148065793Y-115979470D01*
X148055450Y-116037314D01*
X148028422Y-116072006D01*
X147976668Y-116101164D01*
X147964239Y-116107121D01*
X147906077Y-116135039D01*
X147861044Y-116152672D01*
X147827559Y-116154194D01*
X147804038Y-116133781D01*
X147788900Y-116085607D01*
X147780563Y-116003846D01*
X147777444Y-115882672D01*
X147777960Y-115716260D01*
X147780529Y-115498785D01*
X147781332Y-115433736D01*
X147784222Y-115209502D01*
X147786812Y-115062821D01*
X148067414Y-115062821D01*
X148068991Y-115187326D01*
X148076000Y-115268787D01*
X148091858Y-115322515D01*
X148119981Y-115363823D01*
X148139075Y-115383971D01*
X148217135Y-115442921D01*
X148286247Y-115447720D01*
X148357560Y-115399038D01*
X148359368Y-115397241D01*
X148388383Y-115359618D01*
X148406033Y-115308484D01*
X148414936Y-115229738D01*
X148417709Y-115109276D01*
X148417759Y-115082588D01*
X148411058Y-114916583D01*
X148389248Y-114801505D01*
X148349765Y-114731254D01*
X148290044Y-114699729D01*
X148255528Y-114696552D01*
X148173611Y-114711460D01*
X148117421Y-114760548D01*
X148083598Y-114850362D01*
X148068780Y-114987445D01*
X148067414Y-115062821D01*
X147786812Y-115062821D01*
X147787287Y-115035952D01*
X147791247Y-114905382D01*
X147796826Y-114810087D01*
X147804746Y-114742364D01*
X147815731Y-114694507D01*
X147830501Y-114658813D01*
X147849782Y-114627578D01*
X147858049Y-114615824D01*
X147967712Y-114504797D01*
X148106365Y-114441847D01*
X148266754Y-114424297D01*
X148406900Y-114441903D01*
G37*
X157549406Y-114515156D02*
X157633469Y-114553393D01*
X157699450Y-114599726D01*
X157747794Y-114651532D01*
X157781172Y-114718363D01*
X157802253Y-114809769D01*
X157813707Y-114935301D01*
X157818203Y-115104508D01*
X157818678Y-115215933D01*
X157818678Y-115650627D01*
X157744316Y-115684509D01*
X157685746Y-115709272D01*
X157656730Y-115718391D01*
X157651179Y-115691257D01*
X157646775Y-115618094D01*
X157644078Y-115511263D01*
X157643506Y-115426437D01*
X157641046Y-115303887D01*
X157634412Y-115206668D01*
X157624726Y-115147134D01*
X157617032Y-115134483D01*
X157565311Y-115147402D01*
X157484117Y-115180539D01*
X157390102Y-115225461D01*
X157299917Y-115273735D01*
X157230215Y-115316928D01*
X157197648Y-115346608D01*
X157197519Y-115346929D01*
X157200320Y-115401857D01*
X157225439Y-115454292D01*
X157269541Y-115496881D01*
X157333909Y-115511126D01*
X157388921Y-115509466D01*
X157466835Y-115508245D01*
X157507732Y-115526498D01*
X157532295Y-115574726D01*
X157535392Y-115583820D01*
X157546040Y-115652598D01*
X157517565Y-115694360D01*
X157443344Y-115714263D01*
X157363168Y-115717944D01*
X157218890Y-115690658D01*
X157144203Y-115651690D01*
X157051963Y-115560148D01*
X157003043Y-115447782D01*
X156998654Y-115329051D01*
X157040001Y-115218411D01*
X157102197Y-115149080D01*
X157164294Y-115110265D01*
X157261895Y-115061125D01*
X157375632Y-115011292D01*
X157394590Y-115003677D01*
X157519521Y-114948545D01*
X157591539Y-114899954D01*
X157614700Y-114851647D01*
X157593064Y-114797370D01*
X157555920Y-114754943D01*
X157468127Y-114702702D01*
X157371530Y-114698784D01*
X157282944Y-114739041D01*
X157219186Y-114819326D01*
X157210817Y-114840040D01*
X157162096Y-114916225D01*
X157090965Y-114972785D01*
X157001207Y-115019201D01*
X157001207Y-114887584D01*
X157006490Y-114807168D01*
X157029142Y-114743786D01*
X157079367Y-114676163D01*
X157127582Y-114624076D01*
X157202554Y-114550322D01*
X157260806Y-114510702D01*
X157323372Y-114494810D01*
X157394193Y-114492184D01*
X157549406Y-114515156D01*
G36*
X157549406Y-114515156D02*
G01*
X157633469Y-114553393D01*
X157699450Y-114599726D01*
X157747794Y-114651532D01*
X157781172Y-114718363D01*
X157802253Y-114809769D01*
X157813707Y-114935301D01*
X157818203Y-115104508D01*
X157818678Y-115215933D01*
X157818678Y-115650627D01*
X157744316Y-115684509D01*
X157685746Y-115709272D01*
X157656730Y-115718391D01*
X157651179Y-115691257D01*
X157646775Y-115618094D01*
X157644078Y-115511263D01*
X157643506Y-115426437D01*
X157641046Y-115303887D01*
X157634412Y-115206668D01*
X157624726Y-115147134D01*
X157617032Y-115134483D01*
X157565311Y-115147402D01*
X157484117Y-115180539D01*
X157390102Y-115225461D01*
X157299917Y-115273735D01*
X157230215Y-115316928D01*
X157197648Y-115346608D01*
X157197519Y-115346929D01*
X157200320Y-115401857D01*
X157225439Y-115454292D01*
X157269541Y-115496881D01*
X157333909Y-115511126D01*
X157388921Y-115509466D01*
X157466835Y-115508245D01*
X157507732Y-115526498D01*
X157532295Y-115574726D01*
X157535392Y-115583820D01*
X157546040Y-115652598D01*
X157517565Y-115694360D01*
X157443344Y-115714263D01*
X157363168Y-115717944D01*
X157218890Y-115690658D01*
X157144203Y-115651690D01*
X157051963Y-115560148D01*
X157003043Y-115447782D01*
X156998654Y-115329051D01*
X157040001Y-115218411D01*
X157102197Y-115149080D01*
X157164294Y-115110265D01*
X157261895Y-115061125D01*
X157375632Y-115011292D01*
X157394590Y-115003677D01*
X157519521Y-114948545D01*
X157591539Y-114899954D01*
X157614700Y-114851647D01*
X157593064Y-114797370D01*
X157555920Y-114754943D01*
X157468127Y-114702702D01*
X157371530Y-114698784D01*
X157282944Y-114739041D01*
X157219186Y-114819326D01*
X157210817Y-114840040D01*
X157162096Y-114916225D01*
X157090965Y-114972785D01*
X157001207Y-115019201D01*
X157001207Y-114887584D01*
X157006490Y-114807168D01*
X157029142Y-114743786D01*
X157079367Y-114676163D01*
X157127582Y-114624076D01*
X157202554Y-114550322D01*
X157260806Y-114510702D01*
X157323372Y-114494810D01*
X157394193Y-114492184D01*
X157549406Y-114515156D01*
G37*
X153444014Y-105032998D02*
X153602006Y-105033863D01*
X153716347Y-105036205D01*
X153794407Y-105040762D01*
X153843554Y-105048270D01*
X153871159Y-105059466D01*
X153884592Y-105075088D01*
X153891221Y-105095873D01*
X153891865Y-105098563D01*
X153901935Y-105147113D01*
X153920575Y-105242905D01*
X153945845Y-105375743D01*
X153975807Y-105535431D01*
X154008522Y-105711774D01*
X154009664Y-105717967D01*
X154042433Y-105890782D01*
X154073093Y-106043469D01*
X154099664Y-106166871D01*
X154120167Y-106251831D01*
X154132626Y-106289190D01*
X154133220Y-106289852D01*
X154169919Y-106308095D01*
X154245586Y-106338497D01*
X154343878Y-106374493D01*
X154344425Y-106374685D01*
X154468233Y-106421222D01*
X154614196Y-106480504D01*
X154751781Y-106540109D01*
X154758293Y-106543056D01*
X154982390Y-106644765D01*
X155478619Y-106305897D01*
X155630846Y-106202592D01*
X155768741Y-106110237D01*
X155884315Y-106034084D01*
X155969579Y-105979385D01*
X156016544Y-105951393D01*
X156021004Y-105949317D01*
X156055134Y-105958560D01*
X156118881Y-106003156D01*
X156214731Y-106085209D01*
X156345169Y-106206821D01*
X156478328Y-106336205D01*
X156606694Y-106463702D01*
X156721581Y-106580046D01*
X156816073Y-106678052D01*
X156883253Y-106750536D01*
X156916206Y-106790313D01*
X156917432Y-106792361D01*
X156921074Y-106819656D01*
X156907350Y-106864234D01*
X156872869Y-106932112D01*
X156814239Y-107029311D01*
X156728070Y-107161851D01*
X156613200Y-107332476D01*
X156511254Y-107482655D01*
X156420123Y-107617350D01*
X156345073Y-107728740D01*
X156291369Y-107809005D01*
X156264280Y-107850325D01*
X156262574Y-107853130D01*
X156265882Y-107892721D01*
X156290953Y-107969669D01*
X156332798Y-108069432D01*
X156347712Y-108101291D01*
X156412786Y-108243226D01*
X156482212Y-108404273D01*
X156538609Y-108543621D01*
X156579247Y-108647044D01*
X156611526Y-108725642D01*
X156630178Y-108766720D01*
X156632497Y-108769885D01*
X156666803Y-108775128D01*
X156747669Y-108789494D01*
X156864343Y-108810937D01*
X157006075Y-108837413D01*
X157162110Y-108866877D01*
X157321698Y-108897283D01*
X157474085Y-108926588D01*
X157608521Y-108952745D01*
X157714252Y-108973710D01*
X157780526Y-108987439D01*
X157796782Y-108991320D01*
X157813573Y-109000900D01*
X157826249Y-109022536D01*
X157835378Y-109063531D01*
X157841531Y-109131189D01*
X157845280Y-109232812D01*
X157847192Y-109375703D01*
X157847840Y-109567165D01*
X157847874Y-109645645D01*
X157847874Y-110283906D01*
X157694598Y-110314160D01*
X157609322Y-110330564D01*
X157482070Y-110354509D01*
X157328315Y-110383107D01*
X157163534Y-110413467D01*
X157117989Y-110421806D01*
X156965932Y-110451370D01*
X156833468Y-110480442D01*
X156731714Y-110506329D01*
X156671788Y-110526337D01*
X156661805Y-110532301D01*
X156637293Y-110574534D01*
X156602148Y-110656370D01*
X156563173Y-110761683D01*
X156555442Y-110784368D01*
X156504360Y-110925018D01*
X156440954Y-111083714D01*
X156378904Y-111226225D01*
X156378598Y-111226886D01*
X156275267Y-111450440D01*
X156954961Y-112450232D01*
X156518621Y-112887300D01*
X156386649Y-113017381D01*
X156266279Y-113132048D01*
X156164273Y-113225181D01*
X156087391Y-113290658D01*
X156042393Y-113322357D01*
X156035938Y-113324368D01*
X155998040Y-113308529D01*
X155920708Y-113264496D01*
X155812389Y-113197490D01*
X155681532Y-113112734D01*
X155540052Y-113017816D01*
X155396461Y-112920998D01*
X155268435Y-112836751D01*
X155164105Y-112770258D01*
X155091600Y-112726702D01*
X155059158Y-112711264D01*
X155019576Y-112724328D01*
X154944519Y-112758750D01*
X154849468Y-112807380D01*
X154839392Y-112812785D01*
X154711391Y-112876980D01*
X154623618Y-112908463D01*
X154569028Y-112908798D01*
X154540575Y-112879548D01*
X154540410Y-112879138D01*
X154526188Y-112844498D01*
X154492269Y-112762269D01*
X154441284Y-112638814D01*
X154375862Y-112480498D01*
X154298634Y-112293686D01*
X154212229Y-112084742D01*
X154128551Y-111882446D01*
X154036588Y-111659200D01*
X153952150Y-111452392D01*
X153877769Y-111268362D01*
X153815974Y-111113451D01*
X153769297Y-110993996D01*
X153740268Y-110916339D01*
X153731322Y-110887356D01*
X153753756Y-110854110D01*
X153812439Y-110801123D01*
X153890689Y-110742704D01*
X154113534Y-110557952D01*
X154287718Y-110346182D01*
X154411154Y-110111856D01*
X154481754Y-109859434D01*
X154497431Y-109593377D01*
X154486036Y-109470575D01*
X154423950Y-109215793D01*
X154317023Y-108990801D01*
X154171889Y-108797817D01*
X153995178Y-108639061D01*
X153793522Y-108516750D01*
X153573554Y-108433105D01*
X153341906Y-108390344D01*
X153105209Y-108390687D01*
X152870095Y-108436352D01*
X152643196Y-108529559D01*
X152431144Y-108672527D01*
X152342636Y-108753383D01*
X152172889Y-108961007D01*
X152054699Y-109187895D01*
X151987278Y-109427433D01*
X151969840Y-109673007D01*
X152001598Y-109918003D01*
X152081765Y-110155808D01*
X152209555Y-110379807D01*
X152384180Y-110583387D01*
X152579312Y-110742704D01*
X152660591Y-110803602D01*
X152718009Y-110856015D01*
X152738678Y-110887406D01*
X152727856Y-110921639D01*
X152697077Y-111003419D01*
X152648874Y-111126407D01*
X152585778Y-111284263D01*
X152510322Y-111470649D01*
X152425038Y-111679226D01*
X152341219Y-111882496D01*
X152248745Y-112105933D01*
X152163089Y-112312984D01*
X152086882Y-112497286D01*
X152022753Y-112652475D01*
X151973332Y-112772188D01*
X151941248Y-112850061D01*
X151929359Y-112879138D01*
X151901274Y-112908677D01*
X151846949Y-112908591D01*
X151759395Y-112877326D01*
X151631619Y-112813329D01*
X151630608Y-112812785D01*
X151534402Y-112763121D01*
X151456631Y-112726945D01*
X151412777Y-112711408D01*
X151410842Y-112711264D01*
X151377829Y-112727024D01*
X151304946Y-112770850D01*
X151200322Y-112837557D01*
X151072090Y-112921964D01*
X150929948Y-113017816D01*
X150785233Y-113114867D01*
X150654804Y-113199270D01*
X150547110Y-113265801D01*
X150470598Y-113309238D01*
X150434062Y-113324368D01*
X150400418Y-113304482D01*
X150332776Y-113248903D01*
X150237893Y-113163754D01*
X150122530Y-113055153D01*
X149993445Y-112929221D01*
X149951229Y-112887149D01*
X149514739Y-112449931D01*
X149846977Y-111962340D01*
X149947946Y-111812605D01*
X150036562Y-111678220D01*
X150107854Y-111566969D01*
X150156850Y-111486639D01*
X150178578Y-111445014D01*
X150179215Y-111442053D01*
X150167760Y-111402818D01*
X150136949Y-111323895D01*
X150092116Y-111218509D01*
X150060647Y-111147954D01*
X150001808Y-111012876D01*
X149946396Y-110876409D01*
X149903436Y-110761103D01*
X149891766Y-110725977D01*
X149858611Y-110632174D01*
X149826201Y-110559694D01*
X149808399Y-110532301D01*
X149769114Y-110515536D01*
X149683374Y-110491770D01*
X149562303Y-110463697D01*
X149417027Y-110434009D01*
X149352012Y-110421806D01*
X149186913Y-110391468D01*
X149028552Y-110362093D01*
X148892404Y-110336569D01*
X148793943Y-110317785D01*
X148775402Y-110314160D01*
X148622127Y-110283906D01*
X148622127Y-109645645D01*
X148622471Y-109435770D01*
X148623884Y-109276980D01*
X148626936Y-109161973D01*
X148632197Y-109083446D01*
X148640237Y-109034096D01*
X148651627Y-109006619D01*
X148666937Y-108993713D01*
X148673218Y-108991320D01*
X148711104Y-108982833D01*
X148794805Y-108965900D01*
X148913567Y-108942566D01*
X149056639Y-108914875D01*
X149213268Y-108884873D01*
X149372703Y-108854604D01*
X149524191Y-108826115D01*
X149656981Y-108801449D01*
X149760319Y-108782651D01*
X149823455Y-108771767D01*
X149837503Y-108769885D01*
X149850230Y-108744704D01*
X149878400Y-108677622D01*
X149916748Y-108581333D01*
X149931391Y-108543621D01*
X149990452Y-108397921D01*
X150060000Y-108236951D01*
X150122288Y-108101291D01*
X150168121Y-107997561D01*
X150198613Y-107912326D01*
X150208792Y-107860126D01*
X150207169Y-107853130D01*
X150185657Y-107820102D01*
X150136535Y-107746643D01*
X150065077Y-107640577D01*
X149976555Y-107509726D01*
X149876241Y-107361912D01*
X149856406Y-107332734D01*
X149740012Y-107159863D01*
X149654452Y-107028226D01*
X149596316Y-106931761D01*
X149562192Y-106864408D01*
X149548669Y-106820106D01*
X149552336Y-106792794D01*
X149552430Y-106792620D01*
X149581293Y-106756746D01*
X149645133Y-106687391D01*
X149737031Y-106591745D01*
X149850067Y-106476999D01*
X149977321Y-106350341D01*
X149991672Y-106336205D01*
X150152043Y-106180903D01*
X150275805Y-106066870D01*
X150365445Y-105992002D01*
X150423448Y-105954196D01*
X150448996Y-105949317D01*
X150486282Y-105970603D01*
X150563657Y-106019773D01*
X150673133Y-106091575D01*
X150806720Y-106180755D01*
X150956430Y-106282063D01*
X150991382Y-106305897D01*
X151487610Y-106644765D01*
X151711707Y-106543056D01*
X151847989Y-106483783D01*
X151994276Y-106424170D01*
X152120035Y-106376640D01*
X152125575Y-106374685D01*
X152223943Y-106338677D01*
X152299771Y-106308229D01*
X152336718Y-106289905D01*
X152336780Y-106289852D01*
X152348504Y-106256729D01*
X152368432Y-106175267D01*
X152394587Y-106054625D01*
X152424990Y-105903959D01*
X152457663Y-105732428D01*
X152460336Y-105717967D01*
X152493110Y-105541235D01*
X152523198Y-105380810D01*
X152548661Y-105246888D01*
X152567559Y-105149663D01*
X152577953Y-105099332D01*
X152578135Y-105098563D01*
X152584461Y-105077153D01*
X152596761Y-105060988D01*
X152622406Y-105049331D01*
X152668765Y-105041445D01*
X152743208Y-105036593D01*
X152853105Y-105034039D01*
X153005825Y-105033045D01*
X153208738Y-105032874D01*
X153235000Y-105032874D01*
X153444014Y-105032998D01*
G36*
X153444014Y-105032998D02*
G01*
X153602006Y-105033863D01*
X153716347Y-105036205D01*
X153794407Y-105040762D01*
X153843554Y-105048270D01*
X153871159Y-105059466D01*
X153884592Y-105075088D01*
X153891221Y-105095873D01*
X153891865Y-105098563D01*
X153901935Y-105147113D01*
X153920575Y-105242905D01*
X153945845Y-105375743D01*
X153975807Y-105535431D01*
X154008522Y-105711774D01*
X154009664Y-105717967D01*
X154042433Y-105890782D01*
X154073093Y-106043469D01*
X154099664Y-106166871D01*
X154120167Y-106251831D01*
X154132626Y-106289190D01*
X154133220Y-106289852D01*
X154169919Y-106308095D01*
X154245586Y-106338497D01*
X154343878Y-106374493D01*
X154344425Y-106374685D01*
X154468233Y-106421222D01*
X154614196Y-106480504D01*
X154751781Y-106540109D01*
X154758293Y-106543056D01*
X154982390Y-106644765D01*
X155478619Y-106305897D01*
X155630846Y-106202592D01*
X155768741Y-106110237D01*
X155884315Y-106034084D01*
X155969579Y-105979385D01*
X156016544Y-105951393D01*
X156021004Y-105949317D01*
X156055134Y-105958560D01*
X156118881Y-106003156D01*
X156214731Y-106085209D01*
X156345169Y-106206821D01*
X156478328Y-106336205D01*
X156606694Y-106463702D01*
X156721581Y-106580046D01*
X156816073Y-106678052D01*
X156883253Y-106750536D01*
X156916206Y-106790313D01*
X156917432Y-106792361D01*
X156921074Y-106819656D01*
X156907350Y-106864234D01*
X156872869Y-106932112D01*
X156814239Y-107029311D01*
X156728070Y-107161851D01*
X156613200Y-107332476D01*
X156511254Y-107482655D01*
X156420123Y-107617350D01*
X156345073Y-107728740D01*
X156291369Y-107809005D01*
X156264280Y-107850325D01*
X156262574Y-107853130D01*
X156265882Y-107892721D01*
X156290953Y-107969669D01*
X156332798Y-108069432D01*
X156347712Y-108101291D01*
X156412786Y-108243226D01*
X156482212Y-108404273D01*
X156538609Y-108543621D01*
X156579247Y-108647044D01*
X156611526Y-108725642D01*
X156630178Y-108766720D01*
X156632497Y-108769885D01*
X156666803Y-108775128D01*
X156747669Y-108789494D01*
X156864343Y-108810937D01*
X157006075Y-108837413D01*
X157162110Y-108866877D01*
X157321698Y-108897283D01*
X157474085Y-108926588D01*
X157608521Y-108952745D01*
X157714252Y-108973710D01*
X157780526Y-108987439D01*
X157796782Y-108991320D01*
X157813573Y-109000900D01*
X157826249Y-109022536D01*
X157835378Y-109063531D01*
X157841531Y-109131189D01*
X157845280Y-109232812D01*
X157847192Y-109375703D01*
X157847840Y-109567165D01*
X157847874Y-109645645D01*
X157847874Y-110283906D01*
X157694598Y-110314160D01*
X157609322Y-110330564D01*
X157482070Y-110354509D01*
X157328315Y-110383107D01*
X157163534Y-110413467D01*
X157117989Y-110421806D01*
X156965932Y-110451370D01*
X156833468Y-110480442D01*
X156731714Y-110506329D01*
X156671788Y-110526337D01*
X156661805Y-110532301D01*
X156637293Y-110574534D01*
X156602148Y-110656370D01*
X156563173Y-110761683D01*
X156555442Y-110784368D01*
X156504360Y-110925018D01*
X156440954Y-111083714D01*
X156378904Y-111226225D01*
X156378598Y-111226886D01*
X156275267Y-111450440D01*
X156954961Y-112450232D01*
X156518621Y-112887300D01*
X156386649Y-113017381D01*
X156266279Y-113132048D01*
X156164273Y-113225181D01*
X156087391Y-113290658D01*
X156042393Y-113322357D01*
X156035938Y-113324368D01*
X155998040Y-113308529D01*
X155920708Y-113264496D01*
X155812389Y-113197490D01*
X155681532Y-113112734D01*
X155540052Y-113017816D01*
X155396461Y-112920998D01*
X155268435Y-112836751D01*
X155164105Y-112770258D01*
X155091600Y-112726702D01*
X155059158Y-112711264D01*
X155019576Y-112724328D01*
X154944519Y-112758750D01*
X154849468Y-112807380D01*
X154839392Y-112812785D01*
X154711391Y-112876980D01*
X154623618Y-112908463D01*
X154569028Y-112908798D01*
X154540575Y-112879548D01*
X154540410Y-112879138D01*
X154526188Y-112844498D01*
X154492269Y-112762269D01*
X154441284Y-112638814D01*
X154375862Y-112480498D01*
X154298634Y-112293686D01*
X154212229Y-112084742D01*
X154128551Y-111882446D01*
X154036588Y-111659200D01*
X153952150Y-111452392D01*
X153877769Y-111268362D01*
X153815974Y-111113451D01*
X153769297Y-110993996D01*
X153740268Y-110916339D01*
X153731322Y-110887356D01*
X153753756Y-110854110D01*
X153812439Y-110801123D01*
X153890689Y-110742704D01*
X154113534Y-110557952D01*
X154287718Y-110346182D01*
X154411154Y-110111856D01*
X154481754Y-109859434D01*
X154497431Y-109593377D01*
X154486036Y-109470575D01*
X154423950Y-109215793D01*
X154317023Y-108990801D01*
X154171889Y-108797817D01*
X153995178Y-108639061D01*
X153793522Y-108516750D01*
X153573554Y-108433105D01*
X153341906Y-108390344D01*
X153105209Y-108390687D01*
X152870095Y-108436352D01*
X152643196Y-108529559D01*
X152431144Y-108672527D01*
X152342636Y-108753383D01*
X152172889Y-108961007D01*
X152054699Y-109187895D01*
X151987278Y-109427433D01*
X151969840Y-109673007D01*
X152001598Y-109918003D01*
X152081765Y-110155808D01*
X152209555Y-110379807D01*
X152384180Y-110583387D01*
X152579312Y-110742704D01*
X152660591Y-110803602D01*
X152718009Y-110856015D01*
X152738678Y-110887406D01*
X152727856Y-110921639D01*
X152697077Y-111003419D01*
X152648874Y-111126407D01*
X152585778Y-111284263D01*
X152510322Y-111470649D01*
X152425038Y-111679226D01*
X152341219Y-111882496D01*
X152248745Y-112105933D01*
X152163089Y-112312984D01*
X152086882Y-112497286D01*
X152022753Y-112652475D01*
X151973332Y-112772188D01*
X151941248Y-112850061D01*
X151929359Y-112879138D01*
X151901274Y-112908677D01*
X151846949Y-112908591D01*
X151759395Y-112877326D01*
X151631619Y-112813329D01*
X151630608Y-112812785D01*
X151534402Y-112763121D01*
X151456631Y-112726945D01*
X151412777Y-112711408D01*
X151410842Y-112711264D01*
X151377829Y-112727024D01*
X151304946Y-112770850D01*
X151200322Y-112837557D01*
X151072090Y-112921964D01*
X150929948Y-113017816D01*
X150785233Y-113114867D01*
X150654804Y-113199270D01*
X150547110Y-113265801D01*
X150470598Y-113309238D01*
X150434062Y-113324368D01*
X150400418Y-113304482D01*
X150332776Y-113248903D01*
X150237893Y-113163754D01*
X150122530Y-113055153D01*
X149993445Y-112929221D01*
X149951229Y-112887149D01*
X149514739Y-112449931D01*
X149846977Y-111962340D01*
X149947946Y-111812605D01*
X150036562Y-111678220D01*
X150107854Y-111566969D01*
X150156850Y-111486639D01*
X150178578Y-111445014D01*
X150179215Y-111442053D01*
X150167760Y-111402818D01*
X150136949Y-111323895D01*
X150092116Y-111218509D01*
X150060647Y-111147954D01*
X150001808Y-111012876D01*
X149946396Y-110876409D01*
X149903436Y-110761103D01*
X149891766Y-110725977D01*
X149858611Y-110632174D01*
X149826201Y-110559694D01*
X149808399Y-110532301D01*
X149769114Y-110515536D01*
X149683374Y-110491770D01*
X149562303Y-110463697D01*
X149417027Y-110434009D01*
X149352012Y-110421806D01*
X149186913Y-110391468D01*
X149028552Y-110362093D01*
X148892404Y-110336569D01*
X148793943Y-110317785D01*
X148775402Y-110314160D01*
X148622127Y-110283906D01*
X148622127Y-109645645D01*
X148622471Y-109435770D01*
X148623884Y-109276980D01*
X148626936Y-109161973D01*
X148632197Y-109083446D01*
X148640237Y-109034096D01*
X148651627Y-109006619D01*
X148666937Y-108993713D01*
X148673218Y-108991320D01*
X148711104Y-108982833D01*
X148794805Y-108965900D01*
X148913567Y-108942566D01*
X149056639Y-108914875D01*
X149213268Y-108884873D01*
X149372703Y-108854604D01*
X149524191Y-108826115D01*
X149656981Y-108801449D01*
X149760319Y-108782651D01*
X149823455Y-108771767D01*
X149837503Y-108769885D01*
X149850230Y-108744704D01*
X149878400Y-108677622D01*
X149916748Y-108581333D01*
X149931391Y-108543621D01*
X149990452Y-108397921D01*
X150060000Y-108236951D01*
X150122288Y-108101291D01*
X150168121Y-107997561D01*
X150198613Y-107912326D01*
X150208792Y-107860126D01*
X150207169Y-107853130D01*
X150185657Y-107820102D01*
X150136535Y-107746643D01*
X150065077Y-107640577D01*
X149976555Y-107509726D01*
X149876241Y-107361912D01*
X149856406Y-107332734D01*
X149740012Y-107159863D01*
X149654452Y-107028226D01*
X149596316Y-106931761D01*
X149562192Y-106864408D01*
X149548669Y-106820106D01*
X149552336Y-106792794D01*
X149552430Y-106792620D01*
X149581293Y-106756746D01*
X149645133Y-106687391D01*
X149737031Y-106591745D01*
X149850067Y-106476999D01*
X149977321Y-106350341D01*
X149991672Y-106336205D01*
X150152043Y-106180903D01*
X150275805Y-106066870D01*
X150365445Y-105992002D01*
X150423448Y-105954196D01*
X150448996Y-105949317D01*
X150486282Y-105970603D01*
X150563657Y-106019773D01*
X150673133Y-106091575D01*
X150806720Y-106180755D01*
X150956430Y-106282063D01*
X150991382Y-106305897D01*
X151487610Y-106644765D01*
X151711707Y-106543056D01*
X151847989Y-106483783D01*
X151994276Y-106424170D01*
X152120035Y-106376640D01*
X152125575Y-106374685D01*
X152223943Y-106338677D01*
X152299771Y-106308229D01*
X152336718Y-106289905D01*
X152336780Y-106289852D01*
X152348504Y-106256729D01*
X152368432Y-106175267D01*
X152394587Y-106054625D01*
X152424990Y-105903959D01*
X152457663Y-105732428D01*
X152460336Y-105717967D01*
X152493110Y-105541235D01*
X152523198Y-105380810D01*
X152548661Y-105246888D01*
X152567559Y-105149663D01*
X152577953Y-105099332D01*
X152578135Y-105098563D01*
X152584461Y-105077153D01*
X152596761Y-105060988D01*
X152622406Y-105049331D01*
X152668765Y-105041445D01*
X152743208Y-105036593D01*
X152853105Y-105034039D01*
X153005825Y-105033045D01*
X153208738Y-105032874D01*
X153235000Y-105032874D01*
X153444014Y-105032998D01*
G37*
%TO.C,J1*%
D12*
X136980000Y-95080000D02*
X138360000Y-95080000D01*
X136980000Y-96460000D02*
X136980000Y-95080000D01*
X136980000Y-97730000D02*
X136980000Y-120700000D01*
X136980000Y-97730000D02*
X139630000Y-97730000D01*
X136980000Y-120700000D02*
X142280000Y-120700000D01*
X139630000Y-95080000D02*
X142280000Y-95080000D01*
X139630000Y-97730000D02*
X139630000Y-95080000D01*
X142280000Y-95080000D02*
X142280000Y-120700000D01*
%TO.C,J2*%
X164180000Y-95080000D02*
X165560000Y-95080000D01*
X164180000Y-96460000D02*
X164180000Y-95080000D01*
X164180000Y-97730000D02*
X164180000Y-120700000D01*
X164180000Y-97730000D02*
X166830000Y-97730000D01*
X164180000Y-120700000D02*
X169480000Y-120700000D01*
X166830000Y-95080000D02*
X169480000Y-95080000D01*
X166830000Y-97730000D02*
X166830000Y-95080000D01*
X169480000Y-95080000D02*
X169480000Y-120700000D01*
%TD*%
M02*
