M48
; DRILL file KiCad 10.0.1 date 2026-05-18T15:35:20
; FORMAT={-:-/ absolute / metric / decimal}
; #@! TF.CreationDate,2026-05-18T15:35:20+09:00
; #@! TF.GenerationSoftware,Kicad,Pcbnew,10.0.1
; #@! TF.FileFunction,Plated,1,2,PTH
FMAT,2
METRIC
; #@! TA.AperFunction,Plated,PTH,ViaDrill
T1C0.300
; #@! TA.AperFunction,Plated,PTH,ComponentDrill
T2C1.000
%
G90
G05
T1
X110.928Y-101.619
X111.42Y-102.25
X112.58Y-99.04
X124.26Y-95.8
X125.73Y-90.67
X126.53Y-90.649
X127.33Y-90.638
X129.13Y-108.66
X148.78Y-114.04
X149.576Y-113.963
X150.376Y-113.937
X150.41Y-103.97
X150.91Y-105.27
X151.176Y-113.919
X151.99Y-113.96
T2
X115.05Y-61.63
X115.05Y-64.17
X115.05Y-66.71
X115.05Y-69.25
X115.05Y-71.79
X115.05Y-74.33
X115.05Y-76.87
X115.05Y-79.41
X115.05Y-81.95
X115.05Y-84.49
X115.05Y-87.03
X115.05Y-89.57
X115.05Y-92.11
X115.05Y-94.65
X115.05Y-97.19
X115.05Y-99.73
X115.05Y-102.27
X115.05Y-104.81
X115.05Y-107.35
X115.05Y-109.89
X115.05Y-112.43
X115.05Y-114.97
X115.05Y-117.51
X115.05Y-120.05
X117.59Y-61.63
X117.59Y-64.17
X117.59Y-66.71
X117.59Y-69.25
X117.59Y-71.79
X117.59Y-74.33
X117.59Y-76.87
X117.59Y-79.41
X117.59Y-81.95
X117.59Y-84.49
X117.59Y-87.03
X117.59Y-89.57
X117.59Y-92.11
X117.59Y-94.65
X117.59Y-97.19
X117.59Y-99.73
X117.59Y-102.27
X117.59Y-104.81
X117.59Y-107.35
X117.59Y-109.89
X117.59Y-112.43
X117.59Y-114.97
X117.59Y-117.51
X117.59Y-120.05
X138.36Y-96.46
X138.36Y-99.0
X138.36Y-101.54
X138.36Y-104.08
X138.36Y-106.62
X138.36Y-109.16
X138.36Y-111.7
X138.36Y-114.24
X138.36Y-116.78
X138.36Y-119.32
X140.9Y-96.46
X140.9Y-99.0
X140.9Y-101.54
X140.9Y-104.08
X140.9Y-106.62
X140.9Y-109.16
X140.9Y-111.7
X140.9Y-114.24
X140.9Y-116.78
X140.9Y-119.32
X165.56Y-96.46
X165.56Y-99.0
X165.56Y-101.54
X165.56Y-104.08
X165.56Y-106.62
X165.56Y-109.16
X165.56Y-111.7
X165.56Y-114.24
X165.56Y-116.78
X165.56Y-119.32
X168.1Y-96.46
X168.1Y-99.0
X168.1Y-101.54
X168.1Y-104.08
X168.1Y-106.62
X168.1Y-109.16
X168.1Y-111.7
X168.1Y-114.24
X168.1Y-116.78
X168.1Y-119.32
M30
