%TF.GenerationSoftware,KiCad,Pcbnew,10.0.1*%
%TF.CreationDate,2026-05-18T15:35:15+09:00*%
%TF.ProjectId,ez_usb_cyclone10,657a5f75-7362-45f6-9379-636c6f6e6531,rev?*%
%TF.SameCoordinates,Original*%
%TF.FileFunction,Copper,L2,Bot*%
%TF.FilePolarity,Positive*%
%FSLAX46Y46*%
G04 Gerber Fmt 4.6, Leading zero omitted, Abs format (unit mm)*
G04 Created by KiCad (PCBNEW 10.0.1) date 2026-05-18 15:35:15*
%MOMM*%
%LPD*%
G01*
G04 APERTURE LIST*
%TA.AperFunction,ComponentPad*%
%ADD10R,1.700000X1.700000*%
%TD*%
%TA.AperFunction,ComponentPad*%
%ADD11C,1.700000*%
%TD*%
%TA.AperFunction,ViaPad*%
%ADD12C,0.600000*%
%TD*%
%TA.AperFunction,Conductor*%
%ADD13C,0.200000*%
%TD*%
G04 APERTURE END LIST*
D10*
%TO.P,J4,1,Pin_1_1*%
%TO.N,unconnected-(J4-Pin_1-Pad1)*%
X115050000Y-61630020D03*
D11*
%TO.P,J4,2,Pin_2_2*%
%TO.N,unconnected-(J4-Pin_2-Pad2)*%
X117590000Y-61630020D03*
%TO.P,J4,3,Pin_3_3*%
%TO.N,/GND*%
X115050000Y-64170020D03*
%TO.P,J4,4,Pin_4_4*%
X117590000Y-64170020D03*
%TO.P,J4,5,Pin_5_5*%
%TO.N,unconnected-(J4-Pin_5-Pad5)*%
X115050000Y-66710020D03*
%TO.P,J4,6,Pin_6_6*%
%TO.N,unconnected-(J4-Pin_6-Pad6)*%
X117590000Y-66710020D03*
%TO.P,J4,7,Pin_7_7*%
%TO.N,unconnected-(J4-Pin_7-Pad7)*%
X115050000Y-69250020D03*
%TO.P,J4,8,Pin_8_8*%
%TO.N,unconnected-(J4-Pin_8-Pad8)*%
X117590000Y-69250020D03*
%TO.P,J4,9,Pin_9_9*%
%TO.N,unconnected-(J4-Pin_9-Pad9)*%
X115050000Y-71790020D03*
%TO.P,J4,10,Pin_10_10*%
%TO.N,unconnected-(J4-Pin_10-Pad10)*%
X117590000Y-71790020D03*
%TO.P,J4,11,Pin_11_11*%
%TO.N,/FX2_FD15*%
X115050000Y-74330020D03*
%TO.P,J4,12,Pin_12_12*%
%TO.N,/FX2_FD7*%
X117590000Y-74330020D03*
%TO.P,J4,13,Pin_13_13*%
%TO.N,/FX2_FD14*%
X115050000Y-76870020D03*
%TO.P,J4,14,Pin_14_14*%
%TO.N,/FX2_FD6*%
X117590000Y-76870020D03*
%TO.P,J4,15,Pin_15_15*%
%TO.N,/FX2_FD13*%
X115050000Y-79410020D03*
%TO.P,J4,16,Pin_16_16*%
%TO.N,/FX2_FD5*%
X117590000Y-79410020D03*
%TO.P,J4,17,Pin_17_17*%
%TO.N,/FX2_FD12*%
X115050000Y-81950020D03*
%TO.P,J4,18,Pin_18_18*%
%TO.N,/FX2_FD4*%
X117590000Y-81950020D03*
%TO.P,J4,19,Pin_19_19*%
%TO.N,/FX2_FD11*%
X115050000Y-84490020D03*
%TO.P,J4,20,Pin_20_20*%
%TO.N,/FX2_FD3*%
X117590000Y-84490020D03*
%TO.P,J4,21,Pin_21_21*%
%TO.N,/FX2_FD10*%
X115050000Y-87030020D03*
%TO.P,J4,22,Pin_22_22*%
%TO.N,/FX2_FD2*%
X117590000Y-87030020D03*
%TO.P,J4,23,Pin_23_23*%
%TO.N,/FX2_FD9*%
X115050000Y-89570020D03*
%TO.P,J4,24,Pin_24_24*%
%TO.N,/FX2_FD1*%
X117590000Y-89570020D03*
%TO.P,J4,25,Pin_25_25*%
%TO.N,/FX2_FD8*%
X115050000Y-92110020D03*
%TO.P,J4,26,Pin_26_26*%
%TO.N,/FX2_FD0*%
X117590000Y-92110020D03*
%TO.P,J4,27,Pin_27_27*%
%TO.N,/FX2_SLWR*%
X115050000Y-94650020D03*
%TO.P,J4,28,Pin_28_28*%
%TO.N,/FX2_SLRD*%
X117590000Y-94650020D03*
%TO.P,J4,29,Pin_29_29*%
%TO.N,/FX2_FLAGD*%
X115050000Y-97190020D03*
%TO.P,J4,30,Pin_30_30*%
%TO.N,/FX2_FLAGC*%
X117590000Y-97190020D03*
%TO.P,J4,31,Pin_31_31*%
%TO.N,/FX2_FLAGB*%
X115050000Y-99730020D03*
%TO.P,J4,32,Pin_32_32*%
%TO.N,/FX2_FLAGA*%
X117590000Y-99730020D03*
%TO.P,J4,33,Pin_33_33*%
%TO.N,/FX2_PKTEND*%
X115050000Y-102270020D03*
%TO.P,J4,34,Pin_34_34*%
%TO.N,/FX2_SLOE*%
X117590000Y-102270020D03*
%TO.P,J4,35,Pin_35_35*%
%TO.N,/GND*%
X115050000Y-104810020D03*
%TO.P,J4,36,Pin_36_36*%
%TO.N,/FX2_ADDR1*%
X117590000Y-104810020D03*
%TO.P,J4,37,Pin_37_37*%
%TO.N,unconnected-(J4-Pin_37-Pad37)*%
X115050000Y-107350020D03*
%TO.P,J4,38,Pin_38_38*%
%TO.N,/FX2_ADDR0*%
X117590000Y-107350020D03*
%TO.P,J4,39,Pin_39_39*%
%TO.N,unconnected-(J4-Pin_39-Pad39)*%
X115050000Y-109890020D03*
%TO.P,J4,40,Pin_40_40*%
%TO.N,unconnected-(J4-Pin_40-Pad40)*%
X117590000Y-109890020D03*
%TO.P,J4,41,Pin_41_41*%
%TO.N,unconnected-(J4-Pin_41-Pad41)*%
X115050000Y-112430020D03*
%TO.P,J4,42,Pin_42_42*%
%TO.N,unconnected-(J4-Pin_42-Pad42)*%
X117590000Y-112430020D03*
%TO.P,J4,43,Pin_43_43*%
%TO.N,unconnected-(J4-Pin_43-Pad43)*%
X115050000Y-114970020D03*
%TO.P,J4,44,Pin_44_44*%
%TO.N,/FX2_IFCLK*%
X117590000Y-114970020D03*
%TO.P,J4,45,Pin_45_45*%
%TO.N,unconnected-(J4-Pin_45-Pad45)*%
X115050000Y-117510020D03*
%TO.P,J4,46,Pin_46_46*%
%TO.N,unconnected-(J4-Pin_46-Pad46)*%
X117590000Y-117510020D03*
%TO.P,J4,47,Pin_47_47*%
%TO.N,/GND*%
X115050000Y-120050020D03*
%TO.P,J4,48,Pin_48_48*%
X117590000Y-120050020D03*
%TD*%
D10*
%TO.P,J1,1,Pin_1_1*%
%TO.N,/FX2_FD13*%
X138360000Y-96460000D03*
D11*
%TO.P,J1,2,Pin_2_2*%
%TO.N,/FX2_FD14*%
X140900000Y-96460000D03*
%TO.P,J1,3,Pin_3_3*%
%TO.N,/FX2_FD15*%
X138360000Y-99000000D03*
%TO.P,J1,4,Pin_4_4*%
%TO.N,/GND*%
X140900000Y-99000000D03*
%TO.P,J1,5,Pin_5_5*%
%TO.N,unconnected-(J1-Pin_5-Pad5)*%
X138360000Y-101540000D03*
%TO.P,J1,6,Pin_6_6*%
%TO.N,/GND*%
X140900000Y-101540000D03*
%TO.P,J1,7,Pin_7_7*%
%TO.N,/FX2_SLRD*%
X138360000Y-104080000D03*
%TO.P,J1,8,Pin_8_8*%
%TO.N,/FX2_SLWR*%
X140900000Y-104080000D03*
%TO.P,J1,9,Pin_9_9*%
%TO.N,/GND*%
X138360000Y-106620000D03*
%TO.P,J1,10,Pin_10_10*%
%TO.N,unconnected-(J1-Pin_10-Pad10)*%
X140900000Y-106620000D03*
%TO.P,J1,11,Pin_11_11*%
%TO.N,/GND*%
X138360000Y-109160000D03*
%TO.P,J1,12,Pin_12_12*%
%TO.N,/FX2_IFCLK*%
X140900000Y-109160000D03*
%TO.P,J1,13,Pin_13_13*%
%TO.N,unconnected-(J1-Pin_13-Pad13)*%
X138360000Y-111700000D03*
%TO.P,J1,14,Pin_14_14*%
%TO.N,unconnected-(J1-Pin_14-Pad14)*%
X140900000Y-111700000D03*
%TO.P,J1,15,Pin_15_15*%
%TO.N,/FX2_FD0*%
X138360000Y-114240000D03*
%TO.P,J1,16,Pin_16_16*%
%TO.N,/FX2_FD1*%
X140900000Y-114240000D03*
%TO.P,J1,17,Pin_17_17*%
%TO.N,/FX2_FD2*%
X138360000Y-116780000D03*
%TO.P,J1,18,Pin_18_18*%
%TO.N,/FX2_FD3*%
X140900000Y-116780000D03*
%TO.P,J1,19,Pin_19_19*%
%TO.N,/GND*%
X138360000Y-119320000D03*
%TO.P,J1,20,Pin_20_20*%
%TO.N,unconnected-(J1-Pin_20-Pad20)*%
X140900000Y-119320000D03*
%TD*%
D10*
%TO.P,J2,1,Pin_1_1*%
%TO.N,/FX2_FD12*%
X165560000Y-96460000D03*
D11*
%TO.P,J2,2,Pin_2_2*%
%TO.N,/FX2_FD11*%
X168100000Y-96460000D03*
%TO.P,J2,3,Pin_3_3*%
%TO.N,/FX2_FD10*%
X165560000Y-99000000D03*
%TO.P,J2,4,Pin_4_4*%
%TO.N,/FX2_FD9*%
X168100000Y-99000000D03*
%TO.P,J2,5,Pin_5_5*%
%TO.N,/FX2_FD8*%
X165560000Y-101540000D03*
%TO.P,J2,6,Pin_6_6*%
%TO.N,/FX2_FLAGD*%
X168100000Y-101540000D03*
%TO.P,J2,7,Pin_7_7*%
%TO.N,/FX2_PKTEND*%
X165560000Y-104080000D03*
%TO.P,J2,8,Pin_8_8*%
%TO.N,/FX2_ADDR1*%
X168100000Y-104080000D03*
%TO.P,J2,9,Pin_9_9*%
%TO.N,/FX2_ADDR0*%
X165560000Y-106620000D03*
%TO.P,J2,10,Pin_10_10*%
%TO.N,/PA3*%
X168100000Y-106620000D03*
%TO.P,J2,11,Pin_11_11*%
%TO.N,/FX2_SLOE*%
X165560000Y-109160000D03*
%TO.P,J2,12,Pin_12_12*%
%TO.N,/PA1*%
X168100000Y-109160000D03*
%TO.P,J2,13,Pin_13_13*%
%TO.N,/PA0*%
X165560000Y-111700000D03*
%TO.P,J2,14,Pin_14_14*%
%TO.N,/FX2_FLAGC*%
X168100000Y-111700000D03*
%TO.P,J2,15,Pin_15_15*%
%TO.N,/FX2_FLAGB*%
X165560000Y-114240000D03*
%TO.P,J2,16,Pin_16_16*%
%TO.N,/FX2_FLAGA*%
X168100000Y-114240000D03*
%TO.P,J2,17,Pin_17_17*%
%TO.N,/FX2_FD7*%
X165560000Y-116780000D03*
%TO.P,J2,18,Pin_18_18*%
%TO.N,/FX2_FD6*%
X168100000Y-116780000D03*
%TO.P,J2,19,Pin_19_19*%
%TO.N,/FX2_FD5*%
X165560000Y-119320000D03*
%TO.P,J2,20,Pin_20_20*%
%TO.N,/FX2_FD4*%
X168100000Y-119320000D03*
%TD*%
D12*
%TO.N,/FX2_FD15*%
X127329662Y-90638164D03*
%TO.N,/FX2_FD14*%
X126529740Y-90649494D03*
%TO.N,/FX2_FD13*%
X125730000Y-90670000D03*
%TO.N,/FX2_SLWR*%
X124260000Y-95800000D03*
%TO.N,/FX2_FLAGC*%
X150375827Y-113936555D03*
X112580000Y-99040000D03*
%TO.N,/FX2_FLAGB*%
X151990000Y-113960000D03*
X110928106Y-101619093D03*
%TO.N,/FX2_FLAGA*%
X111420000Y-102250000D03*
X151175631Y-113918762D03*
%TO.N,/FX2_PKTEND*%
X150410000Y-103970000D03*
%TO.N,/FX2_SLOE*%
X149576248Y-113962587D03*
X129130000Y-108660000D03*
%TO.N,/FX2_ADDR1*%
X150910000Y-105270000D03*
%TO.N,/FX2_ADDR0*%
X148780000Y-114040000D03*
%TD*%
%TO.N,/FX2_FD15*%
D13*
X127329662Y-90638164D02*
X127329662Y-81159682D01*
X127329662Y-81159682D02*
X119350000Y-73180020D01*
X115050000Y-74330020D02*
X116200000Y-73180020D01*
X116200000Y-73180020D02*
X119350000Y-73180020D01*
%TO.N,/FX2_FD14*%
X126529740Y-82459760D02*
X119550000Y-75480020D01*
X115050000Y-76870020D02*
X116440000Y-75480020D01*
X126529740Y-90649494D02*
X126529740Y-82459760D01*
X116440000Y-75480020D02*
X119550000Y-75480020D01*
%TO.N,/FX2_FD13*%
X125730000Y-83850020D02*
X119900000Y-78020020D01*
X116440000Y-78020020D02*
X119900000Y-78020020D01*
X125730000Y-90670000D02*
X125730000Y-83850020D01*
X115050000Y-79410020D02*
X116440000Y-78020020D01*
%TO.N,/FX2_FD12*%
X124412032Y-91660020D02*
X119390000Y-86637988D01*
X116229980Y-83130000D02*
X115050000Y-81950020D01*
X119390000Y-86637988D02*
X119390000Y-83740000D01*
X119390000Y-83740000D02*
X118780000Y-83130000D01*
X162742744Y-96460000D02*
X157942764Y-91660020D01*
X118780000Y-83130000D02*
X116229980Y-83130000D01*
X157942764Y-91660020D02*
X124412032Y-91660020D01*
X165560000Y-96460000D02*
X162742744Y-96460000D01*
%TO.N,/FX2_FD11*%
X163507058Y-97790000D02*
X166770000Y-97790000D01*
X124246346Y-92060020D02*
X157777078Y-92060020D01*
X116200000Y-85640020D02*
X117826346Y-85640020D01*
X166770000Y-97790000D02*
X168100000Y-96460000D01*
X117826346Y-85640020D02*
X124246346Y-92060020D01*
X157777078Y-92060020D02*
X163507058Y-97790000D01*
X115050000Y-84490020D02*
X116200000Y-85640020D01*
%TO.N,/FX2_FD10*%
X118820000Y-88420020D02*
X116440000Y-88420020D01*
X116440000Y-88420020D02*
X115050000Y-87030020D01*
X122860000Y-92460020D02*
X118820000Y-88420020D01*
X165560000Y-99000000D02*
X164151372Y-99000000D01*
X157611392Y-92460020D02*
X122860000Y-92460020D01*
X164151372Y-99000000D02*
X157611392Y-92460020D01*
%TO.N,/FX2_FD9*%
X166710000Y-100390000D02*
X168100000Y-99000000D01*
X122630000Y-92860020D02*
X157445706Y-92860020D01*
X116200000Y-90720020D02*
X120490000Y-90720020D01*
X115050000Y-89570020D02*
X116200000Y-90720020D01*
X157445706Y-92860020D02*
X164975686Y-100390000D01*
X164975686Y-100390000D02*
X166710000Y-100390000D01*
X120490000Y-90720020D02*
X122630000Y-92860020D01*
%TO.N,/FX2_FD8*%
X157280020Y-93260020D02*
X116200000Y-93260020D01*
X116200000Y-93260020D02*
X115050000Y-92110020D01*
X165560000Y-101540000D02*
X157280020Y-93260020D01*
%TO.N,/FX2_SLWR*%
X116200000Y-95800020D02*
X124259980Y-95800020D01*
X115050000Y-94650020D02*
X116200000Y-95800020D01*
X124259980Y-95800020D02*
X124260000Y-95800000D01*
%TO.N,/FX2_FLAGD*%
X168100000Y-101540000D02*
X171590000Y-105030000D01*
X171590000Y-119590000D02*
X166960000Y-124220000D01*
X171590000Y-105030000D02*
X171590000Y-119590000D01*
X113581451Y-97190020D02*
X110328106Y-100443365D01*
X110328106Y-100443365D02*
X110328106Y-120828106D01*
X166960000Y-124220000D02*
X113720000Y-124220000D01*
X110328106Y-120828106D02*
X113720000Y-124220000D01*
X115050000Y-97190020D02*
X113581451Y-97190020D01*
%TO.N,/FX2_FLAGC*%
X112580000Y-121380000D02*
X114220000Y-123020000D01*
X142161371Y-123020000D02*
X144290685Y-120890685D01*
X114220000Y-123020000D02*
X142161371Y-123020000D01*
X144290685Y-120890685D02*
X150375827Y-114805544D01*
X112580000Y-99040000D02*
X112580000Y-121380000D01*
X150375827Y-114805544D02*
X150375827Y-113936555D01*
%TO.N,/FX2_FLAGB*%
X110820000Y-101727199D02*
X110820000Y-120751372D01*
X151990000Y-114322742D02*
X142492741Y-123820000D01*
X151990000Y-113960000D02*
X151990000Y-114322742D01*
X110928106Y-101619093D02*
X110820000Y-101727199D01*
X110820000Y-120751372D02*
X113888628Y-123820000D01*
X142492741Y-123820000D02*
X113888628Y-123820000D01*
%TO.N,/FX2_FLAGA*%
X142327056Y-123420000D02*
X114190000Y-123420000D01*
X111420000Y-120785686D02*
X111420000Y-102250000D01*
X151175631Y-114571425D02*
X142327056Y-123420000D01*
X114054314Y-123420000D02*
X111420000Y-120785686D01*
X114190000Y-123420000D02*
X114054314Y-123420000D01*
X151175631Y-113918762D02*
X151175631Y-114571425D01*
%TO.N,/FX2_PKTEND*%
X118066346Y-103420020D02*
X116200000Y-103420020D01*
X149150000Y-105230000D02*
X119876326Y-105230000D01*
X116200000Y-103420020D02*
X115050000Y-102270020D01*
X119876326Y-105230000D02*
X118066346Y-103420020D01*
X150410000Y-103970000D02*
X149150000Y-105230000D01*
%TO.N,/FX2_SLOE*%
X141995685Y-122620000D02*
X136080000Y-122620000D01*
X149576248Y-113962587D02*
X149576248Y-115039437D01*
X136080000Y-122620000D02*
X129130000Y-115670000D01*
X149576248Y-115039437D02*
X141995685Y-122620000D01*
X129130000Y-115670000D02*
X129130000Y-108660000D01*
%TO.N,/FX2_ADDR1*%
X118409980Y-105630000D02*
X117590000Y-104810020D01*
X134680000Y-107770000D02*
X132540000Y-105630000D01*
X148410000Y-107770000D02*
X134680000Y-107770000D01*
X150910000Y-105270000D02*
X148410000Y-107770000D01*
X132540000Y-105630000D02*
X118409980Y-105630000D01*
%TO.N,/FX2_ADDR0*%
X134380000Y-120270000D02*
X134380000Y-110400000D01*
X136330000Y-122220000D02*
X134380000Y-120270000D01*
X134380000Y-110400000D02*
X131330020Y-107350020D01*
X148780000Y-115270000D02*
X141830000Y-122220000D01*
X141830000Y-122220000D02*
X136330000Y-122220000D01*
X131330020Y-107350020D02*
X117590000Y-107350020D01*
X148780000Y-114040000D02*
X148780000Y-115270000D01*
%TD*%
%TA.AperFunction,Conductor*%
%TO.N,/GND*%
G36*
X131616922Y-58341280D02*
G01*
X131633878Y-58343190D01*
X131707268Y-58351458D01*
X131734333Y-58357636D01*
X131813539Y-58385351D01*
X131838549Y-58397395D01*
X131909606Y-58442043D01*
X131931313Y-58459355D01*
X131990644Y-58518686D01*
X132007957Y-58540395D01*
X132052602Y-58611447D01*
X132064649Y-58636464D01*
X132092362Y-58715662D01*
X132098541Y-58742734D01*
X132108720Y-58833076D01*
X132109500Y-58846959D01*
X132109500Y-86557317D01*
X132140045Y-86769767D01*
X132140046Y-86769771D01*
X132200511Y-86975701D01*
X132200516Y-86975713D01*
X132289671Y-87170938D01*
X132289680Y-87170954D01*
X132405718Y-87351512D01*
X132546275Y-87513724D01*
X132708487Y-87654281D01*
X132889045Y-87770319D01*
X132889061Y-87770328D01*
X133054865Y-87846047D01*
X133084290Y-87859485D01*
X133084292Y-87859485D01*
X133084298Y-87859488D01*
X133255670Y-87909806D01*
X133290231Y-87919954D01*
X133502682Y-87950500D01*
X133544108Y-87950500D01*
X172174108Y-87950500D01*
X172233040Y-87950500D01*
X172246922Y-87951280D01*
X172263878Y-87953190D01*
X172337268Y-87961458D01*
X172364333Y-87967636D01*
X172443539Y-87995351D01*
X172468549Y-88007395D01*
X172539606Y-88052043D01*
X172561313Y-88069355D01*
X172620644Y-88128686D01*
X172637957Y-88150395D01*
X172682602Y-88221447D01*
X172694649Y-88246464D01*
X172722362Y-88325662D01*
X172728541Y-88352734D01*
X172738720Y-88443076D01*
X172739500Y-88456959D01*
X172739500Y-124833040D01*
X172738720Y-124846923D01*
X172728541Y-124937265D01*
X172722362Y-124964337D01*
X172694649Y-125043535D01*
X172682602Y-125068552D01*
X172637957Y-125139604D01*
X172620644Y-125161313D01*
X172561313Y-125220644D01*
X172539604Y-125237957D01*
X172468552Y-125282602D01*
X172443535Y-125294649D01*
X172364337Y-125322362D01*
X172337265Y-125328541D01*
X172246923Y-125338720D01*
X172233040Y-125339500D01*
X110246960Y-125339500D01*
X110233077Y-125338720D01*
X110142734Y-125328541D01*
X110115662Y-125322362D01*
X110036464Y-125294649D01*
X110011447Y-125282602D01*
X109940395Y-125237957D01*
X109918686Y-125220644D01*
X109859355Y-125161313D01*
X109842042Y-125139604D01*
X109797397Y-125068552D01*
X109785351Y-125043539D01*
X109757636Y-124964333D01*
X109751458Y-124937268D01*
X109741280Y-124846922D01*
X109740500Y-124833040D01*
X109740500Y-121389098D01*
X109760185Y-121322059D01*
X109812989Y-121276304D01*
X109882147Y-121266360D01*
X109945703Y-121295385D01*
X109952181Y-121301417D01*
X109966455Y-121315691D01*
X109966461Y-121315696D01*
X113235139Y-124584374D01*
X113235149Y-124584385D01*
X113239479Y-124588715D01*
X113239480Y-124588716D01*
X113351284Y-124700520D01*
X113351286Y-124700521D01*
X113351290Y-124700524D01*
X113478743Y-124774108D01*
X113488216Y-124779577D01*
X113600019Y-124809534D01*
X113640942Y-124820500D01*
X113640943Y-124820500D01*
X166873331Y-124820500D01*
X166873347Y-124820501D01*
X166880943Y-124820501D01*
X167039054Y-124820501D01*
X167039057Y-124820501D01*
X167191785Y-124779577D01*
X167241904Y-124750639D01*
X167328716Y-124700520D01*
X167440520Y-124588716D01*
X167440520Y-124588714D01*
X167450728Y-124578507D01*
X167450729Y-124578504D01*
X172070520Y-119958716D01*
X172149577Y-119821785D01*
X172190501Y-119669057D01*
X172190501Y-119510942D01*
X172190501Y-119503347D01*
X172190500Y-119503329D01*
X172190500Y-104950945D01*
X172190500Y-104950943D01*
X172149577Y-104798216D01*
X172138515Y-104779056D01*
X172070524Y-104661290D01*
X172070521Y-104661286D01*
X172070520Y-104661284D01*
X171958716Y-104549480D01*
X171958715Y-104549479D01*
X171954385Y-104545149D01*
X171954374Y-104545139D01*
X169433757Y-102024522D01*
X169400272Y-101963199D01*
X169403507Y-101898523D01*
X169417246Y-101856243D01*
X169450500Y-101646287D01*
X169450500Y-101433713D01*
X169417246Y-101223757D01*
X169351557Y-101021588D01*
X169255051Y-100832184D01*
X169255049Y-100832181D01*
X169255048Y-100832179D01*
X169130109Y-100660213D01*
X168979786Y-100509890D01*
X168807820Y-100384951D01*
X168805991Y-100384019D01*
X168799054Y-100380485D01*
X168748259Y-100332512D01*
X168731463Y-100264692D01*
X168753999Y-100198556D01*
X168799054Y-100159515D01*
X168807816Y-100155051D01*
X168918481Y-100074649D01*
X168979786Y-100030109D01*
X168979788Y-100030106D01*
X168979792Y-100030104D01*
X169130104Y-99879792D01*
X169130106Y-99879788D01*
X169130109Y-99879786D01*
X169255048Y-99707820D01*
X169255047Y-99707820D01*
X169255051Y-99707816D01*
X169351557Y-99518412D01*
X169417246Y-99316243D01*
X169450500Y-99106287D01*
X169450500Y-98893713D01*
X169417246Y-98683757D01*
X169351557Y-98481588D01*
X169255051Y-98292184D01*
X169255049Y-98292181D01*
X169255048Y-98292179D01*
X169130109Y-98120213D01*
X168979786Y-97969890D01*
X168807820Y-97844951D01*
X168805991Y-97844019D01*
X168799054Y-97840485D01*
X168748259Y-97792512D01*
X168731463Y-97724692D01*
X168753999Y-97658556D01*
X168799054Y-97619515D01*
X168807816Y-97615051D01*
X168894138Y-97552335D01*
X168979786Y-97490109D01*
X168979788Y-97490106D01*
X168979792Y-97490104D01*
X169130104Y-97339792D01*
X169130106Y-97339788D01*
X169130109Y-97339786D01*
X169255048Y-97167820D01*
X169255047Y-97167820D01*
X169255051Y-97167816D01*
X169351557Y-96978412D01*
X169417246Y-96776243D01*
X169450500Y-96566287D01*
X169450500Y-96353713D01*
X169417246Y-96143757D01*
X169351557Y-95941588D01*
X169255051Y-95752184D01*
X169255049Y-95752181D01*
X169255048Y-95752179D01*
X169130109Y-95580213D01*
X168979786Y-95429890D01*
X168807820Y-95304951D01*
X168618414Y-95208444D01*
X168618413Y-95208443D01*
X168618412Y-95208443D01*
X168416243Y-95142754D01*
X168416241Y-95142753D01*
X168416240Y-95142753D01*
X168254957Y-95117208D01*
X168206287Y-95109500D01*
X167993713Y-95109500D01*
X167945042Y-95117208D01*
X167783760Y-95142753D01*
X167581585Y-95208444D01*
X167392179Y-95304951D01*
X167220215Y-95429889D01*
X167106673Y-95543431D01*
X167045350Y-95576915D01*
X166975658Y-95571931D01*
X166919725Y-95530059D01*
X166902810Y-95499082D01*
X166853797Y-95367671D01*
X166853793Y-95367664D01*
X166767547Y-95252455D01*
X166767544Y-95252452D01*
X166652335Y-95166206D01*
X166652328Y-95166202D01*
X166517482Y-95115908D01*
X166517483Y-95115908D01*
X166457883Y-95109501D01*
X166457881Y-95109500D01*
X166457873Y-95109500D01*
X166457864Y-95109500D01*
X164662129Y-95109500D01*
X164662123Y-95109501D01*
X164602516Y-95115908D01*
X164467671Y-95166202D01*
X164467664Y-95166206D01*
X164352455Y-95252452D01*
X164352452Y-95252455D01*
X164266206Y-95367664D01*
X164266202Y-95367671D01*
X164215908Y-95502517D01*
X164209501Y-95562116D01*
X164209500Y-95562135D01*
X164209500Y-95735500D01*
X164189815Y-95802539D01*
X164137011Y-95848294D01*
X164085500Y-95859500D01*
X163042841Y-95859500D01*
X162975802Y-95839815D01*
X162955160Y-95823181D01*
X158430354Y-91298375D01*
X158430352Y-91298372D01*
X158311481Y-91179501D01*
X158311473Y-91179495D01*
X158206144Y-91118684D01*
X158206141Y-91118683D01*
X158174550Y-91100443D01*
X158174551Y-91100443D01*
X158097920Y-91079910D01*
X158021821Y-91059519D01*
X157863707Y-91059519D01*
X157856111Y-91059519D01*
X157856095Y-91059520D01*
X128207164Y-91059520D01*
X128140125Y-91039835D01*
X128094370Y-90987031D01*
X128084426Y-90917873D01*
X128092601Y-90888072D01*
X128099399Y-90871661D01*
X128130162Y-90717006D01*
X128130162Y-90559322D01*
X128130162Y-90559319D01*
X128130161Y-90559317D01*
X128108379Y-90449812D01*
X128099399Y-90404667D01*
X128099397Y-90404662D01*
X128039059Y-90258991D01*
X128039052Y-90258978D01*
X127951060Y-90127289D01*
X127930182Y-90060611D01*
X127930162Y-90058398D01*
X127930162Y-81080627D01*
X127930160Y-81080618D01*
X127927378Y-81070233D01*
X127925544Y-81063388D01*
X127889239Y-80927897D01*
X127860301Y-80877777D01*
X127810182Y-80790966D01*
X127698378Y-80679162D01*
X127698377Y-80679161D01*
X127694047Y-80674831D01*
X127694036Y-80674821D01*
X119837590Y-72818375D01*
X119837588Y-72818372D01*
X119718717Y-72699501D01*
X119718716Y-72699500D01*
X119631904Y-72649380D01*
X119631904Y-72649379D01*
X119631900Y-72649378D01*
X119581785Y-72620443D01*
X119429057Y-72579519D01*
X119270943Y-72579519D01*
X119263347Y-72579519D01*
X119263331Y-72579520D01*
X118905781Y-72579520D01*
X118838742Y-72559835D01*
X118792987Y-72507031D01*
X118783043Y-72437873D01*
X118795296Y-72399225D01*
X118805230Y-72379726D01*
X118841557Y-72308432D01*
X118907246Y-72106263D01*
X118940500Y-71896307D01*
X118940500Y-71683733D01*
X118907246Y-71473777D01*
X118841557Y-71271608D01*
X118745051Y-71082204D01*
X118745049Y-71082201D01*
X118745048Y-71082199D01*
X118620109Y-70910233D01*
X118469786Y-70759910D01*
X118297820Y-70634971D01*
X118297115Y-70634611D01*
X118289054Y-70630505D01*
X118238259Y-70582532D01*
X118221463Y-70514712D01*
X118243999Y-70448576D01*
X118289054Y-70409535D01*
X118297816Y-70405071D01*
X118319789Y-70389106D01*
X118469786Y-70280129D01*
X118469788Y-70280126D01*
X118469792Y-70280124D01*
X118620104Y-70129812D01*
X118620106Y-70129808D01*
X118620109Y-70129806D01*
X118745048Y-69957840D01*
X118745047Y-69957840D01*
X118745051Y-69957836D01*
X118841557Y-69768432D01*
X118907246Y-69566263D01*
X118940500Y-69356307D01*
X118940500Y-69143733D01*
X118907246Y-68933777D01*
X118841557Y-68731608D01*
X118745051Y-68542204D01*
X118745049Y-68542201D01*
X118745048Y-68542199D01*
X118620109Y-68370233D01*
X118469786Y-68219910D01*
X118297820Y-68094971D01*
X118297115Y-68094611D01*
X118289054Y-68090505D01*
X118238259Y-68042532D01*
X118221463Y-67974712D01*
X118243999Y-67908576D01*
X118289054Y-67869535D01*
X118297816Y-67865071D01*
X118319789Y-67849106D01*
X118469786Y-67740129D01*
X118469788Y-67740126D01*
X118469792Y-67740124D01*
X118620104Y-67589812D01*
X118620106Y-67589808D01*
X118620109Y-67589806D01*
X118745048Y-67417840D01*
X118745047Y-67417840D01*
X118745051Y-67417836D01*
X118841557Y-67228432D01*
X118907246Y-67026263D01*
X118940500Y-66816307D01*
X118940500Y-66603733D01*
X118907246Y-66393777D01*
X118841557Y-66191608D01*
X118745051Y-66002204D01*
X118745049Y-66002201D01*
X118745048Y-66002199D01*
X118620109Y-65830233D01*
X118469786Y-65679910D01*
X118297820Y-65554971D01*
X118108414Y-65458464D01*
X118108413Y-65458463D01*
X118108412Y-65458463D01*
X117906243Y-65392774D01*
X117906241Y-65392773D01*
X117906240Y-65392773D01*
X117744957Y-65367228D01*
X117696287Y-65359520D01*
X117483713Y-65359520D01*
X117435042Y-65367228D01*
X117273760Y-65392773D01*
X117071585Y-65458464D01*
X116882179Y-65554971D01*
X116710213Y-65679910D01*
X116559890Y-65830233D01*
X116434949Y-66002202D01*
X116430484Y-66010966D01*
X116382509Y-66061762D01*
X116314688Y-66078556D01*
X116248553Y-66056018D01*
X116209516Y-66010966D01*
X116205050Y-66002202D01*
X116080109Y-65830233D01*
X115929786Y-65679910D01*
X115757820Y-65554971D01*
X115568414Y-65458464D01*
X115568413Y-65458463D01*
X115568412Y-65458463D01*
X115366243Y-65392774D01*
X115366241Y-65392773D01*
X115366240Y-65392773D01*
X115204957Y-65367228D01*
X115156287Y-65359520D01*
X114943713Y-65359520D01*
X114895042Y-65367228D01*
X114733760Y-65392773D01*
X114531585Y-65458464D01*
X114342179Y-65554971D01*
X114170213Y-65679910D01*
X114019890Y-65830233D01*
X113894951Y-66002199D01*
X113798444Y-66191605D01*
X113732753Y-66393780D01*
X113699500Y-66603733D01*
X113699500Y-66816306D01*
X113732753Y-67026259D01*
X113798444Y-67228434D01*
X113894951Y-67417840D01*
X114019890Y-67589806D01*
X114170213Y-67740129D01*
X114342182Y-67865070D01*
X114350946Y-67869536D01*
X114401742Y-67917511D01*
X114418536Y-67985332D01*
X114395998Y-68051467D01*
X114350946Y-68090504D01*
X114342182Y-68094969D01*
X114170213Y-68219910D01*
X114019890Y-68370233D01*
X113894951Y-68542199D01*
X113798444Y-68731605D01*
X113732753Y-68933780D01*
X113699500Y-69143733D01*
X113699500Y-69356306D01*
X113732753Y-69566259D01*
X113798444Y-69768434D01*
X113894951Y-69957840D01*
X114019890Y-70129806D01*
X114170213Y-70280129D01*
X114342182Y-70405070D01*
X114350946Y-70409536D01*
X114401742Y-70457511D01*
X114418536Y-70525332D01*
X114395998Y-70591467D01*
X114350946Y-70630504D01*
X114342182Y-70634969D01*
X114170213Y-70759910D01*
X114019890Y-70910233D01*
X113894951Y-71082199D01*
X113798444Y-71271605D01*
X113732753Y-71473780D01*
X113699500Y-71683733D01*
X113699500Y-71896306D01*
X113732753Y-72106259D01*
X113798444Y-72308434D01*
X113894951Y-72497840D01*
X114019890Y-72669806D01*
X114170213Y-72820129D01*
X114342182Y-72945070D01*
X114350946Y-72949536D01*
X114401742Y-72997511D01*
X114418536Y-73065332D01*
X114395998Y-73131467D01*
X114350946Y-73170504D01*
X114342182Y-73174969D01*
X114170213Y-73299910D01*
X114019890Y-73450233D01*
X113894951Y-73622199D01*
X113798444Y-73811605D01*
X113798443Y-73811607D01*
X113798443Y-73811608D01*
X113786324Y-73848907D01*
X113732753Y-74013780D01*
X113699500Y-74223733D01*
X113699500Y-74436306D01*
X113732753Y-74646259D01*
X113798444Y-74848434D01*
X113894951Y-75037840D01*
X114019890Y-75209806D01*
X114170213Y-75360129D01*
X114342182Y-75485070D01*
X114350946Y-75489536D01*
X114401742Y-75537511D01*
X114418536Y-75605332D01*
X114395998Y-75671467D01*
X114350946Y-75710504D01*
X114342182Y-75714969D01*
X114170213Y-75839910D01*
X114019890Y-75990233D01*
X113894951Y-76162199D01*
X113798444Y-76351605D01*
X113732753Y-76553780D01*
X113699500Y-76763733D01*
X113699500Y-76976306D01*
X113732753Y-77186259D01*
X113798444Y-77388434D01*
X113894951Y-77577840D01*
X114019890Y-77749806D01*
X114170213Y-77900129D01*
X114342182Y-78025070D01*
X114350946Y-78029536D01*
X114401742Y-78077511D01*
X114418536Y-78145332D01*
X114395998Y-78211467D01*
X114350946Y-78250504D01*
X114342182Y-78254969D01*
X114170213Y-78379910D01*
X114019890Y-78530233D01*
X113894951Y-78702199D01*
X113798444Y-78891605D01*
X113732753Y-79093780D01*
X113699500Y-79303733D01*
X113699500Y-79516306D01*
X113732753Y-79726259D01*
X113798444Y-79928434D01*
X113894951Y-80117840D01*
X114019890Y-80289806D01*
X114170213Y-80440129D01*
X114342182Y-80565070D01*
X114350946Y-80569536D01*
X114401742Y-80617511D01*
X114418536Y-80685332D01*
X114395998Y-80751467D01*
X114350946Y-80790504D01*
X114342182Y-80794969D01*
X114170213Y-80919910D01*
X114019890Y-81070233D01*
X113894951Y-81242199D01*
X113798444Y-81431605D01*
X113732753Y-81633780D01*
X113704851Y-81809947D01*
X113699500Y-81843733D01*
X113699500Y-82056307D01*
X113732754Y-82266263D01*
X113794046Y-82454900D01*
X113798444Y-82468434D01*
X113894951Y-82657840D01*
X114019890Y-82829806D01*
X114170213Y-82980129D01*
X114342182Y-83105070D01*
X114350946Y-83109536D01*
X114401742Y-83157511D01*
X114418536Y-83225332D01*
X114395998Y-83291467D01*
X114350946Y-83330504D01*
X114342182Y-83334969D01*
X114170213Y-83459910D01*
X114019890Y-83610233D01*
X113894951Y-83782199D01*
X113798444Y-83971605D01*
X113732753Y-84173780D01*
X113699500Y-84383733D01*
X113699500Y-84596306D01*
X113732753Y-84806259D01*
X113798444Y-85008434D01*
X113894951Y-85197840D01*
X114019890Y-85369806D01*
X114170213Y-85520129D01*
X114342182Y-85645070D01*
X114350946Y-85649536D01*
X114401742Y-85697511D01*
X114418536Y-85765332D01*
X114395998Y-85831467D01*
X114350946Y-85870504D01*
X114342182Y-85874969D01*
X114170213Y-85999910D01*
X114019890Y-86150233D01*
X113894951Y-86322199D01*
X113798444Y-86511605D01*
X113732753Y-86713780D01*
X113699500Y-86923733D01*
X113699500Y-87136306D01*
X113732753Y-87346259D01*
X113798444Y-87548434D01*
X113894951Y-87737840D01*
X114019890Y-87909806D01*
X114170213Y-88060129D01*
X114342182Y-88185070D01*
X114350946Y-88189536D01*
X114401742Y-88237511D01*
X114418536Y-88305332D01*
X114395998Y-88371467D01*
X114350946Y-88410504D01*
X114342182Y-88414969D01*
X114170213Y-88539910D01*
X114019890Y-88690233D01*
X113894951Y-88862199D01*
X113798444Y-89051605D01*
X113732753Y-89253780D01*
X113713422Y-89375833D01*
X113699500Y-89463733D01*
X113699500Y-89676307D01*
X113732754Y-89886263D01*
X113789403Y-90060611D01*
X113798444Y-90088434D01*
X113894951Y-90277840D01*
X114019890Y-90449806D01*
X114170213Y-90600129D01*
X114342182Y-90725070D01*
X114350946Y-90729536D01*
X114401742Y-90777511D01*
X114418536Y-90845332D01*
X114395998Y-90911467D01*
X114350946Y-90950504D01*
X114342182Y-90954969D01*
X114170213Y-91079910D01*
X114019890Y-91230233D01*
X113894951Y-91402199D01*
X113798444Y-91591605D01*
X113732753Y-91793780D01*
X113699500Y-92003733D01*
X113699500Y-92216306D01*
X113732753Y-92426259D01*
X113798444Y-92628434D01*
X113894951Y-92817840D01*
X114019890Y-92989806D01*
X114170213Y-93140129D01*
X114342182Y-93265070D01*
X114350946Y-93269536D01*
X114401742Y-93317511D01*
X114418536Y-93385332D01*
X114395998Y-93451467D01*
X114350946Y-93490504D01*
X114342182Y-93494969D01*
X114170213Y-93619910D01*
X114019890Y-93770233D01*
X113894951Y-93942199D01*
X113798444Y-94131605D01*
X113732753Y-94333780D01*
X113699500Y-94543733D01*
X113699500Y-94756307D01*
X113732754Y-94966263D01*
X113797718Y-95166202D01*
X113798444Y-95168434D01*
X113894951Y-95357840D01*
X114019890Y-95529806D01*
X114170213Y-95680129D01*
X114342182Y-95805070D01*
X114350946Y-95809536D01*
X114401742Y-95857511D01*
X114418536Y-95925332D01*
X114395998Y-95991467D01*
X114350946Y-96030504D01*
X114342182Y-96034969D01*
X114170213Y-96159910D01*
X114019890Y-96310233D01*
X113894948Y-96482204D01*
X113894947Y-96482205D01*
X113874765Y-96521815D01*
X113864316Y-96532877D01*
X113857994Y-96546723D01*
X113840812Y-96557764D01*
X113826791Y-96572611D01*
X113811111Y-96576852D01*
X113799216Y-96584497D01*
X113764281Y-96589520D01*
X113668121Y-96589520D01*
X113668105Y-96589519D01*
X113660509Y-96589519D01*
X113502394Y-96589519D01*
X113426030Y-96609981D01*
X113349665Y-96630443D01*
X113349660Y-96630446D01*
X113212741Y-96709495D01*
X113212733Y-96709501D01*
X109952181Y-99970054D01*
X109890858Y-100003539D01*
X109821166Y-99998555D01*
X109765233Y-99956683D01*
X109740816Y-99891219D01*
X109740500Y-99882373D01*
X109740500Y-60732155D01*
X113699500Y-60732155D01*
X113699500Y-62527890D01*
X113699501Y-62527896D01*
X113705908Y-62587503D01*
X113756202Y-62722348D01*
X113756206Y-62722355D01*
X113842452Y-62837564D01*
X113842455Y-62837567D01*
X113957664Y-62923813D01*
X113957671Y-62923817D01*
X114092517Y-62974111D01*
X114092516Y-62974111D01*
X114099444Y-62974855D01*
X114152127Y-62980520D01*
X115947872Y-62980519D01*
X116007483Y-62974111D01*
X116142331Y-62923816D01*
X116257546Y-62837566D01*
X116343796Y-62722351D01*
X116392810Y-62590936D01*
X116434681Y-62535004D01*
X116500145Y-62510586D01*
X116568418Y-62525437D01*
X116596673Y-62546589D01*
X116710213Y-62660129D01*
X116882179Y-62785068D01*
X116882181Y-62785069D01*
X116882184Y-62785071D01*
X117071588Y-62881577D01*
X117273757Y-62947266D01*
X117483713Y-62980520D01*
X117483714Y-62980520D01*
X117696286Y-62980520D01*
X117696287Y-62980520D01*
X117906243Y-62947266D01*
X118108412Y-62881577D01*
X118297816Y-62785071D01*
X118384138Y-62722355D01*
X118469786Y-62660129D01*
X118469788Y-62660126D01*
X118469792Y-62660124D01*
X118620104Y-62509812D01*
X118620106Y-62509808D01*
X118620109Y-62509806D01*
X118745048Y-62337840D01*
X118745047Y-62337840D01*
X118745051Y-62337836D01*
X118841557Y-62148432D01*
X118907246Y-61946263D01*
X118940500Y-61736307D01*
X118940500Y-61523733D01*
X118907246Y-61313777D01*
X118841557Y-61111608D01*
X118745051Y-60922204D01*
X118745049Y-60922201D01*
X118745048Y-60922199D01*
X118620109Y-60750233D01*
X118469786Y-60599910D01*
X118297820Y-60474971D01*
X118108414Y-60378464D01*
X118108413Y-60378463D01*
X118108412Y-60378463D01*
X117906243Y-60312774D01*
X117906241Y-60312773D01*
X117906240Y-60312773D01*
X117744957Y-60287228D01*
X117696287Y-60279520D01*
X117483713Y-60279520D01*
X117435042Y-60287228D01*
X117273760Y-60312773D01*
X117071585Y-60378464D01*
X116882179Y-60474971D01*
X116710215Y-60599909D01*
X116596673Y-60713451D01*
X116535350Y-60746935D01*
X116465658Y-60741951D01*
X116409725Y-60700079D01*
X116392810Y-60669102D01*
X116343797Y-60537691D01*
X116343793Y-60537684D01*
X116257547Y-60422475D01*
X116257544Y-60422472D01*
X116142335Y-60336226D01*
X116142328Y-60336222D01*
X116007482Y-60285928D01*
X116007483Y-60285928D01*
X115947883Y-60279521D01*
X115947881Y-60279520D01*
X115947873Y-60279520D01*
X115947864Y-60279520D01*
X114152129Y-60279520D01*
X114152123Y-60279521D01*
X114092516Y-60285928D01*
X113957671Y-60336222D01*
X113957664Y-60336226D01*
X113842455Y-60422472D01*
X113842452Y-60422475D01*
X113756206Y-60537684D01*
X113756202Y-60537691D01*
X113705908Y-60672537D01*
X113699501Y-60732136D01*
X113699500Y-60732155D01*
X109740500Y-60732155D01*
X109740500Y-58846959D01*
X109741280Y-58833077D01*
X109741320Y-58832717D01*
X109751459Y-58742727D01*
X109757635Y-58715668D01*
X109785353Y-58636457D01*
X109797393Y-58611453D01*
X109842046Y-58540389D01*
X109859351Y-58518690D01*
X109918690Y-58459351D01*
X109940389Y-58442046D01*
X110011453Y-58397393D01*
X110036457Y-58385353D01*
X110115668Y-58357635D01*
X110142729Y-58351459D01*
X110218753Y-58342893D01*
X110233078Y-58341280D01*
X110246960Y-58340500D01*
X110305892Y-58340500D01*
X131544108Y-58340500D01*
X131603040Y-58340500D01*
X131616922Y-58341280D01*
G37*
%TD.AperFunction*%
%TA.AperFunction,Conductor*%
G36*
X157046962Y-93880205D02*
G01*
X157067604Y-93896839D01*
X164226241Y-101055476D01*
X164259726Y-101116799D01*
X164256492Y-101181473D01*
X164242753Y-101223757D01*
X164209500Y-101433713D01*
X164209500Y-101646286D01*
X164242753Y-101856239D01*
X164242753Y-101856241D01*
X164242754Y-101856243D01*
X164297431Y-102024522D01*
X164308444Y-102058414D01*
X164404951Y-102247820D01*
X164529890Y-102419786D01*
X164680213Y-102570109D01*
X164852182Y-102695050D01*
X164860946Y-102699516D01*
X164911742Y-102747491D01*
X164928536Y-102815312D01*
X164905998Y-102881447D01*
X164860946Y-102920484D01*
X164852182Y-102924949D01*
X164680213Y-103049890D01*
X164529890Y-103200213D01*
X164404951Y-103372179D01*
X164308444Y-103561585D01*
X164242753Y-103763760D01*
X164212660Y-103953761D01*
X164209500Y-103973713D01*
X164209500Y-104186287D01*
X164219534Y-104249644D01*
X164235299Y-104349179D01*
X164242754Y-104396243D01*
X164307937Y-104596856D01*
X164308444Y-104598414D01*
X164404951Y-104787820D01*
X164529890Y-104959786D01*
X164680213Y-105110109D01*
X164852182Y-105235050D01*
X164860946Y-105239516D01*
X164911742Y-105287491D01*
X164928536Y-105355312D01*
X164905998Y-105421447D01*
X164860946Y-105460484D01*
X164852182Y-105464949D01*
X164680213Y-105589890D01*
X164529890Y-105740213D01*
X164404951Y-105912179D01*
X164308444Y-106101585D01*
X164242753Y-106303760D01*
X164209500Y-106513713D01*
X164209500Y-106726287D01*
X164242754Y-106936243D01*
X164307937Y-107136856D01*
X164308444Y-107138414D01*
X164404951Y-107327820D01*
X164529890Y-107499786D01*
X164680213Y-107650109D01*
X164852182Y-107775050D01*
X164860946Y-107779516D01*
X164911742Y-107827491D01*
X164928536Y-107895312D01*
X164905998Y-107961447D01*
X164860946Y-108000484D01*
X164852182Y-108004949D01*
X164680213Y-108129890D01*
X164529890Y-108280213D01*
X164404951Y-108452179D01*
X164308444Y-108641585D01*
X164242753Y-108843760D01*
X164209500Y-109053713D01*
X164209500Y-109266286D01*
X164242753Y-109476239D01*
X164308444Y-109678414D01*
X164404951Y-109867820D01*
X164529890Y-110039786D01*
X164680213Y-110190109D01*
X164852182Y-110315050D01*
X164860946Y-110319516D01*
X164911742Y-110367491D01*
X164928536Y-110435312D01*
X164905998Y-110501447D01*
X164860946Y-110540484D01*
X164852182Y-110544949D01*
X164680213Y-110669890D01*
X164529890Y-110820213D01*
X164404951Y-110992179D01*
X164308444Y-111181585D01*
X164242753Y-111383760D01*
X164209500Y-111593713D01*
X164209500Y-111806286D01*
X164242753Y-112016239D01*
X164308444Y-112218414D01*
X164404951Y-112407820D01*
X164529890Y-112579786D01*
X164680213Y-112730109D01*
X164852182Y-112855050D01*
X164860946Y-112859516D01*
X164911742Y-112907491D01*
X164928536Y-112975312D01*
X164905998Y-113041447D01*
X164860946Y-113080484D01*
X164852182Y-113084949D01*
X164680213Y-113209890D01*
X164529890Y-113360213D01*
X164404951Y-113532179D01*
X164308444Y-113721585D01*
X164242753Y-113923760D01*
X164209500Y-114133713D01*
X164209500Y-114346286D01*
X164241903Y-114550874D01*
X164242754Y-114556243D01*
X164286688Y-114691458D01*
X164308444Y-114758414D01*
X164404951Y-114947820D01*
X164529890Y-115119786D01*
X164680213Y-115270109D01*
X164852182Y-115395050D01*
X164860946Y-115399516D01*
X164911742Y-115447491D01*
X164928536Y-115515312D01*
X164905998Y-115581447D01*
X164860946Y-115620484D01*
X164852182Y-115624949D01*
X164680213Y-115749890D01*
X164529890Y-115900213D01*
X164404951Y-116072179D01*
X164308444Y-116261585D01*
X164242753Y-116463760D01*
X164209500Y-116673713D01*
X164209500Y-116886286D01*
X164242753Y-117096239D01*
X164308444Y-117298414D01*
X164404951Y-117487820D01*
X164529890Y-117659786D01*
X164680213Y-117810109D01*
X164852182Y-117935050D01*
X164860946Y-117939516D01*
X164911742Y-117987491D01*
X164928536Y-118055312D01*
X164905998Y-118121447D01*
X164860946Y-118160484D01*
X164852182Y-118164949D01*
X164680213Y-118289890D01*
X164529890Y-118440213D01*
X164404951Y-118612179D01*
X164308444Y-118801585D01*
X164242753Y-119003760D01*
X164216280Y-119170903D01*
X164209500Y-119213713D01*
X164209500Y-119426287D01*
X164219534Y-119489644D01*
X164242753Y-119636239D01*
X164308444Y-119838414D01*
X164404951Y-120027820D01*
X164529890Y-120199786D01*
X164680213Y-120350109D01*
X164852179Y-120475048D01*
X164852181Y-120475049D01*
X164852184Y-120475051D01*
X165041588Y-120571557D01*
X165243757Y-120637246D01*
X165453713Y-120670500D01*
X165453714Y-120670500D01*
X165666286Y-120670500D01*
X165666287Y-120670500D01*
X165876243Y-120637246D01*
X166078412Y-120571557D01*
X166267816Y-120475051D01*
X166289789Y-120459086D01*
X166439786Y-120350109D01*
X166439788Y-120350106D01*
X166439792Y-120350104D01*
X166590104Y-120199792D01*
X166590106Y-120199788D01*
X166590109Y-120199786D01*
X166715048Y-120027820D01*
X166715047Y-120027820D01*
X166715051Y-120027816D01*
X166719514Y-120019054D01*
X166767488Y-119968259D01*
X166835308Y-119951463D01*
X166901444Y-119973999D01*
X166940486Y-120019056D01*
X166944951Y-120027820D01*
X167069890Y-120199786D01*
X167220213Y-120350109D01*
X167392179Y-120475048D01*
X167392181Y-120475049D01*
X167392184Y-120475051D01*
X167581588Y-120571557D01*
X167783757Y-120637246D01*
X167993713Y-120670500D01*
X167993714Y-120670500D01*
X168206286Y-120670500D01*
X168206287Y-120670500D01*
X168416243Y-120637246D01*
X168618412Y-120571557D01*
X168807816Y-120475051D01*
X168829789Y-120459086D01*
X168979786Y-120350109D01*
X168979788Y-120350106D01*
X168979792Y-120350104D01*
X169130104Y-120199792D01*
X169130106Y-120199788D01*
X169130109Y-120199786D01*
X169255048Y-120027820D01*
X169255047Y-120027820D01*
X169255051Y-120027816D01*
X169351557Y-119838412D01*
X169417246Y-119636243D01*
X169450500Y-119426287D01*
X169450500Y-119213713D01*
X169417246Y-119003757D01*
X169351557Y-118801588D01*
X169255051Y-118612184D01*
X169255049Y-118612181D01*
X169255048Y-118612179D01*
X169130109Y-118440213D01*
X168979786Y-118289890D01*
X168807820Y-118164951D01*
X168805991Y-118164019D01*
X168799054Y-118160485D01*
X168748259Y-118112512D01*
X168731463Y-118044692D01*
X168753999Y-117978556D01*
X168799054Y-117939515D01*
X168807816Y-117935051D01*
X168829789Y-117919086D01*
X168979786Y-117810109D01*
X168979788Y-117810106D01*
X168979792Y-117810104D01*
X169130104Y-117659792D01*
X169130106Y-117659788D01*
X169130109Y-117659786D01*
X169255048Y-117487820D01*
X169255047Y-117487820D01*
X169255051Y-117487816D01*
X169351557Y-117298412D01*
X169417246Y-117096243D01*
X169450500Y-116886287D01*
X169450500Y-116673713D01*
X169417246Y-116463757D01*
X169351557Y-116261588D01*
X169255051Y-116072184D01*
X169255049Y-116072181D01*
X169255048Y-116072179D01*
X169130109Y-115900213D01*
X168979786Y-115749890D01*
X168807820Y-115624951D01*
X168805991Y-115624019D01*
X168799054Y-115620485D01*
X168748259Y-115572512D01*
X168731463Y-115504692D01*
X168753999Y-115438556D01*
X168799054Y-115399515D01*
X168807816Y-115395051D01*
X168829789Y-115379086D01*
X168979786Y-115270109D01*
X168979788Y-115270106D01*
X168979792Y-115270104D01*
X169130104Y-115119792D01*
X169130106Y-115119788D01*
X169130109Y-115119786D01*
X169255048Y-114947820D01*
X169255047Y-114947820D01*
X169255051Y-114947816D01*
X169351557Y-114758412D01*
X169417246Y-114556243D01*
X169450500Y-114346287D01*
X169450500Y-114133713D01*
X169417246Y-113923757D01*
X169351557Y-113721588D01*
X169255051Y-113532184D01*
X169255049Y-113532181D01*
X169255048Y-113532179D01*
X169130109Y-113360213D01*
X168979786Y-113209890D01*
X168807820Y-113084951D01*
X168805991Y-113084019D01*
X168799054Y-113080485D01*
X168748259Y-113032512D01*
X168731463Y-112964692D01*
X168753999Y-112898556D01*
X168799054Y-112859515D01*
X168807816Y-112855051D01*
X168829789Y-112839086D01*
X168979786Y-112730109D01*
X168979788Y-112730106D01*
X168979792Y-112730104D01*
X169130104Y-112579792D01*
X169130106Y-112579788D01*
X169130109Y-112579786D01*
X169255048Y-112407820D01*
X169255047Y-112407820D01*
X169255051Y-112407816D01*
X169351557Y-112218412D01*
X169417246Y-112016243D01*
X169450500Y-111806287D01*
X169450500Y-111593713D01*
X169417246Y-111383757D01*
X169351557Y-111181588D01*
X169255051Y-110992184D01*
X169255049Y-110992181D01*
X169255048Y-110992179D01*
X169130109Y-110820213D01*
X168979786Y-110669890D01*
X168807820Y-110544951D01*
X168805991Y-110544019D01*
X168799054Y-110540485D01*
X168748259Y-110492512D01*
X168731463Y-110424692D01*
X168753999Y-110358556D01*
X168799054Y-110319515D01*
X168807816Y-110315051D01*
X168829789Y-110299086D01*
X168979786Y-110190109D01*
X168979788Y-110190106D01*
X168979792Y-110190104D01*
X169130104Y-110039792D01*
X169130106Y-110039788D01*
X169130109Y-110039786D01*
X169255048Y-109867820D01*
X169255047Y-109867820D01*
X169255051Y-109867816D01*
X169351557Y-109678412D01*
X169417246Y-109476243D01*
X169450500Y-109266287D01*
X169450500Y-109053713D01*
X169417246Y-108843757D01*
X169351557Y-108641588D01*
X169255051Y-108452184D01*
X169255049Y-108452181D01*
X169255048Y-108452179D01*
X169130109Y-108280213D01*
X168979786Y-108129890D01*
X168807820Y-108004951D01*
X168805991Y-108004019D01*
X168799054Y-108000485D01*
X168748259Y-107952512D01*
X168731463Y-107884692D01*
X168753999Y-107818556D01*
X168799054Y-107779515D01*
X168807816Y-107775051D01*
X168829789Y-107759086D01*
X168979786Y-107650109D01*
X168979788Y-107650106D01*
X168979792Y-107650104D01*
X169130104Y-107499792D01*
X169130106Y-107499788D01*
X169130109Y-107499786D01*
X169255048Y-107327820D01*
X169255047Y-107327820D01*
X169255051Y-107327816D01*
X169351557Y-107138412D01*
X169417246Y-106936243D01*
X169450500Y-106726287D01*
X169450500Y-106513713D01*
X169417246Y-106303757D01*
X169351557Y-106101588D01*
X169255051Y-105912184D01*
X169255049Y-105912181D01*
X169255048Y-105912179D01*
X169130109Y-105740213D01*
X168979786Y-105589890D01*
X168807820Y-105464951D01*
X168807115Y-105464591D01*
X168799054Y-105460485D01*
X168748259Y-105412512D01*
X168731463Y-105344692D01*
X168753999Y-105278556D01*
X168799054Y-105239515D01*
X168807816Y-105235051D01*
X168868237Y-105191153D01*
X168979786Y-105110109D01*
X168979788Y-105110106D01*
X168979792Y-105110104D01*
X169130104Y-104959792D01*
X169130106Y-104959788D01*
X169130109Y-104959786D01*
X169255048Y-104787820D01*
X169255047Y-104787820D01*
X169255051Y-104787816D01*
X169351557Y-104598412D01*
X169417246Y-104396243D01*
X169450500Y-104186287D01*
X169450500Y-104039097D01*
X169470185Y-103972058D01*
X169522989Y-103926303D01*
X169592147Y-103916359D01*
X169655703Y-103945384D01*
X169662181Y-103951416D01*
X170953181Y-105242416D01*
X170986666Y-105303739D01*
X170989500Y-105330097D01*
X170989500Y-119289902D01*
X170969815Y-119356941D01*
X170953181Y-119377583D01*
X166747584Y-123583181D01*
X166686261Y-123616666D01*
X166659903Y-123619500D01*
X143841838Y-123619500D01*
X143774799Y-123599815D01*
X143729044Y-123547011D01*
X143719100Y-123477853D01*
X143748125Y-123414297D01*
X143754157Y-123407819D01*
X145772878Y-121389098D01*
X152470520Y-114691458D01*
X152549577Y-114554527D01*
X152549578Y-114554521D01*
X152552689Y-114547015D01*
X152554179Y-114547632D01*
X152581135Y-114500942D01*
X152611789Y-114470289D01*
X152699394Y-114339179D01*
X152759737Y-114193497D01*
X152790500Y-114038842D01*
X152790500Y-113881158D01*
X152790500Y-113881155D01*
X152790499Y-113881153D01*
X152768681Y-113771467D01*
X152759737Y-113726503D01*
X152750968Y-113705332D01*
X152699397Y-113580827D01*
X152699390Y-113580814D01*
X152611789Y-113449711D01*
X152611786Y-113449707D01*
X152500292Y-113338213D01*
X152500288Y-113338210D01*
X152369185Y-113250609D01*
X152369172Y-113250602D01*
X152223501Y-113190264D01*
X152223489Y-113190261D01*
X152068845Y-113159500D01*
X152068842Y-113159500D01*
X151911158Y-113159500D01*
X151911155Y-113159500D01*
X151756505Y-113190261D01*
X151756502Y-113190263D01*
X151675575Y-113223783D01*
X151606106Y-113231251D01*
X151559236Y-113212325D01*
X151554816Y-113209372D01*
X151554815Y-113209371D01*
X151554810Y-113209368D01*
X151554806Y-113209366D01*
X151554802Y-113209364D01*
X151409132Y-113149026D01*
X151409120Y-113149023D01*
X151254476Y-113118262D01*
X151254473Y-113118262D01*
X151096789Y-113118262D01*
X151096786Y-113118262D01*
X150942141Y-113149023D01*
X150942129Y-113149026D01*
X150801703Y-113207192D01*
X150732234Y-113214661D01*
X150706799Y-113207193D01*
X150694192Y-113201971D01*
X150609324Y-113166818D01*
X150609319Y-113166817D01*
X150609316Y-113166816D01*
X150454672Y-113136055D01*
X150454669Y-113136055D01*
X150296985Y-113136055D01*
X150296982Y-113136055D01*
X150142337Y-113166816D01*
X150142325Y-113166819D01*
X149992065Y-113229058D01*
X149922595Y-113236527D01*
X149897161Y-113229058D01*
X149809749Y-113192851D01*
X149809737Y-113192848D01*
X149655093Y-113162087D01*
X149655090Y-113162087D01*
X149497406Y-113162087D01*
X149497403Y-113162087D01*
X149342758Y-113192848D01*
X149342746Y-113192851D01*
X149197076Y-113253189D01*
X149197064Y-113253196D01*
X149166153Y-113273849D01*
X149099475Y-113294724D01*
X149049816Y-113285306D01*
X149013498Y-113270263D01*
X149013488Y-113270260D01*
X148858845Y-113239500D01*
X148858842Y-113239500D01*
X148701158Y-113239500D01*
X148701155Y-113239500D01*
X148546510Y-113270261D01*
X148546498Y-113270264D01*
X148400827Y-113330602D01*
X148400814Y-113330609D01*
X148269711Y-113418210D01*
X148269707Y-113418213D01*
X148158213Y-113529707D01*
X148158210Y-113529711D01*
X148070609Y-113660814D01*
X148070602Y-113660827D01*
X148010264Y-113806498D01*
X148010261Y-113806510D01*
X147979500Y-113961153D01*
X147979500Y-114118846D01*
X148010261Y-114273489D01*
X148010264Y-114273501D01*
X148070602Y-114419172D01*
X148070609Y-114419185D01*
X148158602Y-114550874D01*
X148179480Y-114617551D01*
X148179500Y-114619765D01*
X148179500Y-114969903D01*
X148159815Y-115036942D01*
X148143181Y-115057584D01*
X141617584Y-121583181D01*
X141556261Y-121616666D01*
X141529903Y-121619500D01*
X136630097Y-121619500D01*
X136563058Y-121599815D01*
X136542416Y-121583181D01*
X135016819Y-120057584D01*
X134983334Y-119996261D01*
X134980500Y-119969903D01*
X134980500Y-110320945D01*
X134980500Y-110320943D01*
X134939577Y-110168216D01*
X134939577Y-110168215D01*
X134939577Y-110168214D01*
X134910639Y-110118095D01*
X134910637Y-110118092D01*
X134860520Y-110031284D01*
X134748716Y-109919480D01*
X134748715Y-109919479D01*
X134744385Y-109915149D01*
X134744374Y-109915139D01*
X131817610Y-106988375D01*
X131817608Y-106988372D01*
X131698737Y-106869501D01*
X131698736Y-106869500D01*
X131611924Y-106819380D01*
X131611924Y-106819379D01*
X131611920Y-106819378D01*
X131561805Y-106790443D01*
X131409077Y-106749519D01*
X131250963Y-106749519D01*
X131243367Y-106749519D01*
X131243351Y-106749520D01*
X118875719Y-106749520D01*
X118808680Y-106729835D01*
X118765235Y-106681815D01*
X118745052Y-106642205D01*
X118745051Y-106642204D01*
X118620109Y-106470233D01*
X118592057Y-106442181D01*
X118558572Y-106380858D01*
X118563556Y-106311166D01*
X118605428Y-106255233D01*
X118670892Y-106230816D01*
X118679738Y-106230500D01*
X132239903Y-106230500D01*
X132306942Y-106250185D01*
X132327584Y-106266819D01*
X134195139Y-108134374D01*
X134195149Y-108134385D01*
X134199479Y-108138715D01*
X134199480Y-108138716D01*
X134311284Y-108250520D01*
X134381890Y-108291284D01*
X134448215Y-108329577D01*
X134600943Y-108370501D01*
X134600946Y-108370501D01*
X134766653Y-108370501D01*
X134766669Y-108370500D01*
X139584219Y-108370500D01*
X139651258Y-108390185D01*
X139697013Y-108442989D01*
X139706957Y-108512147D01*
X139694704Y-108550795D01*
X139648444Y-108641585D01*
X139582753Y-108843760D01*
X139549500Y-109053713D01*
X139549500Y-109266286D01*
X139582753Y-109476239D01*
X139648444Y-109678414D01*
X139744951Y-109867820D01*
X139869890Y-110039786D01*
X140020213Y-110190109D01*
X140192182Y-110315050D01*
X140200946Y-110319516D01*
X140251742Y-110367491D01*
X140268536Y-110435312D01*
X140245998Y-110501447D01*
X140200946Y-110540484D01*
X140192182Y-110544949D01*
X140020213Y-110669890D01*
X139869890Y-110820213D01*
X139744949Y-110992182D01*
X139740484Y-111000946D01*
X139692509Y-111051742D01*
X139624688Y-111068536D01*
X139558553Y-111045998D01*
X139519516Y-111000946D01*
X139515050Y-110992182D01*
X139390109Y-110820213D01*
X139239786Y-110669890D01*
X139067820Y-110544951D01*
X138878414Y-110448444D01*
X138878413Y-110448443D01*
X138878412Y-110448443D01*
X138676243Y-110382754D01*
X138676241Y-110382753D01*
X138676240Y-110382753D01*
X138514957Y-110357208D01*
X138466287Y-110349500D01*
X138253713Y-110349500D01*
X138205042Y-110357208D01*
X138043760Y-110382753D01*
X137841585Y-110448444D01*
X137652179Y-110544951D01*
X137480213Y-110669890D01*
X137329890Y-110820213D01*
X137204951Y-110992179D01*
X137108444Y-111181585D01*
X137042753Y-111383760D01*
X137009500Y-111593713D01*
X137009500Y-111806286D01*
X137042753Y-112016239D01*
X137108444Y-112218414D01*
X137204951Y-112407820D01*
X137329890Y-112579786D01*
X137480213Y-112730109D01*
X137652182Y-112855050D01*
X137660946Y-112859516D01*
X137711742Y-112907491D01*
X137728536Y-112975312D01*
X137705998Y-113041447D01*
X137660946Y-113080484D01*
X137652182Y-113084949D01*
X137480213Y-113209890D01*
X137329890Y-113360213D01*
X137204951Y-113532179D01*
X137108444Y-113721585D01*
X137042753Y-113923760D01*
X137009500Y-114133713D01*
X137009500Y-114346286D01*
X137041903Y-114550874D01*
X137042754Y-114556243D01*
X137086688Y-114691458D01*
X137108444Y-114758414D01*
X137204951Y-114947820D01*
X137329890Y-115119786D01*
X137480213Y-115270109D01*
X137652182Y-115395050D01*
X137660946Y-115399516D01*
X137711742Y-115447491D01*
X137728536Y-115515312D01*
X137705998Y-115581447D01*
X137660946Y-115620484D01*
X137652182Y-115624949D01*
X137480213Y-115749890D01*
X137329890Y-115900213D01*
X137204951Y-116072179D01*
X137108444Y-116261585D01*
X137042753Y-116463760D01*
X137009500Y-116673713D01*
X137009500Y-116886286D01*
X137042753Y-117096239D01*
X137108444Y-117298414D01*
X137204951Y-117487820D01*
X137329890Y-117659786D01*
X137480213Y-117810109D01*
X137652179Y-117935048D01*
X137652181Y-117935049D01*
X137652184Y-117935051D01*
X137841588Y-118031557D01*
X138043757Y-118097246D01*
X138253713Y-118130500D01*
X138253714Y-118130500D01*
X138466286Y-118130500D01*
X138466287Y-118130500D01*
X138676243Y-118097246D01*
X138878412Y-118031557D01*
X139067816Y-117935051D01*
X139089789Y-117919086D01*
X139239786Y-117810109D01*
X139239788Y-117810106D01*
X139239792Y-117810104D01*
X139390104Y-117659792D01*
X139390106Y-117659788D01*
X139390109Y-117659786D01*
X139515048Y-117487820D01*
X139515047Y-117487820D01*
X139515051Y-117487816D01*
X139519514Y-117479054D01*
X139567488Y-117428259D01*
X139635308Y-117411463D01*
X139701444Y-117433999D01*
X139740486Y-117479056D01*
X139744951Y-117487820D01*
X139869890Y-117659786D01*
X140020213Y-117810109D01*
X140192182Y-117935050D01*
X140200946Y-117939516D01*
X140251742Y-117987491D01*
X140268536Y-118055312D01*
X140245998Y-118121447D01*
X140200946Y-118160484D01*
X140192182Y-118164949D01*
X140020213Y-118289890D01*
X139869890Y-118440213D01*
X139744951Y-118612179D01*
X139648444Y-118801585D01*
X139582753Y-119003760D01*
X139556280Y-119170903D01*
X139549500Y-119213713D01*
X139549500Y-119426287D01*
X139559534Y-119489644D01*
X139582753Y-119636239D01*
X139648444Y-119838414D01*
X139744951Y-120027820D01*
X139869890Y-120199786D01*
X140020213Y-120350109D01*
X140192179Y-120475048D01*
X140192181Y-120475049D01*
X140192184Y-120475051D01*
X140381588Y-120571557D01*
X140583757Y-120637246D01*
X140793713Y-120670500D01*
X140793714Y-120670500D01*
X141006286Y-120670500D01*
X141006287Y-120670500D01*
X141216243Y-120637246D01*
X141418412Y-120571557D01*
X141607816Y-120475051D01*
X141629789Y-120459086D01*
X141779786Y-120350109D01*
X141779788Y-120350106D01*
X141779792Y-120350104D01*
X141930104Y-120199792D01*
X141930106Y-120199788D01*
X141930109Y-120199786D01*
X142055048Y-120027820D01*
X142055047Y-120027820D01*
X142055051Y-120027816D01*
X142151557Y-119838412D01*
X142217246Y-119636243D01*
X142250500Y-119426287D01*
X142250500Y-119213713D01*
X142217246Y-119003757D01*
X142151557Y-118801588D01*
X142055051Y-118612184D01*
X142055049Y-118612181D01*
X142055048Y-118612179D01*
X141930109Y-118440213D01*
X141779786Y-118289890D01*
X141607820Y-118164951D01*
X141605991Y-118164019D01*
X141599054Y-118160485D01*
X141548259Y-118112512D01*
X141531463Y-118044692D01*
X141553999Y-117978556D01*
X141599054Y-117939515D01*
X141607816Y-117935051D01*
X141629789Y-117919086D01*
X141779786Y-117810109D01*
X141779788Y-117810106D01*
X141779792Y-117810104D01*
X141930104Y-117659792D01*
X141930106Y-117659788D01*
X141930109Y-117659786D01*
X142055048Y-117487820D01*
X142055047Y-117487820D01*
X142055051Y-117487816D01*
X142151557Y-117298412D01*
X142217246Y-117096243D01*
X142250500Y-116886287D01*
X142250500Y-116673713D01*
X142217246Y-116463757D01*
X142151557Y-116261588D01*
X142055051Y-116072184D01*
X142055049Y-116072181D01*
X142055048Y-116072179D01*
X141930109Y-115900213D01*
X141779786Y-115749890D01*
X141607820Y-115624951D01*
X141605991Y-115624019D01*
X141599054Y-115620485D01*
X141548259Y-115572512D01*
X141531463Y-115504692D01*
X141553999Y-115438556D01*
X141599054Y-115399515D01*
X141607816Y-115395051D01*
X141629789Y-115379086D01*
X141779786Y-115270109D01*
X141779788Y-115270106D01*
X141779792Y-115270104D01*
X141930104Y-115119792D01*
X141930106Y-115119788D01*
X141930109Y-115119786D01*
X142055048Y-114947820D01*
X142055047Y-114947820D01*
X142055051Y-114947816D01*
X142151557Y-114758412D01*
X142217246Y-114556243D01*
X142250500Y-114346287D01*
X142250500Y-114133713D01*
X142217246Y-113923757D01*
X142151557Y-113721588D01*
X142055051Y-113532184D01*
X142055049Y-113532181D01*
X142055048Y-113532179D01*
X141930109Y-113360213D01*
X141779786Y-113209890D01*
X141607820Y-113084951D01*
X141605991Y-113084019D01*
X141599054Y-113080485D01*
X141548259Y-113032512D01*
X141531463Y-112964692D01*
X141553999Y-112898556D01*
X141599054Y-112859515D01*
X141607816Y-112855051D01*
X141629789Y-112839086D01*
X141779786Y-112730109D01*
X141779788Y-112730106D01*
X141779792Y-112730104D01*
X141930104Y-112579792D01*
X141930106Y-112579788D01*
X141930109Y-112579786D01*
X142055048Y-112407820D01*
X142055047Y-112407820D01*
X142055051Y-112407816D01*
X142151557Y-112218412D01*
X142217246Y-112016243D01*
X142250500Y-111806287D01*
X142250500Y-111593713D01*
X142217246Y-111383757D01*
X142151557Y-111181588D01*
X142055051Y-110992184D01*
X142055049Y-110992181D01*
X142055048Y-110992179D01*
X141930109Y-110820213D01*
X141779786Y-110669890D01*
X141607820Y-110544951D01*
X141605991Y-110544019D01*
X141599054Y-110540485D01*
X141548259Y-110492512D01*
X141531463Y-110424692D01*
X141553999Y-110358556D01*
X141599054Y-110319515D01*
X141607816Y-110315051D01*
X141629789Y-110299086D01*
X141779786Y-110190109D01*
X141779788Y-110190106D01*
X141779792Y-110190104D01*
X141930104Y-110039792D01*
X141930106Y-110039788D01*
X141930109Y-110039786D01*
X142055048Y-109867820D01*
X142055047Y-109867820D01*
X142055051Y-109867816D01*
X142151557Y-109678412D01*
X142217246Y-109476243D01*
X142250500Y-109266287D01*
X142250500Y-109053713D01*
X142217246Y-108843757D01*
X142151557Y-108641588D01*
X142105296Y-108550795D01*
X142092400Y-108482125D01*
X142118677Y-108417385D01*
X142175783Y-108377128D01*
X142215781Y-108370500D01*
X148323331Y-108370500D01*
X148323347Y-108370501D01*
X148330943Y-108370501D01*
X148489054Y-108370501D01*
X148489057Y-108370501D01*
X148641785Y-108329577D01*
X148708110Y-108291284D01*
X148778716Y-108250520D01*
X148890520Y-108138716D01*
X148890520Y-108138714D01*
X148900724Y-108128511D01*
X148900727Y-108128506D01*
X150924662Y-106104572D01*
X150985983Y-106071089D01*
X150988150Y-106070638D01*
X151046085Y-106059113D01*
X151143497Y-106039737D01*
X151289179Y-105979394D01*
X151420289Y-105891789D01*
X151531789Y-105780289D01*
X151619394Y-105649179D01*
X151679737Y-105503497D01*
X151710500Y-105348842D01*
X151710500Y-105191158D01*
X151710500Y-105191155D01*
X151710499Y-105191153D01*
X151679738Y-105036510D01*
X151679737Y-105036503D01*
X151629951Y-104916307D01*
X151619397Y-104890827D01*
X151619390Y-104890814D01*
X151531789Y-104759711D01*
X151531786Y-104759707D01*
X151420292Y-104648213D01*
X151420288Y-104648210D01*
X151289185Y-104560609D01*
X151289172Y-104560602D01*
X151184045Y-104517058D01*
X151129641Y-104473217D01*
X151107576Y-104406923D01*
X151119445Y-104355794D01*
X151117063Y-104354808D01*
X151179735Y-104203501D01*
X151179737Y-104203497D01*
X151210500Y-104048842D01*
X151210500Y-103891158D01*
X151210500Y-103891155D01*
X151210499Y-103891153D01*
X151179737Y-103736503D01*
X151131696Y-103620520D01*
X151119397Y-103590827D01*
X151119390Y-103590814D01*
X151031789Y-103459711D01*
X151031786Y-103459707D01*
X150920292Y-103348213D01*
X150920288Y-103348210D01*
X150789185Y-103260609D01*
X150789172Y-103260602D01*
X150643501Y-103200264D01*
X150643489Y-103200261D01*
X150488845Y-103169500D01*
X150488842Y-103169500D01*
X150331158Y-103169500D01*
X150331155Y-103169500D01*
X150176510Y-103200261D01*
X150176498Y-103200264D01*
X150030827Y-103260602D01*
X150030814Y-103260609D01*
X149899711Y-103348210D01*
X149899707Y-103348213D01*
X149788213Y-103459707D01*
X149788210Y-103459711D01*
X149700609Y-103590814D01*
X149700602Y-103590827D01*
X149640264Y-103736498D01*
X149640261Y-103736508D01*
X149609361Y-103891850D01*
X149576976Y-103953761D01*
X149575425Y-103955339D01*
X148937584Y-104593181D01*
X148876261Y-104626666D01*
X148849903Y-104629500D01*
X142312127Y-104629500D01*
X142245088Y-104609815D01*
X142199333Y-104557011D01*
X142189389Y-104487853D01*
X142194196Y-104467182D01*
X142217246Y-104396243D01*
X142250500Y-104186287D01*
X142250500Y-103973713D01*
X142217246Y-103763757D01*
X142151557Y-103561588D01*
X142055051Y-103372184D01*
X142055049Y-103372181D01*
X142055048Y-103372179D01*
X141930109Y-103200213D01*
X141779786Y-103049890D01*
X141607820Y-102924951D01*
X141418414Y-102828444D01*
X141418413Y-102828443D01*
X141418412Y-102828443D01*
X141216243Y-102762754D01*
X141216241Y-102762753D01*
X141216240Y-102762753D01*
X141054957Y-102737208D01*
X141006287Y-102729500D01*
X140793713Y-102729500D01*
X140745042Y-102737208D01*
X140583760Y-102762753D01*
X140381585Y-102828444D01*
X140192179Y-102924951D01*
X140020213Y-103049890D01*
X139869890Y-103200213D01*
X139744949Y-103372182D01*
X139740484Y-103380946D01*
X139692509Y-103431742D01*
X139624688Y-103448536D01*
X139558553Y-103425998D01*
X139519516Y-103380946D01*
X139515050Y-103372182D01*
X139390109Y-103200213D01*
X139239786Y-103049890D01*
X139067820Y-102924951D01*
X139067115Y-102924591D01*
X139059054Y-102920485D01*
X139008259Y-102872512D01*
X138991463Y-102804692D01*
X139013999Y-102738556D01*
X139059054Y-102699515D01*
X139067816Y-102695051D01*
X139089789Y-102679086D01*
X139239786Y-102570109D01*
X139239788Y-102570106D01*
X139239792Y-102570104D01*
X139390104Y-102419792D01*
X139390106Y-102419788D01*
X139390109Y-102419786D01*
X139515048Y-102247820D01*
X139515047Y-102247820D01*
X139515051Y-102247816D01*
X139611557Y-102058412D01*
X139677246Y-101856243D01*
X139710500Y-101646287D01*
X139710500Y-101433713D01*
X139677246Y-101223757D01*
X139611557Y-101021588D01*
X139515051Y-100832184D01*
X139515049Y-100832181D01*
X139515048Y-100832179D01*
X139390109Y-100660213D01*
X139239786Y-100509890D01*
X139067820Y-100384951D01*
X139065991Y-100384019D01*
X139059054Y-100380485D01*
X139008259Y-100332512D01*
X138991463Y-100264692D01*
X139013999Y-100198556D01*
X139059054Y-100159515D01*
X139067816Y-100155051D01*
X139178481Y-100074649D01*
X139239786Y-100030109D01*
X139239788Y-100030106D01*
X139239792Y-100030104D01*
X139390104Y-99879792D01*
X139390106Y-99879788D01*
X139390109Y-99879786D01*
X139515048Y-99707820D01*
X139515047Y-99707820D01*
X139515051Y-99707816D01*
X139611557Y-99518412D01*
X139677246Y-99316243D01*
X139710500Y-99106287D01*
X139710500Y-98893713D01*
X139677246Y-98683757D01*
X139611557Y-98481588D01*
X139515051Y-98292184D01*
X139515049Y-98292181D01*
X139515048Y-98292179D01*
X139390109Y-98120213D01*
X139276569Y-98006673D01*
X139243084Y-97945350D01*
X139248068Y-97875658D01*
X139289940Y-97819725D01*
X139320915Y-97802810D01*
X139452331Y-97753796D01*
X139567546Y-97667546D01*
X139653796Y-97552331D01*
X139702810Y-97420916D01*
X139744681Y-97364984D01*
X139810145Y-97340566D01*
X139878418Y-97355417D01*
X139906673Y-97376569D01*
X140020213Y-97490109D01*
X140192179Y-97615048D01*
X140192181Y-97615049D01*
X140192184Y-97615051D01*
X140381588Y-97711557D01*
X140583757Y-97777246D01*
X140793713Y-97810500D01*
X140793714Y-97810500D01*
X141006286Y-97810500D01*
X141006287Y-97810500D01*
X141216243Y-97777246D01*
X141418412Y-97711557D01*
X141607816Y-97615051D01*
X141694138Y-97552335D01*
X141779786Y-97490109D01*
X141779788Y-97490106D01*
X141779792Y-97490104D01*
X141930104Y-97339792D01*
X141930106Y-97339788D01*
X141930109Y-97339786D01*
X142055048Y-97167820D01*
X142055047Y-97167820D01*
X142055051Y-97167816D01*
X142151557Y-96978412D01*
X142217246Y-96776243D01*
X142250500Y-96566287D01*
X142250500Y-96353713D01*
X142217246Y-96143757D01*
X142151557Y-95941588D01*
X142055051Y-95752184D01*
X142055049Y-95752181D01*
X142055048Y-95752179D01*
X141930109Y-95580213D01*
X141779786Y-95429890D01*
X141607820Y-95304951D01*
X141418414Y-95208444D01*
X141418413Y-95208443D01*
X141418412Y-95208443D01*
X141216243Y-95142754D01*
X141216241Y-95142753D01*
X141216240Y-95142753D01*
X141054957Y-95117208D01*
X141006287Y-95109500D01*
X140793713Y-95109500D01*
X140745042Y-95117208D01*
X140583760Y-95142753D01*
X140381585Y-95208444D01*
X140192179Y-95304951D01*
X140020215Y-95429889D01*
X139906673Y-95543431D01*
X139845350Y-95576915D01*
X139775658Y-95571931D01*
X139719725Y-95530059D01*
X139702810Y-95499082D01*
X139653797Y-95367671D01*
X139653793Y-95367664D01*
X139567547Y-95252455D01*
X139567544Y-95252452D01*
X139452335Y-95166206D01*
X139452328Y-95166202D01*
X139317482Y-95115908D01*
X139317483Y-95115908D01*
X139257883Y-95109501D01*
X139257881Y-95109500D01*
X139257873Y-95109500D01*
X139257864Y-95109500D01*
X137462129Y-95109500D01*
X137462123Y-95109501D01*
X137402516Y-95115908D01*
X137267671Y-95166202D01*
X137267664Y-95166206D01*
X137152455Y-95252452D01*
X137152452Y-95252455D01*
X137066206Y-95367664D01*
X137066202Y-95367671D01*
X137015908Y-95502517D01*
X137009501Y-95562116D01*
X137009500Y-95562135D01*
X137009500Y-97357870D01*
X137009501Y-97357876D01*
X137015908Y-97417483D01*
X137066202Y-97552328D01*
X137066206Y-97552335D01*
X137152452Y-97667544D01*
X137152455Y-97667547D01*
X137267664Y-97753793D01*
X137267671Y-97753797D01*
X137399082Y-97802810D01*
X137455016Y-97844681D01*
X137479433Y-97910145D01*
X137464582Y-97978418D01*
X137443431Y-98006673D01*
X137329889Y-98120215D01*
X137204951Y-98292179D01*
X137108444Y-98481585D01*
X137042753Y-98683760D01*
X137009500Y-98893713D01*
X137009500Y-99106286D01*
X137042753Y-99316239D01*
X137108444Y-99518414D01*
X137204951Y-99707820D01*
X137329890Y-99879786D01*
X137480213Y-100030109D01*
X137652182Y-100155050D01*
X137660946Y-100159516D01*
X137711742Y-100207491D01*
X137728536Y-100275312D01*
X137705998Y-100341447D01*
X137660946Y-100380484D01*
X137652182Y-100384949D01*
X137480213Y-100509890D01*
X137329890Y-100660213D01*
X137204951Y-100832179D01*
X137108444Y-101021585D01*
X137042753Y-101223760D01*
X137009500Y-101433713D01*
X137009500Y-101646286D01*
X137042753Y-101856239D01*
X137042753Y-101856241D01*
X137042754Y-101856243D01*
X137097431Y-102024522D01*
X137108444Y-102058414D01*
X137204951Y-102247820D01*
X137329890Y-102419786D01*
X137480213Y-102570109D01*
X137652182Y-102695050D01*
X137660946Y-102699516D01*
X137711742Y-102747491D01*
X137728536Y-102815312D01*
X137705998Y-102881447D01*
X137660946Y-102920484D01*
X137652182Y-102924949D01*
X137480213Y-103049890D01*
X137329890Y-103200213D01*
X137204951Y-103372179D01*
X137108444Y-103561585D01*
X137042753Y-103763760D01*
X137012660Y-103953761D01*
X137009500Y-103973713D01*
X137009500Y-104186287D01*
X137019534Y-104249644D01*
X137042753Y-104396239D01*
X137065804Y-104467182D01*
X137067799Y-104537023D01*
X137031719Y-104596856D01*
X136969018Y-104627684D01*
X136947873Y-104629500D01*
X120176423Y-104629500D01*
X120109384Y-104609815D01*
X120088742Y-104593181D01*
X118705623Y-103210062D01*
X118672138Y-103148739D01*
X118677122Y-103079047D01*
X118692982Y-103049501D01*
X118745051Y-102977836D01*
X118841557Y-102788432D01*
X118907246Y-102586263D01*
X118940500Y-102376307D01*
X118940500Y-102163733D01*
X118907246Y-101953777D01*
X118841557Y-101751608D01*
X118745051Y-101562204D01*
X118745049Y-101562201D01*
X118745048Y-101562199D01*
X118620109Y-101390233D01*
X118469786Y-101239910D01*
X118297820Y-101114971D01*
X118297115Y-101114611D01*
X118289054Y-101110505D01*
X118238259Y-101062532D01*
X118221463Y-100994712D01*
X118243999Y-100928576D01*
X118289054Y-100889535D01*
X118297816Y-100885071D01*
X118319789Y-100869106D01*
X118469786Y-100760129D01*
X118469788Y-100760126D01*
X118469792Y-100760124D01*
X118620104Y-100609812D01*
X118620106Y-100609808D01*
X118620109Y-100609806D01*
X118745048Y-100437840D01*
X118745047Y-100437840D01*
X118745051Y-100437836D01*
X118841557Y-100248432D01*
X118907246Y-100046263D01*
X118940500Y-99836307D01*
X118940500Y-99623733D01*
X118907246Y-99413777D01*
X118841557Y-99211608D01*
X118745051Y-99022204D01*
X118745049Y-99022201D01*
X118745048Y-99022199D01*
X118620109Y-98850233D01*
X118469786Y-98699910D01*
X118297820Y-98574971D01*
X118297115Y-98574611D01*
X118289054Y-98570505D01*
X118238259Y-98522532D01*
X118221463Y-98454712D01*
X118243999Y-98388576D01*
X118289054Y-98349535D01*
X118297816Y-98345071D01*
X118319789Y-98329106D01*
X118469786Y-98220129D01*
X118469788Y-98220126D01*
X118469792Y-98220124D01*
X118620104Y-98069812D01*
X118620106Y-98069808D01*
X118620109Y-98069806D01*
X118745048Y-97897840D01*
X118745047Y-97897840D01*
X118745051Y-97897836D01*
X118841557Y-97708432D01*
X118907246Y-97506263D01*
X118940500Y-97296307D01*
X118940500Y-97083733D01*
X118907246Y-96873777D01*
X118841557Y-96671608D01*
X118795296Y-96580815D01*
X118782400Y-96512145D01*
X118808677Y-96447405D01*
X118865783Y-96407148D01*
X118905781Y-96400520D01*
X123680264Y-96400520D01*
X123747303Y-96420205D01*
X123749155Y-96421418D01*
X123880814Y-96509390D01*
X123880827Y-96509397D01*
X123997597Y-96557764D01*
X124026503Y-96569737D01*
X124181153Y-96600499D01*
X124181156Y-96600500D01*
X124181158Y-96600500D01*
X124338844Y-96600500D01*
X124338845Y-96600499D01*
X124493497Y-96569737D01*
X124609192Y-96521815D01*
X124639172Y-96509397D01*
X124639172Y-96509396D01*
X124639179Y-96509394D01*
X124770289Y-96421789D01*
X124881789Y-96310289D01*
X124969394Y-96179179D01*
X125029737Y-96033497D01*
X125060500Y-95878842D01*
X125060500Y-95721158D01*
X125060500Y-95721155D01*
X125060499Y-95721153D01*
X125031808Y-95576915D01*
X125029737Y-95566503D01*
X125014537Y-95529806D01*
X124969397Y-95420827D01*
X124969390Y-95420814D01*
X124881789Y-95289711D01*
X124881786Y-95289707D01*
X124770292Y-95178213D01*
X124770288Y-95178210D01*
X124639185Y-95090609D01*
X124639172Y-95090602D01*
X124493501Y-95030264D01*
X124493489Y-95030261D01*
X124338845Y-94999500D01*
X124338842Y-94999500D01*
X124181158Y-94999500D01*
X124181155Y-94999500D01*
X124026510Y-95030261D01*
X124026498Y-95030264D01*
X123880827Y-95090602D01*
X123880814Y-95090609D01*
X123749095Y-95178622D01*
X123682417Y-95199500D01*
X123680204Y-95199520D01*
X119002127Y-95199520D01*
X118935088Y-95179835D01*
X118889333Y-95127031D01*
X118879389Y-95057873D01*
X118884196Y-95037202D01*
X118907246Y-94966263D01*
X118940500Y-94756307D01*
X118940500Y-94543733D01*
X118907246Y-94333777D01*
X118841557Y-94131608D01*
X118795296Y-94040815D01*
X118782400Y-93972145D01*
X118808677Y-93907405D01*
X118865783Y-93867148D01*
X118905781Y-93860520D01*
X156979923Y-93860520D01*
X157046962Y-93880205D01*
G37*
%TD.AperFunction*%
%TA.AperFunction,Conductor*%
G36*
X113850890Y-97872330D02*
G01*
X113906823Y-97914202D01*
X113907874Y-97915627D01*
X114019890Y-98069805D01*
X114019894Y-98069810D01*
X114170213Y-98220129D01*
X114342182Y-98345070D01*
X114350946Y-98349536D01*
X114401742Y-98397511D01*
X114418536Y-98465332D01*
X114395998Y-98531467D01*
X114350946Y-98570504D01*
X114342182Y-98574969D01*
X114170213Y-98699910D01*
X114019890Y-98850233D01*
X113894951Y-99022199D01*
X113798444Y-99211605D01*
X113732753Y-99413780D01*
X113699500Y-99623733D01*
X113699500Y-99836306D01*
X113730194Y-100030104D01*
X113732754Y-100046263D01*
X113785140Y-100207491D01*
X113798444Y-100248434D01*
X113894951Y-100437840D01*
X114019890Y-100609806D01*
X114170213Y-100760129D01*
X114342182Y-100885070D01*
X114350946Y-100889536D01*
X114401742Y-100937511D01*
X114418536Y-101005332D01*
X114395998Y-101071467D01*
X114350946Y-101110504D01*
X114342182Y-101114969D01*
X114170213Y-101239910D01*
X114019890Y-101390233D01*
X113894951Y-101562199D01*
X113798444Y-101751605D01*
X113732753Y-101953780D01*
X113699500Y-102163733D01*
X113699500Y-102376306D01*
X113730194Y-102570104D01*
X113732754Y-102586263D01*
X113790099Y-102762753D01*
X113798444Y-102788434D01*
X113894951Y-102977840D01*
X114019890Y-103149806D01*
X114170213Y-103300129D01*
X114342179Y-103425068D01*
X114342181Y-103425069D01*
X114342184Y-103425071D01*
X114531588Y-103521577D01*
X114733757Y-103587266D01*
X114943713Y-103620520D01*
X114943714Y-103620520D01*
X115156286Y-103620520D01*
X115156287Y-103620520D01*
X115366243Y-103587266D01*
X115408523Y-103573527D01*
X115478362Y-103571531D01*
X115534521Y-103603776D01*
X115831284Y-103900540D01*
X115831286Y-103900541D01*
X115831290Y-103900544D01*
X115968209Y-103979593D01*
X115968216Y-103979597D01*
X116120943Y-104020521D01*
X116120945Y-104020521D01*
X116274219Y-104020521D01*
X116341258Y-104040206D01*
X116387013Y-104093010D01*
X116396957Y-104162168D01*
X116384704Y-104200816D01*
X116338444Y-104291605D01*
X116272753Y-104493780D01*
X116239500Y-104703733D01*
X116239500Y-104916306D01*
X116270194Y-105110104D01*
X116272754Y-105126263D01*
X116325140Y-105287491D01*
X116338444Y-105328434D01*
X116434951Y-105517840D01*
X116559890Y-105689806D01*
X116710213Y-105840129D01*
X116882182Y-105965070D01*
X116890946Y-105969536D01*
X116941742Y-106017511D01*
X116958536Y-106085332D01*
X116935998Y-106151467D01*
X116890946Y-106190504D01*
X116882182Y-106194969D01*
X116710213Y-106319910D01*
X116559890Y-106470233D01*
X116434949Y-106642202D01*
X116430484Y-106650966D01*
X116382509Y-106701762D01*
X116314688Y-106718556D01*
X116248553Y-106696018D01*
X116209516Y-106650966D01*
X116205050Y-106642202D01*
X116080109Y-106470233D01*
X115929786Y-106319910D01*
X115757820Y-106194971D01*
X115568414Y-106098464D01*
X115568413Y-106098463D01*
X115568412Y-106098463D01*
X115366243Y-106032774D01*
X115366241Y-106032773D01*
X115366240Y-106032773D01*
X115204957Y-106007228D01*
X115156287Y-105999520D01*
X114943713Y-105999520D01*
X114895042Y-106007228D01*
X114733760Y-106032773D01*
X114531585Y-106098464D01*
X114342179Y-106194971D01*
X114170213Y-106319910D01*
X114019890Y-106470233D01*
X113894951Y-106642199D01*
X113798444Y-106831605D01*
X113732753Y-107033780D01*
X113699500Y-107243733D01*
X113699500Y-107456306D01*
X113730194Y-107650104D01*
X113732754Y-107666263D01*
X113785140Y-107827491D01*
X113798444Y-107868434D01*
X113894951Y-108057840D01*
X114019890Y-108229806D01*
X114170213Y-108380129D01*
X114342182Y-108505070D01*
X114350946Y-108509536D01*
X114401742Y-108557511D01*
X114418536Y-108625332D01*
X114395998Y-108691467D01*
X114350946Y-108730504D01*
X114342182Y-108734969D01*
X114170213Y-108859910D01*
X114019890Y-109010233D01*
X113894951Y-109182199D01*
X113798444Y-109371605D01*
X113732753Y-109573780D01*
X113699500Y-109783733D01*
X113699500Y-109996306D01*
X113730194Y-110190104D01*
X113732754Y-110206263D01*
X113790099Y-110382753D01*
X113798444Y-110408434D01*
X113894951Y-110597840D01*
X114019890Y-110769806D01*
X114170213Y-110920129D01*
X114342182Y-111045070D01*
X114350946Y-111049536D01*
X114401742Y-111097511D01*
X114418536Y-111165332D01*
X114395998Y-111231467D01*
X114350946Y-111270504D01*
X114342182Y-111274969D01*
X114170213Y-111399910D01*
X114019890Y-111550233D01*
X113894951Y-111722199D01*
X113798444Y-111911605D01*
X113732753Y-112113780D01*
X113699500Y-112323733D01*
X113699500Y-112536306D01*
X113730194Y-112730104D01*
X113732754Y-112746263D01*
X113785140Y-112907491D01*
X113798444Y-112948434D01*
X113894951Y-113137840D01*
X114019890Y-113309806D01*
X114170213Y-113460129D01*
X114342182Y-113585070D01*
X114350946Y-113589536D01*
X114401742Y-113637511D01*
X114418536Y-113705332D01*
X114395998Y-113771467D01*
X114350946Y-113810504D01*
X114342182Y-113814969D01*
X114170213Y-113939910D01*
X114019890Y-114090233D01*
X113894951Y-114262199D01*
X113798444Y-114451605D01*
X113732753Y-114653780D01*
X113699500Y-114863733D01*
X113699500Y-115076306D01*
X113730194Y-115270104D01*
X113732754Y-115286263D01*
X113785140Y-115447491D01*
X113798444Y-115488434D01*
X113894951Y-115677840D01*
X114019890Y-115849806D01*
X114170213Y-116000129D01*
X114342182Y-116125070D01*
X114350946Y-116129536D01*
X114401742Y-116177511D01*
X114418536Y-116245332D01*
X114395998Y-116311467D01*
X114350946Y-116350504D01*
X114342182Y-116354969D01*
X114170213Y-116479910D01*
X114019890Y-116630233D01*
X113894951Y-116802199D01*
X113798444Y-116991605D01*
X113732753Y-117193780D01*
X113699500Y-117403733D01*
X113699500Y-117616306D01*
X113730194Y-117810104D01*
X113732754Y-117826263D01*
X113785140Y-117987491D01*
X113798444Y-118028434D01*
X113894951Y-118217840D01*
X114019890Y-118389806D01*
X114170213Y-118540129D01*
X114342179Y-118665068D01*
X114342181Y-118665069D01*
X114342184Y-118665071D01*
X114531588Y-118761577D01*
X114733757Y-118827266D01*
X114943713Y-118860520D01*
X114943714Y-118860520D01*
X115156286Y-118860520D01*
X115156287Y-118860520D01*
X115366243Y-118827266D01*
X115568412Y-118761577D01*
X115757816Y-118665071D01*
X115779789Y-118649106D01*
X115929786Y-118540129D01*
X115929788Y-118540126D01*
X115929792Y-118540124D01*
X116080104Y-118389812D01*
X116080106Y-118389808D01*
X116080109Y-118389806D01*
X116205048Y-118217840D01*
X116205047Y-118217840D01*
X116205051Y-118217836D01*
X116209514Y-118209074D01*
X116257488Y-118158279D01*
X116325308Y-118141483D01*
X116391444Y-118164019D01*
X116430486Y-118209076D01*
X116434951Y-118217840D01*
X116559890Y-118389806D01*
X116710213Y-118540129D01*
X116882179Y-118665068D01*
X116882181Y-118665069D01*
X116882184Y-118665071D01*
X117071588Y-118761577D01*
X117273757Y-118827266D01*
X117483713Y-118860520D01*
X117483714Y-118860520D01*
X117696286Y-118860520D01*
X117696287Y-118860520D01*
X117906243Y-118827266D01*
X118108412Y-118761577D01*
X118297816Y-118665071D01*
X118319789Y-118649106D01*
X118469786Y-118540129D01*
X118469788Y-118540126D01*
X118469792Y-118540124D01*
X118620104Y-118389812D01*
X118620106Y-118389808D01*
X118620109Y-118389806D01*
X118745048Y-118217840D01*
X118745047Y-118217840D01*
X118745051Y-118217836D01*
X118841557Y-118028432D01*
X118907246Y-117826263D01*
X118940500Y-117616307D01*
X118940500Y-117403733D01*
X118907246Y-117193777D01*
X118841557Y-116991608D01*
X118745051Y-116802204D01*
X118745049Y-116802201D01*
X118745048Y-116802199D01*
X118620109Y-116630233D01*
X118469786Y-116479910D01*
X118297820Y-116354971D01*
X118297115Y-116354611D01*
X118289054Y-116350505D01*
X118238259Y-116302532D01*
X118221463Y-116234712D01*
X118243999Y-116168576D01*
X118289054Y-116129535D01*
X118297816Y-116125071D01*
X118319789Y-116109106D01*
X118469786Y-116000129D01*
X118469788Y-116000126D01*
X118469792Y-116000124D01*
X118620104Y-115849812D01*
X118620106Y-115849808D01*
X118620109Y-115849806D01*
X118745048Y-115677840D01*
X118745047Y-115677840D01*
X118745051Y-115677836D01*
X118841557Y-115488432D01*
X118907246Y-115286263D01*
X118940500Y-115076307D01*
X118940500Y-114863733D01*
X118907246Y-114653777D01*
X118841557Y-114451608D01*
X118745051Y-114262204D01*
X118745049Y-114262201D01*
X118745048Y-114262199D01*
X118620109Y-114090233D01*
X118469786Y-113939910D01*
X118297820Y-113814971D01*
X118297115Y-113814611D01*
X118289054Y-113810505D01*
X118238259Y-113762532D01*
X118221463Y-113694712D01*
X118243999Y-113628576D01*
X118289054Y-113589535D01*
X118297816Y-113585071D01*
X118319789Y-113569106D01*
X118469786Y-113460129D01*
X118469788Y-113460126D01*
X118469792Y-113460124D01*
X118620104Y-113309812D01*
X118620106Y-113309808D01*
X118620109Y-113309806D01*
X118745048Y-113137840D01*
X118745047Y-113137840D01*
X118745051Y-113137836D01*
X118841557Y-112948432D01*
X118907246Y-112746263D01*
X118940500Y-112536307D01*
X118940500Y-112323733D01*
X118907246Y-112113777D01*
X118841557Y-111911608D01*
X118745051Y-111722204D01*
X118745049Y-111722201D01*
X118745048Y-111722199D01*
X118620109Y-111550233D01*
X118469786Y-111399910D01*
X118297820Y-111274971D01*
X118297115Y-111274611D01*
X118289054Y-111270505D01*
X118238259Y-111222532D01*
X118221463Y-111154712D01*
X118243999Y-111088576D01*
X118289054Y-111049535D01*
X118297816Y-111045071D01*
X118319789Y-111029106D01*
X118469786Y-110920129D01*
X118469788Y-110920126D01*
X118469792Y-110920124D01*
X118620104Y-110769812D01*
X118620106Y-110769808D01*
X118620109Y-110769806D01*
X118745048Y-110597840D01*
X118745047Y-110597840D01*
X118745051Y-110597836D01*
X118841557Y-110408432D01*
X118907246Y-110206263D01*
X118940500Y-109996307D01*
X118940500Y-109783733D01*
X118907246Y-109573777D01*
X118841557Y-109371608D01*
X118745051Y-109182204D01*
X118745049Y-109182201D01*
X118745048Y-109182199D01*
X118620109Y-109010233D01*
X118469786Y-108859910D01*
X118297820Y-108734971D01*
X118297115Y-108734611D01*
X118289054Y-108730505D01*
X118238259Y-108682532D01*
X118221463Y-108614712D01*
X118243999Y-108548576D01*
X118289054Y-108509535D01*
X118297816Y-108505071D01*
X118329399Y-108482125D01*
X118469786Y-108380129D01*
X118469788Y-108380126D01*
X118469792Y-108380124D01*
X118620104Y-108229812D01*
X118620106Y-108229808D01*
X118620109Y-108229806D01*
X118722480Y-108088902D01*
X118745051Y-108057836D01*
X118745349Y-108057250D01*
X118765235Y-108018225D01*
X118813209Y-107967429D01*
X118875719Y-107950520D01*
X128409507Y-107950520D01*
X128476546Y-107970205D01*
X128522301Y-108023009D01*
X128532245Y-108092167D01*
X128509679Y-108143366D01*
X128511595Y-108144646D01*
X128420609Y-108280814D01*
X128420602Y-108280827D01*
X128360264Y-108426498D01*
X128360261Y-108426510D01*
X128329500Y-108581153D01*
X128329500Y-108738846D01*
X128360261Y-108893489D01*
X128360264Y-108893501D01*
X128420602Y-109039172D01*
X128420609Y-109039185D01*
X128508602Y-109170874D01*
X128529480Y-109237551D01*
X128529500Y-109239765D01*
X128529500Y-115583330D01*
X128529499Y-115583348D01*
X128529499Y-115749054D01*
X128529498Y-115749054D01*
X128570422Y-115901783D01*
X128587908Y-115932069D01*
X128587910Y-115932072D01*
X128649479Y-116038714D01*
X128649481Y-116038717D01*
X128768349Y-116157585D01*
X128768355Y-116157590D01*
X134818584Y-122207819D01*
X134852069Y-122269142D01*
X134847085Y-122338834D01*
X134805213Y-122394767D01*
X134739749Y-122419184D01*
X134730903Y-122419500D01*
X114520097Y-122419500D01*
X114453058Y-122399815D01*
X114432416Y-122383181D01*
X113216819Y-121167584D01*
X113183334Y-121106261D01*
X113180500Y-121079903D01*
X113180500Y-99619765D01*
X113200185Y-99552726D01*
X113201398Y-99550874D01*
X113223089Y-99518412D01*
X113289394Y-99419179D01*
X113349737Y-99273497D01*
X113380500Y-99118842D01*
X113380500Y-98961158D01*
X113380500Y-98961155D01*
X113380499Y-98961153D01*
X113358435Y-98850233D01*
X113349737Y-98806503D01*
X113298896Y-98683760D01*
X113289397Y-98660827D01*
X113289390Y-98660814D01*
X113213948Y-98547908D01*
X113193070Y-98481231D01*
X113211554Y-98413851D01*
X113229364Y-98391341D01*
X113719876Y-97900829D01*
X113781198Y-97867346D01*
X113850890Y-97872330D01*
G37*
%TD.AperFunction*%
%TA.AperFunction,Conductor*%
G36*
X139651258Y-105850185D02*
G01*
X139697013Y-105902989D01*
X139706957Y-105972147D01*
X139694704Y-106010795D01*
X139648444Y-106101585D01*
X139582753Y-106303760D01*
X139549500Y-106513713D01*
X139549500Y-106726287D01*
X139582754Y-106936243D01*
X139597395Y-106981304D01*
X139605804Y-107007182D01*
X139607799Y-107077023D01*
X139571719Y-107136856D01*
X139509018Y-107167684D01*
X139487873Y-107169500D01*
X134980097Y-107169500D01*
X134913058Y-107149815D01*
X134892416Y-107133181D01*
X133801416Y-106042181D01*
X133767931Y-105980858D01*
X133772915Y-105911166D01*
X133814787Y-105855233D01*
X133880251Y-105830816D01*
X133889097Y-105830500D01*
X139584219Y-105830500D01*
X139651258Y-105850185D01*
G37*
%TD.AperFunction*%
%TD*%
M02*
